<?xml version="1.0" standalone="no"?>
<!DOCTYPE svg PUBLIC "-//W3C//DTD SVG 20010904//EN"
 "http://www.w3.org/TR/2001/REC-SVG-20010904/DTD/svg10.dtd">
<svg version="1.0" xmlns="http://www.w3.org/2000/svg"
 width="700.000000pt" height="700.000000pt" viewBox="0 0 700.000000 700.000000"
 preserveAspectRatio="xMidYMid meet">
<metadata>
Created by potrace 1.14, written by Peter Selinger 2001-2017
</metadata>
<g transform="translate(0.000000,700.000000) scale(0.100000,-0.100000)"
fill="#000000" stroke="none">
<path d="M3278 6995 c-1 -1 -42 -5 -89 -9 -47 -4 -95 -8 -105 -10 -10 -2 -46
-7 -79 -11 -32 -4 -68 -9 -80 -11 -11 -2 -45 -8 -75 -14 -86 -16 -100 -19
-120 -25 -10 -3 -27 -8 -37 -10 -279 -58 -705 -228 -946 -377 -43 -26 -81 -48
-83 -48 -18 0 -347 -238 -432 -313 -445 -390 -763 -831 -975 -1352 -69 -168
-148 -419 -172 -546 -3 -13 -11 -58 -20 -99 -29 -146 -35 -192 -52 -370 -15
-162 -8 -589 12 -711 2 -13 6 -46 10 -74 12 -98 23 -161 50 -285 49 -226 149
-512 260 -744 229 -476 560 -890 989 -1234 89 -72 367 -262 382 -262 4 0 15
-6 23 -14 9 -7 81 -47 161 -88 419 -214 860 -340 1310 -376 182 -14 591 -7
712 13 13 2 46 6 73 10 28 3 59 8 70 10 11 3 31 7 45 9 282 46 618 153 894
286 498 238 917 576 1262 1015 284 363 508 817 619 1255 40 156 43 170 51 230
3 25 8 47 9 50 2 3 6 26 10 50 3 25 8 52 10 60 2 8 7 47 11 85 3 39 8 84 11
100 8 58 10 511 2 597 -13 139 -21 208 -39 308 -6 36 -13 79 -16 95 -15 83
-78 316 -118 436 -349 1034 -1170 1853 -2202 2198 -109 36 -340 98 -439 117
-22 4 -47 9 -55 10 -8 2 -33 6 -55 9 -22 2 -51 7 -65 10 -13 2 -54 7 -90 11
-36 3 -76 8 -90 11 -27 5 -536 14 -542 8z m28 -1048 c187 -20 417 -166 517
-330 34 -55 397 -689 397 -694 0 -2 8 -16 19 -31 10 -15 49 -81 86 -147 37
-66 79 -140 93 -165 14 -25 70 -124 125 -220 55 -96 111 -195 125 -220 14 -25
56 -99 94 -165 38 -66 74 -129 80 -140 19 -34 610 -1067 640 -1120 34 -58 102
-200 112 -232 35 -113 40 -292 11 -408 -85 -342 -376 -577 -715 -578 -52 -1
-115 3 -138 7 -177 30 -346 131 -458 273 -38 47 -539 909 -740 1272 -17 31
-40 72 -51 91 -19 33 -776 1360 -815 1428 -10 17 -28 49 -39 70 -171 296 -191
354 -195 537 -3 143 14 228 69 349 103 224 339 398 576 423 31 3 57 6 58 7 4
3 98 -2 149 -7z m-1030 -2952 c304 -70 541 -331 578 -635 8 -59 9 -207 2 -218
-2 -4 -7 -23 -10 -43 -9 -57 -48 -158 -91 -235 -89 -159 -303 -320 -467 -350
-102 -18 -141 -22 -216 -18 -309 13 -589 232 -678 529 -25 86 -24 80 -31 200
-6 131 16 245 72 361 153 318 501 488 841 409z"/>
</g>
</svg>
