<?xml version="1.0" encoding="UTF-8" standalone="no"?><!DOCTYPE svg PUBLIC "-//W3C//DTD SVG 1.1//EN" "http://www.w3.org/Graphics/SVG/1.1/DTD/svg11.dtd"><svg width="100%" height="100%" viewBox="0 0 758 758" version="1.1" xmlns="http://www.w3.org/2000/svg" xmlns:xlink="http://www.w3.org/1999/xlink" xml:space="preserve" xmlns:serif="http://www.serif.com/" style="fill-rule:evenodd;clip-rule:evenodd;stroke-linejoin:round;stroke-miterlimit:2;"><rect x="242.424" y="0" width="30.303" height="30.303"/><rect x="333.333" y="0" width="30.303" height="30.303"/><rect x="363.636" y="0" width="30.303" height="30.303"/><rect x="454.545" y="0" width="30.303" height="30.303"/><rect x="484.848" y="0" width="30.303" height="30.303"/><rect x="242.424" y="30.303" width="30.303" height="30.303"/><rect x="333.333" y="30.303" width="30.303" height="30.303"/><rect x="424.242" y="30.303" width="30.303" height="30.303"/><rect x="303.03" y="60.606" width="30.303" height="30.303"/><rect x="333.333" y="60.606" width="30.303" height="30.303"/><rect x="393.939" y="60.606" width="30.303" height="30.303"/><rect x="454.545" y="60.606" width="30.303" height="30.303"/><rect x="242.424" y="90.909" width="30.303" height="30.303"/><rect x="272.727" y="90.909" width="30.303" height="30.303"/><rect x="333.333" y="90.909" width="30.303" height="30.303"/><rect x="363.636" y="90.909" width="30.303" height="30.303"/><rect x="454.545" y="90.909" width="30.303" height="30.303"/><rect x="484.848" y="90.909" width="30.303" height="30.303"/><rect x="272.727" y="121.212" width="30.303" height="30.303"/><rect x="303.03" y="121.212" width="30.303" height="30.303"/><rect x="333.333" y="121.212" width="30.303" height="30.303"/><rect x="393.939" y="121.212" width="30.303" height="30.303"/><rect x="424.242" y="121.212" width="30.303" height="30.303"/><rect x="454.545" y="121.212" width="30.303" height="30.303"/><rect x="272.727" y="151.515" width="30.303" height="30.303"/><rect x="303.03" y="151.515" width="30.303" height="30.303"/><rect x="424.242" y="151.515" width="30.303" height="30.303"/><rect x="242.424" y="181.818" width="30.303" height="30.303"/><rect x="303.03" y="181.818" width="30.303" height="30.303"/><rect x="363.636" y="181.818" width="30.303" height="30.303"/><rect x="424.242" y="181.818" width="30.303" height="30.303"/><rect x="484.848" y="181.818" width="30.303" height="30.303"/><rect x="272.727" y="212.121" width="30.303" height="30.303"/><rect x="393.939" y="212.121" width="30.303" height="30.303"/><rect x="424.242" y="212.121" width="30.303" height="30.303"/><rect x="454.545" y="212.121" width="30.303" height="30.303"/><rect x="484.848" y="212.121" width="30.303" height="30.303"/><rect x="484.848" y="212.121" width="30.303" height="30.303"/><rect x="0" y="242.424" width="30.303" height="30.303"/><rect x="60.606" y="242.424" width="30.303" height="30.303"/><rect x="90.909" y="242.424" width="30.303" height="30.303"/><rect x="151.515" y="242.424" width="30.303" height="30.303"/><rect x="181.818" y="242.424" width="30.303" height="30.303"/><rect x="212.121" y="242.424" width="30.303" height="30.303"/><rect x="303.03" y="242.424" width="30.303" height="30.303"/><rect x="363.636" y="242.424" width="30.303" height="30.303"/><rect x="393.939" y="242.424" width="30.303" height="30.303"/><rect x="424.242" y="242.424" width="30.303" height="30.303"/><rect x="454.545" y="242.424" width="30.303" height="30.303"/><rect x="545.455" y="242.424" width="30.303" height="30.303"/><rect x="636.364" y="242.424" width="30.303" height="30.303"/><rect x="696.97" y="242.424" width="30.303" height="30.303"/><rect x="727.273" y="242.424" width="30.303" height="30.303"/><rect x="30.303" y="272.727" width="30.303" height="30.303"/><rect x="90.909" y="272.727" width="30.303" height="30.303"/><rect x="121.212" y="272.727" width="30.303" height="30.303"/><rect x="212.121" y="272.727" width="30.303" height="30.303"/><rect x="303.03" y="272.727" width="30.303" height="30.303"/><rect x="333.333" y="272.727" width="30.303" height="30.303"/><rect x="363.636" y="272.727" width="30.303" height="30.303"/><rect x="484.848" y="272.727" width="30.303" height="30.303"/><rect x="515.152" y="272.727" width="30.303" height="30.303"/><rect x="545.455" y="272.727" width="30.303" height="30.303"/><rect x="727.273" y="272.727" width="30.303" height="30.303"/><rect x="90.909" y="303.03" width="30.303" height="30.303"/><rect x="151.515" y="303.03" width="30.303" height="30.303"/><rect x="181.818" y="303.03" width="30.303" height="30.303"/><rect x="212.121" y="303.03" width="30.303" height="30.303"/><rect x="303.03" y="303.03" width="30.303" height="30.303"/><rect x="333.333" y="303.03" width="30.303" height="30.303"/><rect x="393.939" y="303.03" width="30.303" height="30.303"/><rect x="454.545" y="303.03" width="30.303" height="30.303"/><rect x="666.667" y="303.03" width="30.303" height="30.303"/><rect x="0" y="333.333" width="30.303" height="30.303"/><rect x="30.303" y="333.333" width="30.303" height="30.303"/><rect x="90.909" y="333.333" width="30.303" height="30.303"/><rect x="121.212" y="333.333" width="30.303" height="30.303"/><rect x="151.515" y="333.333" width="30.303" height="30.303"/><rect x="212.121" y="333.333" width="30.303" height="30.303"/><rect x="303.03" y="333.333" width="30.303" height="30.303"/><rect x="333.333" y="333.333" width="30.303" height="30.303"/><rect x="575.758" y="363.636" width="30.303" height="30.303"/><rect x="393.939" y="333.333" width="30.303" height="30.303"/><rect x="424.242" y="333.333" width="30.303" height="30.303"/><rect x="454.545" y="333.333" width="30.303" height="30.303"/><rect x="484.848" y="333.333" width="30.303" height="30.303"/><rect x="515.152" y="333.333" width="30.303" height="30.303"/><rect x="545.455" y="333.333" width="30.303" height="30.303"/><rect x="666.667" y="333.333" width="30.303" height="30.303"/><rect x="727.273" y="333.333" width="30.303" height="30.303"/><rect x="30.303" y="363.636" width="30.303" height="30.303"/><rect x="90.909" y="363.636" width="30.303" height="30.303"/><rect x="151.515" y="363.636" width="30.303" height="30.303"/><rect x="181.818" y="363.636" width="30.303" height="30.303"/><rect x="272.727" y="363.636" width="30.303" height="30.303"/><rect x="303.03" y="363.636" width="30.303" height="30.303"/><rect x="484.848" y="363.636" width="30.303" height="30.303"/><rect x="545.455" y="363.636" width="30.303" height="30.303"/><rect x="696.97" y="363.636" width="30.303" height="30.303"/><rect x="727.273" y="363.636" width="30.303" height="30.303"/><rect x="90.909" y="393.939" width="30.303" height="30.303"/><rect x="151.515" y="393.939" width="30.303" height="30.303"/><rect x="272.727" y="393.939" width="30.303" height="30.303"/><rect x="303.03" y="393.939" width="30.303" height="30.303"/><rect x="333.333" y="393.939" width="30.303" height="30.303"/><rect x="363.636" y="393.939" width="30.303" height="30.303"/><rect x="424.242" y="393.939" width="30.303" height="30.303"/><rect x="484.848" y="393.939" width="30.303" height="30.303"/><rect x="545.455" y="393.939" width="30.303" height="30.303"/><rect x="575.758" y="393.939" width="30.303" height="30.303"/><rect x="606.061" y="393.939" width="30.303" height="30.303"/><rect x="636.364" y="393.939" width="30.303" height="30.303"/><rect x="696.97" y="393.939" width="30.303" height="30.303"/><rect x="30.303" y="424.242" width="30.303" height="30.303"/><rect x="60.606" y="424.242" width="30.303" height="30.303"/><rect x="121.212" y="424.242" width="30.303" height="30.303"/><rect x="151.515" y="424.242" width="30.303" height="30.303"/><rect x="181.818" y="424.242" width="30.303" height="30.303"/><rect x="272.727" y="424.242" width="30.303" height="30.303"/><rect x="333.333" y="424.242" width="30.303" height="30.303"/><rect x="393.939" y="424.242" width="30.303" height="30.303"/><rect x="454.545" y="424.242" width="30.303" height="30.303"/><rect x="484.848" y="424.242" width="30.303" height="30.303"/><rect x="515.152" y="424.242" width="30.303" height="30.303"/><rect x="575.758" y="424.242" width="30.303" height="30.303"/><rect x="606.061" y="424.242" width="30.303" height="30.303"/><rect x="636.364" y="424.242" width="30.303" height="30.303"/><rect x="0" y="454.545" width="30.303" height="30.303"/><rect x="60.606" y="454.545" width="30.303" height="30.303"/><rect x="212.121" y="454.545" width="30.303" height="30.303"/><rect x="393.939" y="454.545" width="30.303" height="30.303"/><rect x="424.242" y="454.545" width="30.303" height="30.303"/><rect x="484.848" y="454.545" width="30.303" height="30.303"/><rect x="575.758" y="454.545" width="30.303" height="30.303"/><rect x="636.364" y="454.545" width="30.303" height="30.303"/><rect x="696.97" y="454.545" width="30.303" height="30.303"/><rect x="727.273" y="454.545" width="30.303" height="30.303"/><rect x="60.606" y="484.848" width="30.303" height="30.303"/><rect x="90.909" y="484.848" width="30.303" height="30.303"/><rect x="121.212" y="484.848" width="30.303" height="30.303"/><rect x="151.515" y="484.848" width="30.303" height="30.303"/><rect x="181.818" y="484.848" width="30.303" height="30.303"/><rect x="333.333" y="484.848" width="30.303" height="30.303"/><rect x="484.848" y="484.848" width="30.303" height="30.303"/><rect x="515.152" y="515.152" width="30.303" height="30.303"/><rect x="545.455" y="484.848" width="30.303" height="30.303"/><rect x="575.758" y="484.848" width="30.303" height="30.303"/><rect x="606.061" y="484.848" width="30.303" height="30.303"/><rect x="636.364" y="484.848" width="30.303" height="30.303"/><rect x="666.667" y="484.848" width="30.303" height="30.303"/><rect x="696.97" y="484.848" width="30.303" height="30.303"/><rect x="242.424" y="393.939" width="30.303" height="30.303"/><rect x="272.727" y="515.152" width="30.303" height="30.303"/><rect x="303.03" y="515.152" width="30.303" height="30.303"/><rect x="363.636" y="515.152" width="30.303" height="30.303"/><rect x="393.939" y="515.152" width="30.303" height="30.303"/><rect x="454.545" y="515.152" width="30.303" height="30.303"/><rect x="484.848" y="515.152" width="30.303" height="30.303"/><rect x="575.758" y="515.152" width="30.303" height="30.303"/><rect x="636.364" y="515.152" width="30.303" height="30.303"/><rect x="666.667" y="515.152" width="30.303" height="30.303"/><rect x="242.424" y="424.242" width="30.303" height="30.303"/><rect x="272.727" y="545.455" width="30.303" height="30.303"/><rect x="333.333" y="545.455" width="30.303" height="30.303"/><rect x="363.636" y="545.455" width="30.303" height="30.303"/><rect x="484.848" y="545.455" width="30.303" height="30.303"/><rect x="606.061" y="545.455" width="30.303" height="30.303"/><rect x="636.364" y="545.455" width="30.303" height="30.303"/><rect x="666.667" y="545.455" width="30.303" height="30.303"/><rect x="696.97" y="545.455" width="30.303" height="30.303"/><rect x="727.273" y="545.455" width="30.303" height="30.303"/><rect x="242.424" y="454.545" width="30.303" height="30.303"/><rect x="272.727" y="575.758" width="30.303" height="30.303"/><rect x="363.636" y="575.758" width="30.303" height="30.303"/><rect x="606.061" y="575.758" width="30.303" height="30.303"/><rect x="636.364" y="575.758" width="30.303" height="30.303"/><rect x="696.97" y="575.758" width="30.303" height="30.303"/><rect x="727.273" y="575.758" width="30.303" height="30.303"/><rect x="303.03" y="606.061" width="30.303" height="30.303"/><rect x="333.333" y="606.061" width="30.303" height="30.303"/><rect x="363.636" y="606.061" width="30.303" height="30.303"/><rect x="393.939" y="606.061" width="30.303" height="30.303"/><rect x="484.848" y="606.061" width="30.303" height="30.303"/><rect x="515.152" y="575.758" width="30.303" height="30.303"/><rect x="545.455" y="575.758" width="30.303" height="30.303"/><rect x="575.758" y="606.061" width="30.303" height="30.303"/><rect x="606.061" y="606.061" width="30.303" height="30.303"/><rect x="666.667" y="606.061" width="30.303" height="30.303"/><rect x="727.273" y="606.061" width="30.303" height="30.303"/><rect x="242.424" y="515.152" width="30.303" height="30.303"/><rect x="272.727" y="636.364" width="30.303" height="30.303"/><rect x="363.636" y="636.364" width="30.303" height="30.303"/><rect x="393.939" y="636.364" width="30.303" height="30.303"/><rect x="424.242" y="636.364" width="30.303" height="30.303"/><rect x="484.848" y="636.364" width="30.303" height="30.303"/><rect x="515.152" y="636.364" width="30.303" height="30.303"/><rect x="545.455" y="636.364" width="30.303" height="30.303"/><rect x="575.758" y="636.364" width="30.303" height="30.303"/><rect x="606.061" y="636.364" width="30.303" height="30.303"/><rect x="696.97" y="636.364" width="30.303" height="30.303"/><rect x="727.273" y="636.364" width="30.303" height="30.303"/><rect x="242.424" y="545.455" width="30.303" height="30.303"/><rect x="242.424" y="666.667" width="30.303" height="30.303"/><rect x="272.727" y="666.667" width="30.303" height="30.303"/><rect x="333.333" y="666.667" width="30.303" height="30.303"/><rect x="363.636" y="666.667" width="30.303" height="30.303"/><rect x="393.939" y="666.667" width="30.303" height="30.303"/><rect x="454.545" y="666.667" width="30.303" height="30.303"/><rect x="515.152" y="666.667" width="30.303" height="30.303"/><rect x="606.061" y="666.667" width="30.303" height="30.303"/><rect x="666.667" y="666.667" width="30.303" height="30.303"/><rect x="696.97" y="666.667" width="30.303" height="30.303"/><rect x="272.727" y="696.97" width="30.303" height="30.303"/><rect x="303.03" y="696.97" width="30.303" height="30.303"/><rect x="454.545" y="696.97" width="30.303" height="30.303"/><rect x="484.848" y="696.97" width="30.303" height="30.303"/><rect x="515.152" y="696.97" width="30.303" height="30.303"/><rect x="606.061" y="696.97" width="30.303" height="30.303"/><rect x="666.667" y="696.97" width="30.303" height="30.303"/><rect x="696.97" y="696.97" width="30.303" height="30.303"/><rect x="727.273" y="696.97" width="30.303" height="30.303"/><rect x="242.424" y="727.273" width="30.303" height="30.303"/><rect x="272.727" y="727.273" width="30.303" height="30.303"/><rect x="363.636" y="727.273" width="30.303" height="30.303"/><rect x="424.242" y="727.273" width="30.303" height="30.303"/><rect x="454.545" y="727.273" width="30.303" height="30.303"/><rect x="575.758" y="727.273" width="30.303" height="30.303"/><rect x="696.97" y="727.273" width="30.303" height="30.303"/><rect x="727.273" y="727.273" width="30.303" height="30.303"/><path d="M0,0l212.121,0l0,212.121l-212.121,0l0,-212.121Zm30.303,30.303l151.515,0l0,151.515l-151.515,0l0,-151.515Z"/><path d="M545.455,0l212.121,0l-0,212.121l-212.121,0l-0,-212.121Zm30.303,30.303l151.515,0l-0,151.515l-151.515,0l-0,-151.515Z"/><rect x="60.606" y="60.606" width="90.909" height="90.909"/><rect x="606.061" y="60.606" width="90.909" height="90.909"/><path d="M0,545.455l212.121,-0l0,212.121l-212.121,-0l0,-212.121Zm30.303,30.303l151.515,-0l0,151.515l-151.515,-0l0,-151.515Z"/><rect x="60.606" y="606.061" width="90.909" height="90.909"/></svg>