<svg id="vector" xmlns="http://www.w3.org/2000/svg" width="24" height="23" viewBox="0 0 24 23">
    <path fill="#737373" d="M14.128,11.123C15.099,10.684 15.879,9.958 16.341,9.063C16.803,8.168 16.92,7.156 16.674,6.192C16.427,5.228 15.831,4.369 14.983,3.754C14.134,3.138 13.083,2.804 12,2.804C10.917,2.804 9.866,3.138 9.017,3.754C8.169,4.369 7.573,5.228 7.326,6.192C7.079,7.156 7.197,8.168 7.659,9.063C8.121,9.958 8.901,10.684 9.872,11.123C8.185,11.548 6.698,12.467 5.637,13.739C4.577,15.01 4.002,16.565 4,18.164V18.895C4,19.089 4.084,19.275 4.234,19.412C4.384,19.549 4.588,19.626 4.8,19.626H19.2C19.412,19.626 19.616,19.549 19.766,19.412C19.916,19.275 20,19.089 20,18.895V18.164C19.998,16.565 19.423,15.01 18.362,13.739C17.302,12.467 15.814,11.548 14.128,11.123ZM8.8,7.197C8.8,6.618 8.988,6.053 9.339,5.572C9.691,5.091 10.191,4.716 10.775,4.495C11.36,4.273 12.003,4.215 12.624,4.328C13.245,4.441 13.815,4.72 14.263,5.129C14.71,5.538 15.015,6.059 15.139,6.626C15.262,7.193 15.199,7.781 14.956,8.316C14.714,8.85 14.304,9.307 13.778,9.628C13.252,9.95 12.633,10.121 12,10.121C11.151,10.121 10.337,9.813 9.737,9.265C9.137,8.716 8.8,7.972 8.8,7.197ZM5.6,18.164C5.6,16.612 6.274,15.125 7.475,14.028C8.675,12.931 10.303,12.315 12,12.315C13.697,12.315 15.325,12.931 16.525,14.028C17.726,15.125 18.4,16.612 18.4,18.164H5.6Z" id="path_0"/>
</svg>