<svg id="vector" xmlns="http://www.w3.org/2000/svg" width="24" height="24" viewBox="0 0 20 20">
    <path fill="#006666" d="M15.455,0H4.545C2.035,0 0,2.035 0,4.545V15.455C0,17.965 2.035,20 4.545,20H15.455C17.965,20 20,17.965 20,15.455V4.545C20,2.035 17.965,0 15.455,0Z" id="path_0"/>
    <path fill="#737373" d="M9.116,13.305C9.021,13.409 8.906,13.493 8.778,13.55C8.649,13.607 8.51,13.636 8.369,13.636C8.229,13.636 8.089,13.607 7.961,13.55C7.832,13.493 7.717,13.409 7.623,13.305L5.309,10.818C5.11,10.599 5,10.313 5,10.017C5,9.721 5.11,9.436 5.309,9.216C5.403,9.112 5.519,9.028 5.647,8.971C5.776,8.914 5.915,8.885 6.056,8.885C6.196,8.885 6.335,8.914 6.464,8.971C6.593,9.028 6.708,9.112 6.802,9.216L8.182,10.699C8.206,10.726 8.235,10.747 8.267,10.761C8.3,10.775 8.335,10.783 8.371,10.783C8.406,10.783 8.441,10.775 8.474,10.761C8.506,10.747 8.535,10.726 8.559,10.699L12.286,6.699C12.381,6.595 12.496,6.511 12.625,6.454C12.753,6.397 12.892,6.367 13.033,6.367C13.174,6.367 13.313,6.397 13.441,6.454C13.57,6.511 13.685,6.595 13.779,6.699C13.979,6.918 14.09,7.204 14.088,7.5C14.09,7.796 13.979,8.082 13.779,8.301L9.116,13.305Z" id="path_1"/>
</svg>