<svg id="vector" xmlns="http://www.w3.org/2000/svg" width="24" height="24" viewBox="0 0 24 24">
    <path fill="#feca57" d="M6.684,17.128C6.881,17.091 7.078,17.128 7.247,17.241C7.416,17.353 7.528,17.522 7.566,17.719C7.594,17.878 7.659,18.028 7.753,18.169C7.847,18.309 7.959,18.422 8.1,18.516C8.241,18.609 8.391,18.666 8.55,18.703C8.709,18.741 8.878,18.731 9.037,18.703C9.197,18.675 9.347,18.609 9.487,18.516C9.628,18.422 9.741,18.309 9.834,18.169C9.928,18.028 9.984,17.878 10.022,17.719C10.059,17.559 10.05,17.391 10.022,17.231C9.994,17.034 10.031,16.837 10.144,16.678C10.256,16.519 10.425,16.406 10.613,16.369C10.8,16.331 11.006,16.369 11.166,16.472C11.325,16.575 11.447,16.744 11.494,16.931C11.625,17.644 11.466,18.366 11.063,18.966C10.659,19.556 10.041,19.978 9.328,20.119C8.625,20.259 7.894,20.119 7.284,19.725C6.684,19.331 6.253,18.722 6.103,18.019C6.084,17.925 6.084,17.822 6.103,17.728C6.122,17.634 6.159,17.541 6.216,17.456C6.272,17.372 6.337,17.306 6.422,17.25C6.497,17.184 6.591,17.147 6.684,17.128ZM12.216,13.031C12.3,13.209 12.309,13.416 12.244,13.603C12.178,13.791 12.038,13.941 11.859,14.025L9.994,14.906C9.909,14.953 9.806,14.972 9.712,14.981C9.609,14.991 9.516,14.972 9.422,14.934C9.328,14.897 9.244,14.85 9.169,14.784C9.094,14.719 9.037,14.634 8.991,14.55C8.944,14.466 8.925,14.363 8.916,14.269C8.906,14.175 8.925,14.072 8.962,13.978C9,13.884 9.047,13.8 9.112,13.725C9.178,13.65 9.262,13.594 9.347,13.547L11.212,12.666C11.391,12.581 11.597,12.572 11.784,12.637C11.981,12.712 12.131,12.844 12.216,13.031ZM3.928,14.691C3.928,14.597 3.956,14.494 4.003,14.409C4.041,14.316 4.106,14.241 4.181,14.175C4.256,14.109 4.341,14.053 4.434,14.025C4.528,13.988 4.622,13.978 4.725,13.978L6.787,14.072C6.891,14.072 6.984,14.1 7.078,14.137C7.172,14.175 7.247,14.241 7.322,14.306C7.387,14.381 7.444,14.466 7.481,14.559C7.519,14.653 7.528,14.756 7.528,14.85C7.528,14.953 7.5,15.047 7.453,15.141C7.406,15.234 7.35,15.309 7.275,15.375C7.2,15.441 7.116,15.497 7.022,15.525C6.928,15.553 6.825,15.572 6.731,15.563L4.669,15.469C4.472,15.459 4.284,15.375 4.153,15.225C3.984,15.084 3.919,14.897 3.928,14.691ZM19.734,1.378C19.884,1.275 20.063,1.228 20.25,1.256C20.428,1.275 20.597,1.369 20.719,1.5C21.984,2.916 22.753,4.875 22.753,7.031C22.753,10.772 20.4,14.006 17.147,14.644C17.053,14.663 16.95,14.672 16.847,14.653C16.744,14.634 16.65,14.597 16.566,14.541C16.481,14.484 16.406,14.419 16.35,14.334C16.294,14.25 16.256,14.156 16.237,14.053C16.219,13.95 16.219,13.856 16.237,13.753C16.256,13.65 16.303,13.556 16.359,13.481C16.416,13.397 16.491,13.331 16.575,13.275C16.659,13.219 16.753,13.191 16.856,13.172C19.275,12.703 21.253,10.2 21.253,7.031C21.253,5.475 20.775,4.069 19.987,2.991C18.769,3.675 17.4,4.031 16.003,4.031C14.606,4.031 13.238,3.675 12.019,2.991C11.241,4.069 10.753,5.475 10.753,7.031C10.753,7.228 10.678,7.425 10.538,7.566C10.397,7.706 10.209,7.781 10.003,7.781C9.806,7.781 9.609,7.706 9.469,7.566C9.328,7.425 9.253,7.238 9.253,7.031C9.253,4.875 10.022,2.916 11.288,1.5C11.409,1.369 11.578,1.275 11.756,1.256C11.934,1.238 12.122,1.275 12.272,1.378C13.369,2.128 14.672,2.531 16.003,2.522C17.334,2.531 18.628,2.128 19.734,1.378Z" fill-rule="1" id="path_0"/>
    <path fill="#feca57" d="M18,11.747C18.197,11.747 18.394,11.672 18.534,11.531C18.675,11.391 18.75,11.203 18.75,10.997C18.75,10.491 18.609,9.994 18.347,9.572C18.084,9.141 17.709,8.794 17.259,8.559C16.809,8.325 16.312,8.222 15.806,8.259C15.3,8.297 14.822,8.466 14.409,8.756C14.325,8.813 14.25,8.888 14.203,8.972C14.147,9.056 14.109,9.15 14.09,9.244C14.072,9.347 14.072,9.441 14.1,9.544C14.119,9.638 14.165,9.731 14.222,9.816C14.278,9.9 14.353,9.966 14.437,10.022C14.522,10.078 14.615,10.106 14.719,10.125C14.822,10.144 14.915,10.134 15.019,10.116C15.112,10.087 15.206,10.05 15.29,9.984C15.478,9.853 15.694,9.778 15.928,9.759C16.153,9.741 16.387,9.788 16.584,9.9C16.781,10.012 16.959,10.163 17.081,10.359C17.203,10.556 17.259,10.781 17.259,11.006C17.25,11.409 17.587,11.747 18,11.747ZM20.231,6.684C20.259,6.591 20.259,6.488 20.25,6.394C20.231,6.3 20.203,6.206 20.147,6.122C20.1,6.038 20.025,5.963 19.95,5.906C19.875,5.85 19.781,5.803 19.687,5.784L17.69,5.288C17.597,5.259 17.494,5.259 17.4,5.269C17.297,5.278 17.203,5.316 17.119,5.363C17.034,5.409 16.959,5.484 16.903,5.559C16.847,5.634 16.8,5.728 16.772,5.822C16.744,5.916 16.744,6.019 16.762,6.113C16.781,6.206 16.809,6.309 16.865,6.394C16.922,6.478 16.987,6.553 17.062,6.609C17.147,6.666 17.231,6.713 17.334,6.731L19.331,7.228C19.425,7.256 19.528,7.256 19.622,7.247C19.715,7.228 19.809,7.2 19.894,7.144C19.978,7.097 20.053,7.022 20.109,6.947C20.165,6.872 20.203,6.778 20.231,6.684ZM11.775,6.684C11.803,6.778 11.84,6.872 11.897,6.947C11.953,7.022 12.028,7.097 12.112,7.144C12.197,7.191 12.29,7.228 12.384,7.247C12.478,7.266 12.581,7.256 12.675,7.228L14.672,6.731C14.869,6.684 15.028,6.563 15.131,6.394C15.234,6.225 15.262,6.019 15.215,5.822C15.169,5.625 15.047,5.466 14.869,5.363C14.7,5.259 14.494,5.231 14.297,5.278L12.3,5.775C12.206,5.803 12.112,5.841 12.037,5.897C11.962,5.953 11.887,6.028 11.84,6.113C11.794,6.197 11.756,6.291 11.737,6.384C11.747,6.488 11.747,6.591 11.775,6.684Z" fill-rule="1" id="path_1"/>
    <path fill="#feca57" d="M14.925,13.716C14.503,11.606 13.359,9.825 11.841,8.7C11.691,8.587 11.513,8.541 11.335,8.55C11.156,8.569 10.988,8.644 10.856,8.775C9.928,9.731 8.728,10.378 7.425,10.631C6.122,10.894 4.772,10.762 3.544,10.247C3.375,10.172 3.188,10.172 3.019,10.228C2.85,10.284 2.7,10.406 2.606,10.556C1.641,12.188 1.266,14.269 1.688,16.378C1.903,17.456 2.316,18.487 2.925,19.406C4.153,21.656 6.741,22.416 6.741,22.416C7.735,22.744 8.803,22.809 9.835,22.612C13.585,21.862 15.741,17.794 14.925,13.716ZM9.535,21.15C8.747,21.309 7.95,21.244 7.2,21C5.41,20.522 4.425,19.013 4.219,18.666C4.21,18.638 4.191,18.619 4.181,18.591C3.685,17.831 3.338,16.978 3.16,16.078C2.85,14.559 3.047,13.078 3.6,11.869C4.931,12.3 6.347,12.384 7.716,12.103C9.085,11.831 10.359,11.212 11.419,10.294C12.394,11.203 13.144,12.488 13.453,14.006C14.156,17.484 12.281,20.597 9.535,21.15Z" fill-rule="1" id="path_2"/>
</svg>