<svg id="vector" xmlns="http://www.w3.org/2000/svg" width="24" height="24" viewBox="0 0 24 24">
    <path fill="#737373" d="M13.713,1.307C13.85,1.25 14.001,1.236 14.146,1.265C14.292,1.294 14.425,1.365 14.53,1.47L20.53,7.47C20.635,7.575 20.706,7.708 20.735,7.854C20.764,7.999 20.749,8.15 20.692,8.287C20.636,8.424 20.539,8.541 20.416,8.623C20.293,8.706 20.148,8.75 20,8.75H17C16.005,8.75 15.051,8.355 14.348,7.652C13.645,6.949 13.25,5.995 13.25,5V2C13.25,1.852 13.294,1.707 13.377,1.583C13.459,1.46 13.576,1.364 13.713,1.307V1.307ZM14.75,3.811V5C14.75,5.597 14.987,6.169 15.409,6.591C15.831,7.013 16.403,7.25 17,7.25H18.19L14.75,3.81V3.811ZM7.25,7C7.25,6.801 7.329,6.61 7.47,6.47C7.61,6.329 7.801,6.25 8,6.25H11C11.199,6.25 11.389,6.329 11.53,6.47C11.671,6.61 11.75,6.801 11.75,7C11.75,7.198 11.671,7.389 11.53,7.53C11.389,7.671 11.199,7.75 11,7.75H8C7.801,7.75 7.61,7.671 7.47,7.53C7.329,7.389 7.25,7.198 7.25,7ZM7.25,12C7.25,11.801 7.329,11.61 7.47,11.47C7.611,11.329 7.801,11.25 8,11.25H16C16.199,11.25 16.39,11.329 16.53,11.47C16.671,11.61 16.75,11.801 16.75,12C16.75,12.199 16.671,12.389 16.53,12.53C16.39,12.671 16.199,12.75 16,12.75H8C7.801,12.75 7.61,12.671 7.47,12.53C7.329,12.389 7.25,12.199 7.25,12ZM7.25,17C7.25,16.801 7.329,16.611 7.47,16.47C7.61,16.329 7.801,16.25 8,16.25H16C16.199,16.25 16.39,16.329 16.53,16.47C16.671,16.611 16.75,16.801 16.75,17C16.75,17.199 16.671,17.39 16.53,17.53C16.39,17.671 16.199,17.75 16,17.75H8C7.801,17.75 7.61,17.671 7.47,17.53C7.329,17.39 7.25,17.199 7.25,17Z" fill-rule="1" id="path_0"/>
    <path fill="#737373" d="M20.53,7.47L14.53,1.47C14.389,1.329 14.199,1.25 14,1.25H7C6.005,1.25 5.051,1.645 4.348,2.348C3.645,3.051 3.25,4.005 3.25,5V19C3.25,19.995 3.645,20.949 4.348,21.652C5.051,22.355 6.005,22.75 7,22.75H17C17.994,22.75 18.948,22.355 19.652,21.652C20.355,20.949 20.75,19.995 20.75,19V8C20.75,7.801 20.671,7.61 20.53,7.47ZM19.25,19C19.25,19.596 19.013,20.169 18.591,20.591C18.169,21.013 17.597,21.25 17,21.25H7C6.403,21.25 5.831,21.013 5.409,20.591C4.987,20.169 4.75,19.596 4.75,19V5C4.75,4.403 4.987,3.831 5.409,3.409C5.831,2.987 6.403,2.75 7,2.75H13.69L19.25,8.31V19Z" fill-rule="1" id="path_1"/>
</svg>