<svg id="vector" xmlns="http://www.w3.org/2000/svg" width="24" height="24" viewBox="0 0 24 24">
    <path fill="#737373" d="M4.25,5C4.25,4.801 4.329,4.61 4.47,4.47C4.61,4.329 4.801,4.25 5,4.25H13.052C13.251,4.25 13.442,4.329 13.582,4.47C13.723,4.61 13.802,4.801 13.802,5C13.802,5.199 13.723,5.39 13.582,5.53C13.442,5.671 13.251,5.75 13.052,5.75H5.675C5.528,6.47 5.172,7.132 4.652,7.652C4.132,8.172 3.47,8.528 2.75,8.675V15.325C3.47,15.473 4.132,15.828 4.652,16.348C5.172,16.868 5.527,17.53 5.675,18.25H18.325C18.473,17.53 18.828,16.868 19.348,16.348C19.868,15.828 20.53,15.473 21.25,15.325V8.675C20.53,8.527 19.868,8.172 19.348,7.652C18.828,7.132 18.473,6.47 18.325,5.75H17.039C16.84,5.75 16.649,5.671 16.509,5.53C16.368,5.39 16.289,5.199 16.289,5C16.289,4.801 16.368,4.61 16.509,4.47C16.649,4.329 16.84,4.25 17.039,4.25H19C19.199,4.25 19.39,4.329 19.53,4.47C19.671,4.61 19.75,4.801 19.75,5C19.75,5.597 19.987,6.169 20.409,6.591C20.831,7.013 21.403,7.25 22,7.25C22.199,7.25 22.39,7.329 22.53,7.47C22.671,7.61 22.75,7.801 22.75,8V16C22.75,16.199 22.671,16.39 22.53,16.53C22.39,16.671 22.199,16.75 22,16.75C21.403,16.75 20.831,16.987 20.409,17.409C19.987,17.831 19.75,18.403 19.75,19C19.75,19.199 19.671,19.39 19.53,19.53C19.39,19.671 19.199,19.75 19,19.75H5C4.801,19.75 4.61,19.671 4.47,19.53C4.329,19.39 4.25,19.199 4.25,19C4.25,18.403 4.013,17.831 3.591,17.409C3.169,16.987 2.597,16.75 2,16.75C1.801,16.75 1.61,16.671 1.47,16.53C1.329,16.39 1.25,16.199 1.25,16V8C1.25,7.801 1.329,7.61 1.47,7.47C1.61,7.329 1.801,7.25 2,7.25C2.597,7.25 3.169,7.013 3.591,6.591C4.013,6.169 4.25,5.597 4.25,5Z" fill-rule="1" id="path_0"/>
    <path fill="#737373" d="M10,8.25C9.801,8.25 9.61,8.329 9.47,8.47C9.329,8.61 9.25,8.801 9.25,9C9.25,9.199 9.329,9.39 9.47,9.53C9.61,9.671 9.801,9.75 10,9.75C10.199,9.75 10.39,9.671 10.53,9.53C10.671,9.39 10.75,9.199 10.75,9C10.75,8.801 10.671,8.61 10.53,8.47C10.39,8.329 10.199,8.25 10,8.25ZM7.75,9C7.75,8.705 7.808,8.412 7.921,8.139C8.034,7.866 8.2,7.618 8.409,7.409C8.618,7.2 8.866,7.034 9.139,6.921C9.412,6.808 9.705,6.75 10,6.75C10.295,6.75 10.588,6.808 10.861,6.921C11.134,7.034 11.382,7.2 11.591,7.409C11.8,7.618 11.966,7.866 12.079,8.139C12.192,8.412 12.25,8.705 12.25,9C12.25,9.597 12.013,10.169 11.591,10.591C11.169,11.013 10.597,11.25 10,11.25C9.403,11.25 8.831,11.013 8.409,10.591C7.987,10.169 7.75,9.597 7.75,9ZM14.5,13.75C14.301,13.75 14.11,13.829 13.97,13.97C13.829,14.11 13.75,14.301 13.75,14.5C13.75,14.699 13.829,14.89 13.97,15.03C14.11,15.171 14.301,15.25 14.5,15.25C14.699,15.25 14.89,15.171 15.03,15.03C15.171,14.89 15.25,14.699 15.25,14.5C15.25,14.301 15.171,14.11 15.03,13.97C14.89,13.829 14.699,13.75 14.5,13.75ZM12.25,14.5C12.25,13.903 12.487,13.331 12.909,12.909C13.331,12.487 13.903,12.25 14.5,12.25C15.097,12.25 15.669,12.487 16.091,12.909C16.513,13.331 16.75,13.903 16.75,14.5C16.75,15.097 16.513,15.669 16.091,16.091C15.669,16.513 15.097,16.75 14.5,16.75C13.903,16.75 13.331,16.513 12.909,16.091C12.487,15.669 12.25,15.097 12.25,14.5ZM16.03,7.97C16.17,8.111 16.249,8.301 16.249,8.5C16.249,8.699 16.17,8.889 16.03,9.03L9.03,16.03C8.888,16.163 8.7,16.235 8.505,16.231C8.311,16.228 8.126,16.149 7.988,16.012C7.851,15.874 7.772,15.689 7.769,15.495C7.765,15.3 7.838,15.112 7.97,14.97L14.97,7.97C15.111,7.83 15.301,7.751 15.5,7.751C15.699,7.751 15.889,7.83 16.03,7.97Z" fill-rule="1" id="path_1"/>
</svg>