<svg id="vector" xmlns="http://www.w3.org/2000/svg" width="24" height="24" viewBox="0 0 24 24">
    <path fill="#737373" d="M8,15H9.5V11.75H14.1V13.875L17,11L14.1,8.1V10.25H8.75C8.533,10.25 8.354,10.321 8.212,10.462C8.071,10.604 8,10.783 8,11V15ZM12,22.075C11.8,22.075 11.604,22.042 11.412,21.975C11.221,21.908 11.058,21.808 10.925,21.675L2.325,13.075C2.191,12.942 2.091,12.779 2.025,12.587C1.958,12.396 1.925,12.2 1.925,12C1.925,11.8 1.958,11.604 2.025,11.413C2.091,11.221 2.191,11.058 2.325,10.925L10.925,2.325C11.058,2.192 11.221,2.092 11.412,2.025C11.604,1.958 11.8,1.925 12,1.925C12.2,1.925 12.396,1.958 12.587,2.025C12.779,2.092 12.941,2.192 13.075,2.325L21.675,10.925C21.808,11.058 21.908,11.221 21.975,11.413C22.042,11.604 22.075,11.8 22.075,12C22.075,12.2 22.042,12.396 21.975,12.587C21.908,12.779 21.808,12.942 21.675,13.075L13.075,21.675C12.941,21.808 12.779,21.908 12.587,21.975C12.396,22.042 12.2,22.075 12,22.075ZM7.7,16.3L12,20.6L20.6,12L12,3.4L3.4,12L7.7,16.3Z" id="path_0"/>
</svg>