<svg id="vector" xmlns="http://www.w3.org/2000/svg" width="24" height="24" viewBox="0 0 24 24">
    <defs>
        <clipPath id="clip_path_0">
            <path d="M0,0h24v24h-24z"/>
        </clipPath>
    </defs>
    <g id="g_0">
        <path fill="#ea0578" d="M12,24C18.627,24 24,18.627 24,12C24,5.373 18.627,0 12,0C5.373,0 0,5.373 0,12C0,18.627 5.373,24 12,24Z" clip-path="url(#clip_path_0)"/>
        <path fill="#000000" d="M18.147,4.881C16.928,5.702 15.912,6.786 15.174,8.053C14.86,7.162 12.277,3.182 10.891,4.565C11.613,5.346 13.129,6.94 13.278,8.861C13.376,10.104 13.278,10.662 13.321,11.135C13.384,11.678 13.596,11.881 13.883,11.979C14.626,12.083 15.352,12.285 16.042,12.58C16.07,10.822 16.164,9.885 16.556,8.975C17.11,7.678 19.148,5.701 19.953,5.069C19.411,4.502 18.955,4.362 18.147,4.881Z"/>
        <path fill="#ffc705" d="M14.46,5.924L15.34,5.287L16.066,6.17L15.874,4.885L17.004,3.842L15.662,4.233L15.34,3.217L15.01,4.233L13.761,4.658L14.81,4.885L14.46,5.924Z"/>
        <path fill="#000000" d="M15.363,13.545C13.329,13.111 11.868,16.74 11.436,20.783C12.563,20.248 13.427,20.091 13.934,18.693C14.216,17.912 14.574,16.314 15.324,16.056C16.333,15.705 17.848,18.83 18.971,20.568C20.852,18.9 17.063,13.928 15.367,13.537"/>
        <path fill="#ffc705" d="M7.117,5.94C7.997,5.893 8.931,6.619 9.273,7.248L5.939,7.596C5.829,6.815 6.265,5.951 7.117,5.932M6.45,8.811C8.264,8.76 10.054,8.611 11.448,8.44C10.588,5.908 8.503,4.584 6.768,4.655C5.244,4.717 3.992,5.85 4.07,8.17C4.145,10.389 5.81,11.549 7.604,11.631C9.118,11.703 10.557,10.955 11.362,9.678C9.081,10.412 7.243,10.108 6.45,8.811Z"/>
        <path fill="#ffc705" d="M10.816,14.771C9.081,11.834 4.047,12.85 4.047,16.568C4.047,20.474 9.332,21.322 10.816,18.131C5.641,20.291 3.646,14.224 10.816,14.783"/>
    </g>
</svg>