<svg id="vector" xmlns="http://www.w3.org/2000/svg" width="24" height="24" viewBox="0 0 24 24">
    <path fill="#737373" d="M11.001,5.25C9.609,5.25 8.273,5.803 7.289,6.788C6.304,7.772 5.751,9.108 5.751,10.5C5.751,10.699 5.672,10.89 5.532,11.031C5.391,11.171 5.2,11.25 5.001,11.25C4.404,11.25 3.832,11.487 3.41,11.909C2.988,12.331 2.751,12.903 2.751,13.5C2.751,14.097 2.988,14.669 3.41,15.091C3.832,15.513 4.404,15.75 5.001,15.75H6.251C6.45,15.75 6.641,15.829 6.782,15.97C6.922,16.111 7.001,16.301 7.001,16.5C7.001,16.699 6.922,16.89 6.782,17.031C6.641,17.171 6.45,17.25 6.251,17.25H5.001C4.068,17.251 3.168,16.905 2.477,16.278C1.785,15.651 1.353,14.789 1.263,13.86C1.174,12.931 1.434,12.002 1.993,11.255C2.552,10.507 3.369,9.995 4.285,9.818C4.376,8.919 4.647,8.048 5.082,7.255C5.516,6.463 6.105,5.766 6.814,5.205C7.523,4.645 8.337,4.232 9.208,3.992C10.079,3.752 10.989,3.69 11.885,3.808C11.984,3.819 12.08,3.85 12.167,3.899C12.254,3.947 12.331,4.013 12.392,4.091C12.454,4.17 12.499,4.259 12.525,4.356C12.552,4.452 12.558,4.552 12.545,4.651C12.533,4.75 12.5,4.845 12.45,4.931C12.399,5.017 12.333,5.093 12.253,5.153C12.173,5.213 12.083,5.256 11.986,5.281C11.889,5.305 11.789,5.31 11.69,5.295C11.462,5.265 11.232,5.25 11.001,5.25ZM15.257,6.205C15.414,6.082 15.612,6.027 15.81,6.05C16.007,6.074 16.187,6.175 16.31,6.331C16.666,6.783 16.965,7.283 17.197,7.818C17.879,7.701 18.578,7.734 19.246,7.916C19.914,8.097 20.534,8.422 21.063,8.868C21.592,9.314 22.017,9.87 22.309,10.497C22.6,11.125 22.751,11.808 22.751,12.5C22.751,13.744 22.388,14.924 21.657,15.806C20.915,16.704 19.827,17.25 18.501,17.25H17.751C17.552,17.25 17.361,17.171 17.221,17.031C17.08,16.89 17.001,16.699 17.001,16.5C17.001,16.301 17.08,16.111 17.221,15.97C17.361,15.829 17.552,15.75 17.751,15.75H18.501C19.384,15.75 20.046,15.4 20.501,14.85C20.969,14.286 21.251,13.465 21.251,12.5C21.251,11.985 21.129,11.476 20.894,11.017C20.659,10.559 20.318,10.162 19.899,9.861C19.481,9.56 18.997,9.363 18.487,9.286C17.977,9.209 17.456,9.254 16.967,9.418C16.873,9.45 16.773,9.462 16.673,9.455C16.574,9.448 16.477,9.42 16.388,9.375C16.299,9.33 16.22,9.267 16.156,9.191C16.091,9.115 16.043,9.026 16.013,8.931C15.823,8.325 15.524,7.758 15.131,7.258C15.008,7.102 14.953,6.903 14.976,6.706C15,6.508 15.101,6.328 15.257,6.205ZM15.031,12.97C15.172,13.111 15.251,13.302 15.251,13.5C15.251,13.699 15.172,13.89 15.031,14.03L10.031,19.03C9.963,19.104 9.88,19.163 9.788,19.204C9.696,19.245 9.596,19.267 9.496,19.269C9.395,19.271 9.295,19.252 9.202,19.214C9.108,19.177 9.023,19.121 8.952,19.049C8.881,18.978 8.825,18.893 8.787,18.8C8.749,18.706 8.731,18.606 8.733,18.506C8.734,18.405 8.756,18.306 8.797,18.214C8.838,18.122 8.898,18.039 8.971,17.97L13.971,12.97C14.112,12.83 14.302,12.751 14.501,12.751C14.7,12.751 14.891,12.83 15.031,12.97Z" fill-rule="1" id="path_0"/>
    <path fill="#737373" d="M8.969,12.97C8.829,13.111 8.75,13.301 8.75,13.5C8.75,13.699 8.829,13.889 8.969,14.03L13.969,19.03C14.038,19.104 14.121,19.163 14.213,19.204C14.305,19.245 14.404,19.267 14.505,19.268C14.606,19.27 14.706,19.252 14.799,19.214C14.892,19.176 14.977,19.12 15.048,19.049C15.12,18.978 15.176,18.893 15.214,18.799C15.251,18.706 15.27,18.606 15.268,18.505C15.266,18.405 15.244,18.305 15.203,18.213C15.162,18.121 15.103,18.038 15.029,17.97L10.029,12.97C9.889,12.829 9.698,12.75 9.499,12.75C9.301,12.75 9.11,12.829 8.969,12.97Z" fill-rule="1" id="path_1"/>
</svg>