<svg id="vector" xmlns="http://www.w3.org/2000/svg" width="20" height="20" viewBox="0 0 20 20">
    <g transform="translation(0, -0.6)" id="g_0">
        <path fill="#737373" d="M16.366,4.936C15.551,4.115 14.468,3.62 13.318,3.541C12.169,3.463 11.03,3.808 10.113,4.511C9.159,3.676 7.916,3.256 6.655,3.345C5.394,3.434 4.22,4.023 3.391,4.984C2.562,5.945 2.146,7.198 2.234,8.468C2.322,9.738 2.907,10.92 3.861,11.756L9.63,17.575C9.693,17.639 9.769,17.69 9.851,17.725C9.934,17.76 10.023,17.778 10.113,17.778C10.203,17.778 10.292,17.76 10.375,17.725C10.458,17.69 10.533,17.639 10.596,17.575L16.366,11.756C16.813,11.31 17.168,10.779 17.41,10.193C17.653,9.608 17.778,8.98 17.778,8.346C17.778,7.712 17.653,7.084 17.41,6.498C17.168,5.913 16.813,5.382 16.366,4.936ZM15.406,10.755L10.113,16.081L4.82,10.755C4.181,10.113 3.822,9.241 3.821,8.331C3.821,7.422 4.179,6.549 4.817,5.906C5.454,5.262 6.32,4.9 7.223,4.9C8.125,4.899 8.991,5.26 9.63,5.902C9.693,5.967 9.769,6.018 9.851,6.052C9.934,6.087 10.023,6.105 10.113,6.105C10.203,6.105 10.292,6.087 10.375,6.052C10.458,6.018 10.533,5.967 10.596,5.902C10.912,5.584 11.288,5.332 11.701,5.16C12.114,4.988 12.557,4.899 13.004,4.9C13.451,4.9 13.893,4.989 14.306,5.162C14.719,5.334 15.094,5.587 15.41,5.906C15.726,6.224 15.976,6.603 16.147,7.019C16.317,7.435 16.405,7.881 16.405,8.331C16.404,8.781 16.316,9.227 16.145,9.643C15.974,10.059 15.722,10.437 15.406,10.755Z"/>
    </g>
</svg>