<svg id="vector" xmlns="http://www.w3.org/2000/svg" width="24" height="24" viewBox="0 0 24 24">
    <path fill="#737373" d="M18.649,8.35L15.859,11.14C15.54,11.46 15.759,12 16.209,12H18C18,15.31 15.309,18 12,18C11.21,18 10.439,17.85 9.75,17.56C9.39,17.41 8.98,17.52 8.71,17.79C8.2,18.3 8.38,19.16 9.05,19.43C9.96,19.8 10.96,20 12,20C16.42,20 20,16.42 20,12H21.789C22.24,12 22.459,11.46 22.139,11.15L19.35,8.36C19.16,8.16 18.84,8.16 18.649,8.35ZM6,12C6,8.69 8.69,6 12,6C12.79,6 13.559,6.15 14.25,6.44C14.609,6.59 15.019,6.48 15.29,6.21C15.8,5.7 15.62,4.84 14.95,4.57C14.04,4.2 13.04,4 12,4C7.58,4 4,7.58 4,12H2.21C1.76,12 1.54,12.54 1.86,12.85L4.65,15.64C4.85,15.84 5.16,15.84 5.36,15.64L8.15,12.85C8.219,12.78 8.265,12.69 8.284,12.593C8.302,12.496 8.291,12.396 8.253,12.305C8.214,12.214 8.15,12.137 8.067,12.082C7.985,12.028 7.888,11.999 7.79,12H6Z" id="path_0"/>
</svg>