<svg id="vector" xmlns="http://www.w3.org/2000/svg" width="24" height="24" viewBox="0 0 24 24">
    <path fill="#737373" d="M18.3,5.71C18.208,5.617 18.098,5.544 17.977,5.494C17.856,5.443 17.726,5.418 17.595,5.418C17.464,5.418 17.335,5.443 17.214,5.494C17.093,5.544 16.983,5.617 16.89,5.71L12,10.59L7.11,5.7C7.018,5.607 6.908,5.534 6.787,5.484C6.666,5.434 6.536,5.408 6.405,5.408C6.274,5.408 6.145,5.434 6.024,5.484C5.903,5.534 5.793,5.607 5.7,5.7C5.608,5.793 5.534,5.902 5.484,6.023C5.434,6.144 5.408,6.274 5.408,6.405C5.408,6.536 5.434,6.666 5.484,6.787C5.534,6.907 5.608,7.017 5.7,7.11L10.59,12L5.7,16.89C5.608,16.983 5.534,17.093 5.484,17.213C5.434,17.334 5.408,17.464 5.408,17.595C5.408,17.726 5.434,17.856 5.484,17.976C5.534,18.097 5.608,18.207 5.7,18.3C5.793,18.393 5.903,18.466 6.024,18.516C6.145,18.566 6.274,18.592 6.405,18.592C6.536,18.592 6.666,18.566 6.787,18.516C6.908,18.466 7.018,18.393 7.11,18.3L12,13.41L16.89,18.3C16.983,18.393 17.093,18.466 17.214,18.516C17.335,18.566 17.464,18.592 17.595,18.592C17.726,18.592 17.856,18.566 17.977,18.516C18.098,18.466 18.208,18.393 18.3,18.3C18.393,18.207 18.466,18.097 18.516,17.976C18.566,17.856 18.592,17.726 18.592,17.595C18.592,17.464 18.566,17.334 18.516,17.213C18.466,17.093 18.393,16.983 18.3,16.89L13.41,12L18.3,7.11C18.68,6.73 18.68,6.09 18.3,5.71Z" id="path_0"/>
</svg>