<svg id="vector" xmlns="http://www.w3.org/2000/svg" width="24" height="24" viewBox="0 0 24 24">
    <path fill="#737373" d="M20.25,10.395C20.237,10.297 20.204,10.202 20.153,10.116C20.103,10.03 20.036,9.955 19.957,9.895C19.877,9.836 19.787,9.792 19.691,9.767C19.594,9.742 19.494,9.736 19.396,9.75C19.297,9.764 19.202,9.797 19.117,9.847C19.031,9.898 18.956,9.965 18.896,10.044C18.775,10.204 18.723,10.406 18.75,10.605L20.138,20.25H3.863L5.251,10.605C5.278,10.406 5.226,10.204 5.105,10.044C4.984,9.884 4.804,9.778 4.606,9.75C4.407,9.722 4.205,9.774 4.044,9.895C3.884,10.016 3.778,10.196 3.751,10.395L2.251,20.895C2.235,21.001 2.242,21.11 2.271,21.214C2.301,21.317 2.353,21.413 2.423,21.495C2.495,21.577 2.584,21.642 2.684,21.686C2.783,21.73 2.892,21.752 3.001,21.75H21C21.108,21.751 21.215,21.729 21.313,21.685C21.412,21.641 21.499,21.576 21.57,21.495C21.641,21.413 21.692,21.317 21.722,21.214C21.752,21.11 21.759,21.001 21.743,20.895L20.25,10.395Z" id="path_0"/>
    <path fill="#737373" d="M12,18.75C12.127,18.75 12.253,18.718 12.364,18.656C12.476,18.595 12.57,18.506 12.637,18.397C13.11,17.647 17.25,10.898 17.25,8.002C17.25,4.83 14.895,2.25 12,2.25C9.105,2.25 6.75,4.83 6.75,8.002C6.75,10.89 10.89,17.64 11.363,18.397C11.43,18.506 11.524,18.595 11.636,18.656C11.747,18.718 11.873,18.75 12,18.75ZM12,3.75C14.07,3.75 15.75,5.655 15.75,8.002C15.75,9.788 13.432,14.108 12,16.545C10.568,14.108 8.25,9.795 8.25,8.002C8.25,5.655 9.93,3.75 12,3.75Z" id="path_1"/>
</svg>