<svg id="vector" xmlns="http://www.w3.org/2000/svg" width="24" height="24" viewBox="0 0 24 24">
    <path fill="#9747ff" d="M21.231,9.692H10.462C10.257,9.692 10.062,9.773 9.918,9.918C9.773,10.062 9.692,10.257 9.692,10.462V20.462H3.538V6.615H4.308V7.385C4.308,7.589 4.389,7.784 4.533,7.929C4.677,8.073 4.873,8.154 5.077,8.154C5.281,8.154 5.477,8.073 5.621,7.929C5.765,7.784 5.846,7.589 5.846,7.385V6.615H8.923V7.385C8.923,7.589 9.004,7.784 9.148,7.929C9.293,8.073 9.488,8.154 9.692,8.154C9.896,8.154 10.092,8.073 10.236,7.929C10.38,7.784 10.462,7.589 10.462,7.385V6.615H11.231V8.154C11.231,8.358 11.312,8.554 11.456,8.698C11.6,8.842 11.796,8.923 12,8.923C12.204,8.923 12.4,8.842 12.544,8.698C12.688,8.554 12.769,8.358 12.769,8.154V5.846C12.769,5.642 12.688,5.446 12.544,5.302C12.4,5.158 12.204,5.077 12,5.077H10.462V4.615C10.462,3.177 9.085,2 7.385,2C5.685,2 4.308,3.177 4.308,4.615V5.077H2.769C2.565,5.077 2.37,5.158 2.225,5.302C2.081,5.446 2,5.642 2,5.846V21.231C2,21.435 2.081,21.63 2.225,21.775C2.37,21.919 2.565,22 2.769,22H21.231C21.435,22 21.63,21.919 21.775,21.775C21.919,21.63 22,21.435 22,21.231V10.462C22,10.257 21.919,10.062 21.775,9.918C21.63,9.773 21.435,9.692 21.231,9.692ZM5.846,4.615C5.846,4.031 6.554,3.538 7.385,3.538C8.215,3.538 8.923,4.031 8.923,4.615V5.077H5.846V4.615ZM20.462,20.462H11.231V11.231H20.462V20.462Z" id="path_0"/>
    <path fill="#9747ff" d="M12.769,13.538V14.615C12.769,15.754 14.092,16.615 15.846,16.615C17.6,16.615 18.923,15.754 18.923,14.615V13.538C19.127,13.538 19.323,13.457 19.467,13.313C19.611,13.169 19.692,12.973 19.692,12.769C19.692,12.565 19.611,12.37 19.467,12.225C19.323,12.081 19.127,12 18.923,12H17.385C17.181,12 16.985,12.081 16.841,12.225C16.696,12.37 16.615,12.565 16.615,12.769C16.615,12.973 16.696,13.169 16.841,13.313C16.985,13.457 17.181,13.538 17.385,13.538V14.585C17.178,14.772 16.934,14.912 16.669,14.997C16.403,15.082 16.123,15.109 15.846,15.077C15.293,15.13 14.741,14.964 14.308,14.615V13.538C14.512,13.538 14.707,13.457 14.852,13.313C14.996,13.169 15.077,12.973 15.077,12.769C15.077,12.565 14.996,12.37 14.852,12.225C14.707,12.081 14.512,12 14.308,12H12.769C12.565,12 12.37,12.081 12.225,12.225C12.081,12.37 12,12.565 12,12.769C12,12.973 12.081,13.169 12.225,13.313C12.37,13.457 12.565,13.538 12.769,13.538Z" id="path_1"/>
</svg>