<svg id="vector" xmlns="http://www.w3.org/2000/svg" width="24" height="24" viewBox="0 0 24 24">
    <path fill="#ff9fb6" d="M7.247,15C7.247,14.587 7.584,14.25 7.997,14.25H15.994C16.406,14.25 16.744,14.587 16.744,15V22.003C16.744,22.416 16.406,22.753 15.994,22.753H7.997C7.584,22.753 7.247,22.416 7.247,22.003V15ZM8.747,15.75V21.253H15.244V15.75H8.747ZM6.253,1.997C6.253,1.584 6.59,1.247 7.003,1.247H17.006C17.419,1.247 17.756,1.584 17.756,1.997V6.994C17.756,7.406 17.419,7.744 17.006,7.744H7.003C6.59,7.744 6.253,7.406 6.253,6.994V1.997ZM7.753,2.747V6.244H16.256V2.747H7.753ZM15.253,10.003C15.253,9.591 15.59,9.253 16.003,9.253H19.003C19.415,9.253 19.753,9.591 19.753,10.003C19.753,10.416 19.415,10.753 19.003,10.753H16.003C15.581,10.753 15.253,10.416 15.253,10.003Z" fill-rule="1" id="path_0"/>
    <path fill="#ff9fb6" d="M21,6.253H3C2.035,6.253 1.247,7.041 1.247,8.006V8.672V9V13.003V13.641V16.003C1.247,16.969 2.035,17.756 3,17.756H7.997C8.41,17.756 8.747,17.419 8.747,17.006C8.747,16.594 8.41,16.256 7.997,16.256H3C2.86,16.256 2.747,16.144 2.747,16.003V13.641V13.003V9V8.662V7.997C2.747,7.856 2.86,7.744 3,7.744H21C21.141,7.744 21.253,7.856 21.253,7.997V15.994C21.253,16.134 21.141,16.247 21,16.247H16.003C15.591,16.247 15.253,16.584 15.253,16.997C15.253,17.409 15.591,17.747 16.003,17.747H21C21.966,17.747 22.753,16.959 22.753,15.994V7.997C22.753,7.031 21.966,6.253 21,6.253Z" id="path_1"/>
</svg>