<svg id="vector" xmlns="http://www.w3.org/2000/svg" width="24" height="24" viewBox="0 0 24 24">
    <path fill="#026666" d="M9.253,4.5C9.253,4.303 9.328,4.106 9.469,3.966C9.609,3.825 9.797,3.75 10.003,3.75H14.006C14.203,3.75 14.4,3.825 14.54,3.966C14.681,4.106 14.756,4.294 14.756,4.5V7.5C14.756,7.697 14.681,7.894 14.54,8.034C14.4,8.175 14.212,8.25 14.006,8.25H10.003C9.806,8.25 9.609,8.175 9.469,8.034C9.328,7.894 9.253,7.706 9.253,7.5V4.5ZM10.753,5.25V6.75H13.256V5.25H10.753Z" fill-rule="1" id="path_0"/>
    <path fill="#026666" d="M7.247,1.997C7.247,1.8 7.322,1.603 7.463,1.463C7.603,1.322 7.791,1.247 7.997,1.247H12C12.197,1.247 12.394,1.322 12.535,1.463C12.675,1.603 12.75,1.791 12.75,1.997V4.5C12.75,4.697 12.675,4.894 12.535,5.034C12.394,5.175 12.206,5.25 12,5.25C11.803,5.25 11.606,5.175 11.466,5.034C11.325,4.894 11.25,4.706 11.25,4.5V2.747H7.997C7.8,2.747 7.603,2.672 7.463,2.531C7.331,2.391 7.247,2.203 7.247,1.997ZM12,13.247C11.456,13.247 10.753,13.866 10.753,15C10.753,16.134 11.456,16.753 12,16.753C12.544,16.753 13.247,16.134 13.247,15C13.247,13.866 12.544,13.247 12,13.247ZM9.253,15C9.253,13.369 10.341,11.747 12,11.747C13.66,11.747 14.747,13.369 14.747,15C14.747,16.631 13.66,18.253 12,18.253C10.341,18.253 9.253,16.631 9.253,15Z" fill-rule="1" id="path_1"/>
    <path fill="#026666" d="M17.531,8.972L15.534,6.975C15.394,6.834 15.206,6.759 15,6.759H9C8.803,6.759 8.606,6.834 8.465,6.975L6.469,8.972C6.328,9.113 6.253,9.3 6.253,9.506V15.675V16.013V19.978V20.166V22.003C6.253,22.2 6.328,22.397 6.469,22.538C6.609,22.678 6.797,22.753 7.003,22.753H17.006C17.203,22.753 17.4,22.678 17.54,22.538C17.681,22.397 17.756,22.209 17.756,22.003V9.497C17.747,9.3 17.672,9.113 17.531,8.972ZM16.247,21.253H7.753V20.156V19.969V16.003V15.666V9.806L9.309,8.25H14.69L16.247,9.806V21.253Z" id="path_2"/>
</svg>