<svg id="vector" xmlns="http://www.w3.org/2000/svg" width="24" height="24" viewBox="0 0 24 24">
    <path fill="#737373" d="M20.4,15.1L18.5,13.2C18.201,12.9 17.801,12.7 17.301,12.6C16.9,12.5 16.4,12.6 16,12.8L15,13.3C14.8,13.4 14.5,13.5 14.2,13.4C13.901,13.4 13.7,13.2 13.5,13L10.901,10.4C10.7,10.2 10.601,10 10.5,9.7C10.5,9.4 10.5,9.1 10.601,8.9L11.101,7.9C11.5,7.1 11.401,6.1 10.7,5.4L8.9,3.6C8.5,3.2 7.9,3 7.3,3C6.7,3 6.2,3.2 5.8,3.6L4.4,5C3.7,5.7 3.3,6.6 3.1,7.6C2.9,8.6 3,9.6 3.5,10.5C5.5,15 9.1,18.6 13.601,20.6C14.5,21 15.5,21.1 16.5,21C17.5,20.8 18.4,20.4 19.101,19.7L20.5,18.3C20.9,17.9 21.101,17.3 21.101,16.8C21,16.1 20.801,15.5 20.4,15.1ZM19.4,16.7V16.8C19.4,16.9 19.301,16.9 19.301,17L17.9,18.4C17.4,18.9 16.801,19.2 16.201,19.3C16,19.3 15.8,19.4 15.601,19.4C15.101,19.4 14.7,19.3 14.2,19.1C10.101,17.2 6.8,13.9 4.9,9.8C4.6,9.2 4.5,8.5 4.6,7.9C4.7,7.3 5,6.6 5.5,6.2L7,4.7L7.1,4.6C7.2,4.6 7.3,4.6 7.3,4.6H7.4H7.5C7.6,4.6 7.6,4.7 7.7,4.7L9.7,6.7L9.8,6.9C9.8,7 9.8,7.1 9.7,7.3L9.2,8.3C8.9,8.9 8.9,9.5 9,10.1C9.1,10.7 9.4,11.3 9.8,11.7L12.401,14.3C12.8,14.7 13.401,15 14,15.1C14.2,15.1 14.3,15.1 14.5,15.1C14.901,15.1 15.401,15 15.8,14.8L16.9,14.2H17.101H17.201C17.301,14.2 17.4,14.3 17.5,14.4L19.4,16.3L19.5,16.4C19.4,16.5 19.4,16.6 19.4,16.7Z" fill-rule="1" id="path_0"/>
</svg>