<svg id="vector" xmlns="http://www.w3.org/2000/svg" width="24" height="24" viewBox="0 0 24 24">
    <path fill="#737373" d="M11.6,1.366C11.72,1.29 11.859,1.25 12,1.25C12.142,1.25 12.28,1.29 12.4,1.366L14.244,2.53C14.625,2.771 15.036,2.962 15.466,3.098L19.726,4.443C19.892,4.495 20.035,4.604 20.13,4.751C20.225,4.897 20.266,5.072 20.245,5.246L18.955,16.102C18.946,16.201 18.917,16.298 18.87,16.386C18.822,16.475 18.758,16.553 18.68,16.616C18.602,16.679 18.513,16.725 18.416,16.753C18.32,16.781 18.219,16.789 18.12,16.777C18.02,16.766 17.924,16.734 17.837,16.684C17.75,16.635 17.674,16.568 17.613,16.489C17.552,16.409 17.508,16.319 17.483,16.222C17.457,16.125 17.452,16.024 17.466,15.925L18.682,5.686L15.015,4.528C14.462,4.353 13.934,4.107 13.443,3.798L12,2.888L10.557,3.798C10.067,4.107 9.538,4.353 8.985,4.528L5.318,5.686L6.534,15.926C6.588,16.379 6.737,16.817 6.971,17.209C7.206,17.601 7.52,17.94 7.894,18.203L12,21.083L14.536,19.304C14.699,19.189 14.901,19.144 15.097,19.179C15.292,19.213 15.467,19.324 15.581,19.487C15.695,19.649 15.74,19.851 15.706,20.047C15.672,20.243 15.561,20.417 15.398,20.532L12.431,22.614C12.305,22.702 12.154,22.75 12,22.75C11.846,22.75 11.695,22.702 11.569,22.614L7.033,19.43C6.486,19.046 6.026,18.551 5.684,17.978C5.341,17.404 5.123,16.765 5.044,16.102L3.755,5.246C3.735,5.072 3.776,4.897 3.87,4.75C3.965,4.604 4.109,4.495 4.275,4.443L8.534,3.098C8.964,2.962 9.375,2.771 9.756,2.53L11.6,1.366Z" fill-rule="1" id="path_0"/>
    <path fill="#737373" d="M8.5,11.914C8.5,11.715 8.579,11.524 8.72,11.384C8.86,11.243 9.051,11.164 9.25,11.164H14.75C14.949,11.164 15.14,11.243 15.28,11.384C15.421,11.524 15.5,11.715 15.5,11.914V15.738C15.5,15.937 15.421,16.128 15.28,16.268C15.14,16.409 14.949,16.488 14.75,16.488H9.25C9.051,16.488 8.86,16.409 8.72,16.268C8.579,16.128 8.5,15.937 8.5,15.738V11.914ZM10,12.664V14.988H14V12.664H10Z" fill-rule="1" id="path_1"/>
    <path fill="#737373" d="M9.102,10.41C9.102,9.641 9.407,8.904 9.95,8.361C10.494,7.817 11.231,7.512 12,7.512C12.768,7.512 13.505,7.817 14.049,8.361C14.592,8.904 14.898,9.641 14.898,10.41V11.914C14.898,12.113 14.818,12.303 14.678,12.444C14.537,12.585 14.347,12.664 14.148,12.664H9.852C9.653,12.664 9.462,12.585 9.321,12.444C9.181,12.303 9.102,12.113 9.102,11.914V10.41ZM12,9.012C11.228,9.012 10.602,9.638 10.602,10.41V11.164H13.398V10.41C13.398,9.638 12.772,9.012 12,9.012Z" fill-rule="1" id="path_2"/>
</svg>