<svg id="vector" xmlns="http://www.w3.org/2000/svg" width="24" height="24" viewBox="0 0 24 24">
    <path fill="#737373" d="M12,1C12.552,1 13,1.448 13,2V4.062C16.619,4.513 19.487,7.381 19.938,11H22C22.552,11 23,11.448 23,12C23,12.552 22.552,13 22,13H19.938C19.487,16.619 16.619,19.487 13,19.938V22C13,22.552 12.552,23 12,23C11.448,23 11,22.552 11,22V19.938C7.381,19.487 4.513,16.619 4.062,13H2C1.448,13 1,12.552 1,12C1,11.448 1.448,11 2,11H4.062C4.513,7.381 7.381,4.513 11,4.062V2C11,1.448 11.448,1 12,1ZM12,18C15.314,18 18,15.314 18,12C18,8.686 15.314,6 12,6C8.686,6 6,8.686 6,12C6,15.314 8.686,18 12,18ZM10,12C10,10.895 10.895,10 12,10C13.105,10 14,10.895 14,12C14,13.105 13.105,14 12,14C10.895,14 10,13.105 10,12ZM12,8C9.791,8 8,9.791 8,12C8,14.209 9.791,16 12,16C14.209,16 16,14.209 16,12C16,9.791 14.209,8 12,8Z" fill-rule="1" id="path_0"/>
</svg>