<svg id="vector" xmlns="http://www.w3.org/2000/svg" width="24" height="24" viewBox="0 0 24 24">
    <defs>
        <clipPath id="clip_path_0">
            <path d="M5.5,5L10.5,5A0.5,0.5 0,0 1,11 5.5L11,10.5A0.5,0.5 0,0 1,10.5 11L5.5,11A0.5,0.5 0,0 1,5 10.5L5,5.5A0.5,0.5 0,0 1,5.5 5z"/>
        </clipPath>
        <clipPath id="clip_path_1">
            <path d="M13.5,5L18.5,5A0.5,0.5 0,0 1,19 5.5L19,10.5A0.5,0.5 0,0 1,18.5 11L13.5,11A0.5,0.5 0,0 1,13 10.5L13,5.5A0.5,0.5 0,0 1,13.5 5z"/>
        </clipPath>
        <clipPath id="clip_path_2">
            <path d="M5.5,13L10.5,13A0.5,0.5 0,0 1,11 13.5L11,18.5A0.5,0.5 0,0 1,10.5 19L5.5,19A0.5,0.5 0,0 1,5 18.5L5,13.5A0.5,0.5 0,0 1,5.5 13z"/>
        </clipPath>
    </defs>
    <path fill="#00000000" d="M16.5,3H19.5C20.328,3 21,3.672 21,4.5V7.5M7.5,3H4.5C3.672,3 3,3.672 3,4.5V7.5M21,16.5V19.5C21,20.328 20.328,21 19.5,21H16.5M7.5,21H4.5C3.672,21 3,20.328 3,19.5V16.5" stroke="#737373" stroke-width="1.5" stroke-linecap="round" stroke-linejoin="round" id="path_0"/>
    <g id="g_0">
        <path fill="#00000000" d="M5.5,5L10.5,5A0.5,0.5 0,0 1,11 5.5L11,10.5A0.5,0.5 0,0 1,10.5 11L5.5,11A0.5,0.5 0,0 1,5 10.5L5,5.5A0.5,0.5 0,0 1,5.5 5z" stroke="#737373" stroke-width="3" clip-path="url(#clip_path_0)"/>
    </g>
    <g id="g_1">
        <path fill="#00000000" d="M13.5,5L18.5,5A0.5,0.5 0,0 1,19 5.5L19,10.5A0.5,0.5 0,0 1,18.5 11L13.5,11A0.5,0.5 0,0 1,13 10.5L13,5.5A0.5,0.5 0,0 1,13.5 5z" stroke="#737373" stroke-width="3" clip-path="url(#clip_path_1)"/>
    </g>
    <g id="g_2">
        <path fill="#00000000" d="M5.5,13L10.5,13A0.5,0.5 0,0 1,11 13.5L11,18.5A0.5,0.5 0,0 1,10.5 19L5.5,19A0.5,0.5 0,0 1,5 18.5L5,13.5A0.5,0.5 0,0 1,5.5 13z" stroke="#737373" stroke-width="3" clip-path="url(#clip_path_2)"/>
    </g>
    <path fill="#737373" d="M13,13.5C13,13.224 13.224,13 13.5,13H14.5C14.776,13 15,13.224 15,13.5V14.5C15,14.776 14.776,15 14.5,15H13.5C13.224,15 13,14.776 13,14.5V13.5Z" id="path_1"/>
    <path fill="#737373" d="M17.5,13L18.5,13A0.5,0.5 0,0 1,19 13.5L19,14.5A0.5,0.5 0,0 1,18.5 15L17.5,15A0.5,0.5 0,0 1,17 14.5L17,13.5A0.5,0.5 0,0 1,17.5 13z" id="path_2"/>
    <path fill="#737373" d="M15.5,15L16.5,15A0.5,0.5 0,0 1,17 15.5L17,16.5A0.5,0.5 0,0 1,16.5 17L15.5,17A0.5,0.5 0,0 1,15 16.5L15,15.5A0.5,0.5 0,0 1,15.5 15z" id="path_3"/>
    <path fill="#737373" d="M17.5,17L18.5,17A0.5,0.5 0,0 1,19 17.5L19,18.5A0.5,0.5 0,0 1,18.5 19L17.5,19A0.5,0.5 0,0 1,17 18.5L17,17.5A0.5,0.5 0,0 1,17.5 17z" id="path_4"/>
</svg>