<svg id="vector" xmlns="http://www.w3.org/2000/svg" width="24" height="24" viewBox="0 0 20 20">
    <path fill="#006666" d="M10,20C15.523,20 20,15.523 20,10C20,4.477 15.523,0 10,0C4.477,0 0,4.477 0,10C0,15.523 4.477,20 10,20Z" id="path_0"/>
    <path fill="#737373" d="M10.116,12.937C10.021,13.042 9.906,13.125 9.778,13.182C9.649,13.239 9.51,13.269 9.369,13.269C9.229,13.269 9.089,13.239 8.961,13.182C8.832,13.125 8.717,13.042 8.623,12.937L6.309,10.451C6.11,10.232 6,9.946 6,9.65C6,9.354 6.11,9.068 6.309,8.849C6.403,8.745 6.519,8.661 6.647,8.604C6.776,8.547 6.915,8.517 7.056,8.517C7.196,8.517 7.335,8.547 7.464,8.604C7.593,8.661 7.708,8.745 7.802,8.849L9.182,10.332C9.206,10.358 9.235,10.379 9.267,10.394C9.3,10.408 9.335,10.415 9.371,10.415C9.406,10.415 9.441,10.408 9.474,10.394C9.506,10.379 9.535,10.358 9.559,10.332L13.286,6.332C13.381,6.227 13.496,6.144 13.625,6.087C13.753,6.03 13.892,6 14.033,6C14.174,6 14.313,6.03 14.441,6.087C14.57,6.144 14.685,6.227 14.779,6.332C14.979,6.55 15.09,6.836 15.088,7.133C15.09,7.429 14.979,7.715 14.779,7.934L10.116,12.937Z" id="path_1"/>
</svg>