<svg id="vector" xmlns="http://www.w3.org/2000/svg" width="24" height="24" viewBox="0 0 24 24">
    <path fill="#737373" d="M13,5.75C9.548,5.75 6.75,8.548 6.75,12C6.75,12.414 6.414,12.75 6,12.75C5.586,12.75 5.25,12.414 5.25,12C5.25,7.72 8.72,4.25 13,4.25C17.28,4.25 20.75,7.72 20.75,12C20.75,16.28 17.28,19.75 13,19.75C10.18,19.75 7.713,18.243 6.358,15.995C6.144,15.64 6.258,15.179 6.613,14.965C6.968,14.751 7.429,14.866 7.642,15.22C8.737,17.038 10.727,18.25 13,18.25C16.452,18.25 19.25,15.452 19.25,12C19.25,8.548 16.452,5.75 13,5.75Z" fill-rule="1" id="path_0"/>
    <path fill="#737373" d="M3.584,8.376C3.929,8.146 4.394,8.239 4.624,8.584L6.208,10.96L8.584,9.376C8.929,9.146 9.394,9.239 9.624,9.584C9.854,9.929 9.761,10.394 9.416,10.624L6.416,12.624C6.071,12.854 5.606,12.761 5.376,12.416L3.376,9.416C3.146,9.071 3.239,8.606 3.584,8.376Z" fill-rule="1" id="path_1"/>
</svg>