<svg id="vector" xmlns="http://www.w3.org/2000/svg" width="24" height="24" viewBox="0 0 24 24">
    <path fill="#737373" d="M18.305,18.118L15.692,15.27C16.736,14.274 17.41,12.934 17.597,11.48C17.784,10.027 17.473,8.551 16.718,7.309C15.962,6.067 14.809,5.137 13.458,4.678C12.108,4.22 10.644,4.263 9.321,4.8C7.998,5.336 6.898,6.333 6.212,7.617C5.526,8.901 5.297,10.393 5.564,11.833C5.831,13.273 6.577,14.572 7.674,15.505C8.771,16.437 10.15,16.945 11.572,16.941C12.5,16.941 13.415,16.72 14.246,16.294L17.034,19.358C17.115,19.446 17.214,19.517 17.323,19.565C17.433,19.612 17.551,19.637 17.669,19.636C17.892,19.638 18.108,19.551 18.27,19.393C18.354,19.312 18.422,19.215 18.469,19.107C18.516,18.998 18.542,18.882 18.546,18.763C18.549,18.644 18.529,18.526 18.488,18.416C18.447,18.305 18.385,18.204 18.305,18.118ZM7.216,10.652C7.216,9.764 7.472,8.895 7.95,8.156C8.429,7.418 9.109,6.842 9.905,6.502C10.701,6.162 11.577,6.073 12.422,6.246C13.266,6.42 14.042,6.847 14.651,7.476C15.261,8.104 15.675,8.904 15.844,9.776C16.012,10.647 15.925,11.55 15.596,12.371C15.266,13.192 14.708,13.893 13.991,14.387C13.275,14.881 12.433,15.144 11.572,15.144C10.417,15.144 9.309,14.671 8.492,13.828C7.675,12.986 7.216,11.843 7.216,10.652Z" id="path_0"/>
</svg>