<svg id="vector" xmlns="http://www.w3.org/2000/svg" width="24" height="24" viewBox="0 0 24 24">
    <path fill="#341f97" d="M8.25,4.003C8.25,3.272 8.541,2.578 9.056,2.062C9.572,1.547 10.275,1.256 10.997,1.256H12.994C13.725,1.256 14.419,1.547 14.935,2.062C15.45,2.578 15.741,3.281 15.741,4.003V7.003C15.741,7.2 15.666,7.397 15.525,7.537C15.385,7.678 15.197,7.753 14.991,7.753H9C8.803,7.753 8.606,7.678 8.466,7.537C8.325,7.397 8.25,7.209 8.25,7.003V4.003ZM10.997,2.747C10.303,2.747 9.75,3.309 9.75,3.994V6.244H14.25V3.994C14.25,3.3 13.688,2.747 13.003,2.747H10.997ZM12,8.747C12.197,8.747 12.394,8.822 12.535,8.962C12.675,9.103 12.75,9.291 12.75,9.497V18C12.75,18.197 12.675,18.394 12.535,18.534C12.394,18.675 12.206,18.75 12,18.75C11.803,18.75 11.606,18.675 11.466,18.534C11.325,18.394 11.25,18.206 11.25,18V9.497C11.25,9.3 11.325,9.103 11.466,8.962C11.606,8.831 11.803,8.747 12,8.747ZM9,8.747C9.197,8.747 9.394,8.822 9.535,8.962C9.675,9.103 9.75,9.291 9.75,9.497V18C9.75,18.197 9.675,18.394 9.535,18.534C9.394,18.675 9.206,18.75 9,18.75C8.803,18.75 8.606,18.675 8.466,18.534C8.325,18.394 8.25,18.206 8.25,18V9.497C8.25,9.3 8.325,9.103 8.466,8.962C8.606,8.822 8.803,8.747 9,8.747ZM15,8.747C15.197,8.747 15.394,8.822 15.535,8.962C15.675,9.103 15.75,9.291 15.75,9.497V18C15.75,18.197 15.675,18.394 15.535,18.534C15.394,18.675 15.206,18.75 15,18.75C14.794,18.75 14.606,18.675 14.466,18.534C14.325,18.394 14.25,18.206 14.25,18V9.497C14.25,9.3 14.325,9.103 14.466,8.962C14.606,8.831 14.803,8.747 15,8.747ZM7.997,19.753C8.194,19.753 8.391,19.828 8.531,19.969C8.672,20.109 8.747,20.297 8.747,20.503V22.003C8.747,22.2 8.672,22.397 8.531,22.538C8.391,22.678 8.203,22.753 7.997,22.753C7.8,22.753 7.603,22.678 7.463,22.538C7.322,22.397 7.247,22.209 7.247,22.003V20.503C7.247,20.306 7.322,20.109 7.463,19.969C7.613,19.828 7.8,19.753 7.997,19.753ZM16.003,19.753C16.2,19.753 16.397,19.828 16.538,19.969C16.678,20.109 16.753,20.297 16.753,20.503V22.003C16.753,22.2 16.678,22.397 16.538,22.538C16.397,22.678 16.21,22.753 16.003,22.753C15.806,22.753 15.61,22.678 15.469,22.538C15.328,22.397 15.253,22.209 15.253,22.003V20.503C15.253,20.306 15.328,20.109 15.469,19.969C15.61,19.828 15.797,19.753 16.003,19.753Z" fill-rule="1" id="path_0"/>
    <path fill="#341f97" d="M18.75,8.859C18.722,8.363 18.563,7.884 18.291,7.472C18.188,7.322 18.075,7.181 17.944,7.05C17.522,6.628 16.987,6.366 16.406,6.272C16.275,6.253 16.134,6.244 16.003,6.244H7.997C7.856,6.244 7.725,6.253 7.594,6.272C7.012,6.356 6.478,6.628 6.056,7.05C5.925,7.181 5.813,7.322 5.709,7.472C5.438,7.884 5.278,8.363 5.25,8.859C5.25,8.906 5.25,8.953 5.25,9V14.522V18.497C5.25,18.544 5.25,18.591 5.25,18.638C5.278,19.134 5.438,19.612 5.709,20.025C5.813,20.175 5.925,20.316 6.056,20.447C6.478,20.869 7.012,21.131 7.594,21.225C7.725,21.244 7.866,21.253 7.997,21.253H15.994C16.134,21.253 16.266,21.244 16.397,21.225C16.978,21.141 17.513,20.869 17.934,20.447C18.066,20.316 18.178,20.175 18.281,20.025C18.553,19.612 18.712,19.134 18.741,18.638C18.741,18.591 18.741,18.544 18.741,18.497V14.522V9C18.75,8.953 18.75,8.906 18.75,8.859ZM7.997,19.753C7.303,19.753 6.75,19.191 6.75,18.506V14.531V9C6.75,8.306 7.313,7.753 7.997,7.753H15.994C16.556,7.753 17.025,8.119 17.184,8.634C17.194,8.672 17.203,8.709 17.212,8.756C17.231,8.841 17.241,8.925 17.241,9.009V14.531V18.506C17.241,19.2 16.678,19.753 15.994,19.753H7.997Z" fill-rule="1" id="path_1"/>
</svg>