<svg id="vector" xmlns="http://www.w3.org/2000/svg" width="24" height="24" viewBox="0 0 24 24">
    <path fill="#737373" d="M2.25,9.57C2.25,9.437 2.286,9.306 2.353,9.191C2.421,9.076 2.518,8.981 2.634,8.916L6.634,6.68C6.808,6.583 7.013,6.559 7.204,6.613C7.396,6.668 7.558,6.796 7.655,6.969C7.752,7.143 7.776,7.348 7.722,7.54C7.668,7.731 7.54,7.893 7.366,7.99L4.537,9.57L12.071,13.783L19.605,9.571L12.071,5.359L11.303,5.789C11.129,5.886 10.924,5.911 10.733,5.856C10.541,5.802 10.379,5.674 10.282,5.5C10.185,5.327 10.161,5.121 10.215,4.93C10.269,4.739 10.397,4.576 10.571,4.479L11.705,3.845C11.817,3.783 11.943,3.75 12.071,3.75C12.199,3.75 12.325,3.783 12.437,3.845L21.508,8.916C21.625,8.981 21.722,9.076 21.789,9.192C21.857,9.307 21.893,9.438 21.893,9.571C21.893,9.705 21.857,9.836 21.789,9.951C21.722,10.066 21.625,10.161 21.508,10.226L12.437,15.296C12.325,15.359 12.199,15.392 12.071,15.392C11.943,15.392 11.817,15.359 11.705,15.296L2.634,10.226C2.517,10.161 2.42,10.066 2.353,9.951C2.285,9.836 2.25,9.705 2.25,9.571V9.57Z" fill-rule="1" id="path_0"/>
    <path fill="#737373" d="M6,10.75C6.199,10.75 6.39,10.829 6.53,10.97C6.671,11.11 6.75,11.301 6.75,11.5V17C6.75,17.138 6.862,17.25 7,17.25H17C17.066,17.25 17.13,17.224 17.177,17.177C17.224,17.13 17.25,17.066 17.25,17V11.5C17.25,11.301 17.329,11.11 17.47,10.97C17.61,10.829 17.801,10.75 18,10.75C18.199,10.75 18.39,10.829 18.53,10.97C18.671,11.11 18.75,11.301 18.75,11.5V17C18.75,17.464 18.566,17.909 18.237,18.237C17.909,18.566 17.464,18.75 17,18.75H7C6.536,18.75 6.091,18.566 5.763,18.237C5.434,17.909 5.25,17.464 5.25,17V11.5C5.25,11.301 5.329,11.11 5.47,10.97C5.61,10.829 5.801,10.75 6,10.75ZM21,8.75C21.199,8.75 21.39,8.829 21.53,8.97C21.671,9.11 21.75,9.301 21.75,9.5V15C21.75,15.199 21.671,15.39 21.53,15.53C21.39,15.671 21.199,15.75 21,15.75C20.801,15.75 20.61,15.671 20.47,15.53C20.329,15.39 20.25,15.199 20.25,15V9.5C20.25,9.301 20.329,9.11 20.47,8.97C20.61,8.829 20.801,8.75 21,8.75Z" fill-rule="1" id="path_1"/>
</svg>