<svg id="vector" xmlns="http://www.w3.org/2000/svg" width="24" height="24" viewBox="0 0 24 24">
    <path fill="#737373" d="M9.658,20.315C9.329,19.851 9.041,19.296 8.795,18.681C8.16,17.091 7.758,14.99 7.691,12.682H3.39C3.676,16.337 6.237,19.353 9.658,20.315ZM3.39,11.318H7.691C7.758,9.01 8.16,6.907 8.795,5.318C9.041,4.703 9.329,4.149 9.658,3.685C6.237,4.647 3.676,7.663 3.39,11.318ZM20.61,12.682C20.324,16.337 17.763,19.353 14.342,20.315C14.671,19.851 14.958,19.296 15.204,18.681C15.84,17.092 16.242,14.99 16.308,12.682H20.61ZM20.61,11.318C20.324,7.663 17.764,4.647 14.343,3.685C14.671,4.149 14.959,4.704 15.204,5.318C15.84,6.907 16.242,9.01 16.308,11.318H20.61ZM22,12C22,17.523 17.523,22 12,22C6.477,22 2,17.523 2,12C2,6.477 6.477,2 12,2C17.523,2 22,6.477 22,12ZM10.062,5.824C9.501,7.225 9.122,9.15 9.056,11.318H14.944C14.878,9.15 14.498,7.225 13.938,5.824C13.629,5.05 13.276,4.468 12.92,4.091C12.565,3.717 12.254,3.591 12,3.591C11.745,3.591 11.434,3.717 11.08,4.091C10.724,4.468 10.371,5.05 10.062,5.824ZM13.938,18.174C14.498,16.774 14.878,14.85 14.944,12.682H9.056C9.122,14.85 9.502,16.774 10.062,18.175C10.371,18.95 10.724,19.531 11.08,19.908C11.434,20.282 11.745,20.409 12,20.409C12.254,20.409 12.565,20.282 12.92,19.908C13.276,19.531 13.629,18.95 13.938,18.174Z" fill-rule="1" id="path_0"/>
</svg>