<svg id="vector" xmlns="http://www.w3.org/2000/svg" width="25" height="24" viewBox="0 0 25 24">
    <path fill="#41c2bd" d="M12.5,2.25C10.572,2.25 8.687,2.822 7.083,3.893C5.48,4.965 4.23,6.487 3.492,8.269C2.754,10.05 2.561,12.011 2.937,13.902C3.314,15.793 4.242,17.531 5.606,18.894C6.969,20.258 8.707,21.187 10.598,21.563C12.489,21.939 14.45,21.746 16.231,21.008C18.013,20.27 19.535,19.02 20.607,17.417C21.678,15.813 22.25,13.928 22.25,12C22.25,9.414 21.223,6.934 19.394,5.106C17.566,3.277 15.086,2.25 12.5,2.25ZM12.5,20.25C10.868,20.25 9.273,19.766 7.917,18.86C6.56,17.953 5.502,16.665 4.878,15.157C4.254,13.65 4.09,11.991 4.409,10.391C4.727,8.79 5.513,7.32 6.666,6.166C7.82,5.013 9.29,4.227 10.891,3.909C12.491,3.59 14.15,3.754 15.657,4.378C17.165,5.002 18.453,6.06 19.36,7.417C20.266,8.773 20.75,10.368 20.75,12C20.75,14.188 19.881,16.287 18.334,17.834C16.787,19.381 14.688,20.25 12.5,20.25Z" id="path_0"/>
    <path fill="#41c2bd" d="M16.25,11.25H13.25V8.25C13.25,8.051 13.171,7.86 13.03,7.72C12.89,7.579 12.699,7.5 12.5,7.5C12.301,7.5 12.11,7.579 11.97,7.72C11.829,7.86 11.75,8.051 11.75,8.25V11.25H8.75C8.551,11.25 8.36,11.329 8.22,11.47C8.079,11.61 8,11.801 8,12C8,12.199 8.079,12.39 8.22,12.53C8.36,12.671 8.551,12.75 8.75,12.75H11.75V15.75C11.75,15.949 11.829,16.14 11.97,16.28C12.11,16.421 12.301,16.5 12.5,16.5C12.699,16.5 12.89,16.421 13.03,16.28C13.171,16.14 13.25,15.949 13.25,15.75V12.75H16.25C16.449,12.75 16.64,12.671 16.78,12.53C16.921,12.39 17,12.199 17,12C17,11.801 16.921,11.61 16.78,11.47C16.64,11.329 16.449,11.25 16.25,11.25Z" id="path_1"/>
</svg>