<svg id="vector" xmlns="http://www.w3.org/2000/svg" width="24" height="24" viewBox="0 0 24 24">
    <path fill="#41c2bd" d="M5.25,2C5.25,1.801 5.329,1.61 5.47,1.47C5.61,1.329 5.801,1.25 6,1.25H11.886C12.085,1.25 12.276,1.329 12.416,1.47C12.557,1.61 12.636,1.801 12.636,2C12.636,2.199 12.557,2.39 12.416,2.53C12.276,2.671 12.085,2.75 11.886,2.75H6.75V11C6.75,11.862 7.092,12.689 7.702,13.298C8.311,13.908 9.138,14.25 10,14.25H14C14.862,14.25 15.689,13.908 16.298,13.298C16.908,12.689 17.25,11.862 17.25,11V2.75H16C15.801,2.75 15.61,2.671 15.47,2.53C15.329,2.39 15.25,2.199 15.25,2C15.25,1.801 15.329,1.61 15.47,1.47C15.61,1.329 15.801,1.25 16,1.25H18C18.199,1.25 18.39,1.329 18.53,1.47C18.671,1.61 18.75,1.801 18.75,2V11C18.75,12.26 18.25,13.468 17.359,14.359C16.468,15.25 15.26,15.75 14,15.75H10C8.74,15.75 7.532,15.25 6.641,14.359C5.75,13.468 5.25,12.26 5.25,11V2Z" fill-rule="1" id="path_0"/>
    <path fill="#41c2bd" d="M9.25,15C9.25,14.801 9.329,14.61 9.47,14.47C9.61,14.329 9.801,14.25 10,14.25H14C14.199,14.25 14.39,14.329 14.53,14.47C14.671,14.61 14.75,14.801 14.75,15V19C14.75,19.199 14.671,19.39 14.53,19.53C14.39,19.671 14.199,19.75 14,19.75H10C9.801,19.75 9.61,19.671 9.47,19.53C9.329,19.39 9.25,19.199 9.25,19V15ZM10.75,15.75V18.25H13.25V15.75H10.75Z" fill-rule="1" id="path_1"/>
    <path fill="#41c2bd" d="M7.833,20.13C8.016,19.583 8.366,19.107 8.834,18.769C9.302,18.432 9.864,18.25 10.441,18.25H13.489C14.049,18.25 14.595,18.421 15.055,18.74C15.516,19.058 15.867,19.51 16.064,20.034L16.702,21.737C16.744,21.85 16.759,21.972 16.744,22.093C16.729,22.213 16.685,22.328 16.616,22.427C16.547,22.527 16.455,22.608 16.348,22.664C16.24,22.721 16.121,22.75 16,22.75H8C7.881,22.75 7.764,22.722 7.658,22.668C7.552,22.614 7.461,22.535 7.391,22.439C7.322,22.342 7.276,22.231 7.258,22.113C7.24,21.996 7.25,21.876 7.288,21.763L7.833,20.13ZM10.441,19.75C10.179,19.75 9.923,19.833 9.711,19.986C9.498,20.14 9.339,20.356 9.256,20.605L9.041,21.25H14.918L14.659,20.561C14.57,20.323 14.41,20.118 14.201,19.973C13.992,19.828 13.743,19.75 13.489,19.75H10.441ZM1.25,5C1.25,4.801 1.329,4.61 1.47,4.47C1.61,4.329 1.801,4.25 2,4.25H6C6.199,4.25 6.39,4.329 6.53,4.47C6.671,4.61 6.75,4.801 6.75,5V12C6.75,12.114 6.724,12.227 6.674,12.329C6.624,12.432 6.552,12.521 6.462,12.592C6.372,12.662 6.267,12.71 6.156,12.734C6.044,12.758 5.929,12.756 5.818,12.728L3.333,12.106C2.738,11.957 2.21,11.614 1.832,11.13C1.455,10.647 1.25,10.051 1.25,9.438V5ZM2.75,5.75V9.438C2.75,10.012 3.14,10.512 3.697,10.651L5.25,11.039V5.75H2.75ZM22.75,5C22.75,4.801 22.671,4.61 22.53,4.47C22.39,4.329 22.199,4.25 22,4.25H18C17.801,4.25 17.61,4.329 17.47,4.47C17.329,4.61 17.25,4.801 17.25,5V12C17.25,12.114 17.276,12.227 17.326,12.329C17.376,12.432 17.448,12.521 17.538,12.592C17.628,12.662 17.733,12.71 17.844,12.734C17.956,12.758 18.071,12.756 18.182,12.728L20.667,12.106C21.262,11.957 21.79,11.614 22.168,11.13C22.545,10.647 22.75,10.051 22.75,9.438V5ZM21.25,5.75V9.438C21.25,9.717 21.157,9.988 20.985,10.208C20.814,10.427 20.573,10.583 20.303,10.651L18.75,11.039V5.75H21.25ZM12,6.75C11.668,6.75 11.351,6.882 11.116,7.116C10.882,7.351 10.75,7.668 10.75,8C10.75,8.332 10.882,8.649 11.116,8.884C11.351,9.118 11.668,9.25 12,9.25C12.332,9.25 12.649,9.118 12.884,8.884C13.118,8.649 13.25,8.332 13.25,8C13.25,7.668 13.118,7.351 12.884,7.116C12.649,6.882 12.332,6.75 12,6.75ZM9.25,8C9.25,7.271 9.54,6.571 10.056,6.055C10.571,5.54 11.271,5.25 12,5.25C12.729,5.25 13.429,5.54 13.944,6.055C14.46,6.571 14.75,7.271 14.75,8C14.75,8.729 14.46,9.429 13.944,9.945C13.429,10.46 12.729,10.75 12,10.75C11.271,10.75 10.571,10.46 10.056,9.945C9.54,9.429 9.25,8.729 9.25,8Z" fill-rule="1" id="path_2"/>
</svg>