<svg id="vector" xmlns="http://www.w3.org/2000/svg" width="18" height="18" viewBox="0 0 18 18">
    <path fill="#41c2bd" d="M6.75,13.5C6.338,13.5 5.984,13.353 5.691,13.06C5.397,12.766 5.25,12.413 5.25,12V3C5.25,2.588 5.397,2.234 5.691,1.94C5.984,1.647 6.338,1.5 6.75,1.5H13.5C13.913,1.5 14.266,1.647 14.56,1.94C14.853,2.234 15,2.588 15,3V12C15,12.413 14.853,12.766 14.56,13.06C14.266,13.353 13.913,13.5 13.5,13.5H6.75ZM6.75,12H13.5V3H6.75V12ZM3.75,16.5C3.338,16.5 2.984,16.353 2.69,16.06C2.397,15.766 2.25,15.413 2.25,15V5.25C2.25,5.037 2.322,4.859 2.466,4.715C2.609,4.572 2.787,4.5 3,4.5C3.213,4.5 3.391,4.572 3.535,4.715C3.678,4.859 3.75,5.037 3.75,5.25V15H11.25C11.462,15 11.641,15.072 11.785,15.216C11.928,15.359 12,15.538 12,15.75C12,15.962 11.928,16.14 11.785,16.284C11.641,16.428 11.462,16.5 11.25,16.5H3.75ZM6.75,3V12V3Z" id="path_0"/>
</svg>