<svg id="vector" xmlns="http://www.w3.org/2000/svg" width="24" height="24" viewBox="0 0 24 24">
    <path fill="#41c2bd" d="M19.916,2.266C19.561,1.911 18.985,1.911 18.63,2.266L11.357,9.539C11.257,9.639 11.182,9.76 11.138,9.894L10.229,12.622C10.12,12.948 10.205,13.309 10.448,13.552C10.692,13.795 11.052,13.88 11.378,13.771L14.106,12.863C14.24,12.818 14.361,12.743 14.461,12.643L21.734,5.37C22.089,5.015 22.089,4.439 21.734,4.084L19.916,2.266ZM12.528,11.472L12.795,10.673L19.273,4.195L19.805,4.727L13.327,11.205L12.528,11.472ZM3.818,6.545C3.818,6.043 4.225,5.636 4.727,5.636H13.364C13.866,5.636 14.273,5.229 14.273,4.727C14.273,4.225 13.866,3.818 13.364,3.818H4.727C3.221,3.818 2,5.039 2,6.545V19.273C2,20.779 3.221,22 4.727,22H17.455C18.961,22 20.182,20.779 20.182,19.273V10.636C20.182,10.134 19.775,9.727 19.273,9.727C18.771,9.727 18.364,10.134 18.364,10.636V19.273C18.364,19.775 17.957,20.182 17.455,20.182H4.727C4.225,20.182 3.818,19.775 3.818,19.273V6.545Z" fill-rule="1" id="path_0"/>
</svg>