<svg id="vector" xmlns="http://www.w3.org/2000/svg" width="22" height="22" viewBox="0 0 22 22">
    <defs>
        <clipPath id="clip_path_0">
            <path d="M0,0h22v22h-22z"/>
        </clipPath>
    </defs>
    <g id="g_0">
        <path fill="#f0f0f0" d="M11,22C17.075,22 22,17.075 22,11C22,4.925 17.075,0 11,0C4.925,0 0,4.925 0,11C0,17.075 4.925,22 11,22Z" clip-path="url(#clip_path_0)"/>
        <path fill="#d80027" d="M21.531,11.017C21.531,8.761 20.872,6.559 19.643,4.706C18.413,2.854 16.672,1.44 14.653,0.655V21.379C16.672,20.593 18.413,19.18 19.643,17.327C20.872,15.475 21.531,13.273 21.531,11.017Z"/>
        <path fill="#0052b4" d="M0.438,11.017C0.438,13.273 1.097,15.475 2.327,17.327C3.556,19.18 5.298,20.593 7.316,21.379V0.655C5.298,1.44 3.556,2.854 2.327,4.706C1.097,6.559 0.438,8.761 0.438,11.017Z"/>
    </g>
</svg>