<svg id="vector" xmlns="http://www.w3.org/2000/svg" width="24" height="24" viewBox="0 0 24 24">
    <path fill="#3dcccc" d="M12,12.75C12.413,12.75 12.75,13.087 12.75,13.5V18C12.75,18.413 12.413,18.75 12,18.75C11.587,18.75 11.25,18.413 11.25,18V13.5C11.25,13.087 11.587,12.75 12,12.75Z" fill-rule="1" id="path_0"/>
    <path fill="#3dcccc" d="M20.662,1.65C20.531,1.406 20.278,1.256 19.997,1.256H4.003C3.722,1.256 3.469,1.406 3.337,1.65C3.206,1.894 3.225,2.194 3.375,2.419L11.372,14.419C11.512,14.625 11.747,14.756 12,14.756C12.253,14.756 12.487,14.634 12.628,14.419L16.294,8.916C16.303,8.897 16.322,8.878 16.331,8.859L18.956,4.922L20.625,2.419C20.775,2.184 20.794,1.894 20.662,1.65ZM12,12.647L5.4,2.747H18.6L17.709,4.078L15.112,7.997C15.084,8.025 15.065,8.053 15.047,8.081L12,12.647Z" fill-rule="1" id="path_1"/>
    <path fill="#3dcccc" d="M12.534,17.466C12.243,17.175 11.765,17.175 11.475,17.466L7.472,21.469C7.256,21.684 7.19,22.003 7.312,22.284C7.425,22.566 7.706,22.744 8.006,22.744H16.003C16.303,22.744 16.584,22.566 16.697,22.284C16.809,22.003 16.753,21.684 16.537,21.469L12.534,17.466ZM9.806,21.253L12,19.059L14.193,21.253H9.806Z" fill-rule="1" id="path_2"/>
</svg>