<svg id="vector" xmlns="http://www.w3.org/2000/svg" width="24" height="24" viewBox="0 0 24 24">
    <path fill="#41c2bd" d="M22.343,11.542C22.148,11.288 17.445,5.25 12,5.25C11.699,5.252 11.399,5.272 11.1,5.31C10.901,5.336 10.721,5.44 10.598,5.599C10.476,5.758 10.422,5.959 10.448,6.158C10.474,6.356 10.577,6.537 10.736,6.659C10.895,6.782 11.096,6.836 11.295,6.81C11.529,6.775 11.764,6.755 12,6.75C15.9,6.75 19.59,10.627 20.768,12C20.212,12.628 19.621,13.224 18.998,13.785C18.923,13.851 18.863,13.931 18.819,14.02C18.776,14.109 18.751,14.206 18.745,14.305C18.74,14.404 18.754,14.503 18.787,14.597C18.82,14.69 18.871,14.776 18.938,14.85C19.009,14.927 19.096,14.989 19.193,15.03C19.29,15.071 19.395,15.092 19.5,15.09C19.685,15.092 19.864,15.025 20.003,14.903C20.838,14.153 21.617,13.343 22.335,12.48C22.443,12.348 22.502,12.183 22.503,12.013C22.505,11.842 22.448,11.676 22.343,11.542ZM10.41,9.353L6.533,5.468C6.463,5.398 6.38,5.342 6.288,5.304C6.197,5.266 6.099,5.247 6,5.247C5.901,5.247 5.803,5.266 5.712,5.304C5.621,5.342 5.538,5.398 5.468,5.468C5.398,5.537 5.342,5.62 5.304,5.712C5.267,5.803 5.247,5.901 5.247,6C5.247,6.099 5.267,6.197 5.304,6.288C5.342,6.38 5.398,6.463 5.468,6.533L6.27,7.335C4.562,8.529 3.014,9.938 1.665,11.528C1.557,11.661 1.498,11.828 1.498,12C1.498,12.172 1.557,12.339 1.665,12.472C1.875,12.75 6.825,18.75 12,18.75C13.555,18.703 15.074,18.267 16.418,17.483L17.468,18.532C17.537,18.603 17.62,18.659 17.712,18.697C17.803,18.735 17.901,18.754 18,18.754C18.099,18.754 18.197,18.735 18.288,18.697C18.38,18.659 18.463,18.603 18.533,18.532C18.603,18.463 18.659,18.38 18.697,18.288C18.735,18.197 18.754,18.099 18.754,18C18.754,17.901 18.735,17.803 18.697,17.712C18.659,17.62 18.603,17.537 18.533,17.468L10.41,9.353ZM9.975,11.033L12.975,14.033C12.555,14.233 12.083,14.299 11.625,14.22C11.166,14.141 10.743,13.922 10.415,13.593C10.085,13.264 9.867,12.841 9.788,12.383C9.709,11.924 9.775,11.452 9.975,11.033ZM12,17.25C8.31,17.25 4.5,13.373 3.248,12C4.412,10.7 5.723,9.54 7.155,8.543C7.217,8.495 7.273,8.44 7.32,8.378L8.873,9.93C8.466,10.544 8.25,11.264 8.25,12C8.25,12.995 8.645,13.948 9.348,14.652C10.052,15.355 11.006,15.75 12,15.75C12.736,15.75 13.456,15.534 14.07,15.127L15.3,16.365C14.282,16.908 13.153,17.21 12,17.25Z" id="path_0"/>
</svg>