<svg id="vector" xmlns="http://www.w3.org/2000/svg" width="24" height="24" viewBox="0 0 24 24">
    <path fill="#41c2bd" d="M11.614,1.357C11.73,1.287 11.864,1.25 12,1.25C12.136,1.25 12.269,1.287 12.386,1.357L14.242,2.471C14.616,2.695 15.017,2.872 15.435,2.997L19.715,4.282C19.885,4.333 20.031,4.442 20.128,4.59C20.225,4.739 20.267,4.917 20.245,5.093L18.97,15.276C18.885,15.953 18.656,16.604 18.297,17.184C17.939,17.765 17.459,18.261 16.892,18.64L12.415,21.624C12.292,21.706 12.147,21.75 11.999,21.75C11.851,21.75 11.706,21.706 11.583,21.624L9.088,19.96C9.005,19.906 8.933,19.836 8.877,19.754C8.821,19.672 8.782,19.58 8.762,19.483C8.742,19.385 8.742,19.285 8.761,19.188C8.78,19.09 8.818,18.998 8.873,18.915C8.928,18.833 8.999,18.762 9.081,18.707C9.164,18.652 9.256,18.614 9.354,18.595C9.451,18.576 9.551,18.577 9.648,18.597C9.746,18.617 9.838,18.656 9.92,18.712L12,20.099L16.06,17.392C16.448,17.133 16.777,16.793 17.022,16.396C17.268,15.999 17.425,15.553 17.483,15.09L18.677,5.536L15.004,4.434C14.466,4.273 13.951,4.045 13.47,3.757L12,2.875L10.53,3.757C10.049,4.045 9.533,4.273 8.996,4.434L5.323,5.536L6.517,15.09C6.575,15.553 6.731,15.993 6.969,16.382C7.021,16.466 7.056,16.559 7.071,16.657C7.087,16.755 7.083,16.854 7.061,16.951C7.038,17.047 6.996,17.138 6.938,17.218C6.88,17.297 6.806,17.365 6.722,17.417C6.638,17.468 6.544,17.503 6.446,17.518C6.349,17.533 6.249,17.529 6.153,17.505C6.057,17.482 5.966,17.44 5.887,17.381C5.807,17.322 5.74,17.249 5.689,17.164C5.337,16.589 5.112,15.945 5.029,15.276L3.756,5.094C3.734,4.918 3.775,4.74 3.872,4.592C3.969,4.443 4.115,4.334 4.285,4.283L8.565,2.998C8.983,2.873 9.383,2.696 9.758,2.472L11.614,1.358V1.357Z" fill-rule="1" id="path_0"/>
</svg>