<svg id="vector" xmlns="http://www.w3.org/2000/svg" width="24" height="24" viewBox="0 0 24 24">
    <path fill="#ff7314" d="M12,24C18.627,24 24,18.627 24,12C24,5.373 18.627,0 12,0C5.373,0 0,5.373 0,12C0,18.627 5.373,24 12,24ZM17.908,16.366C16.235,16.366 15.579,15.108 15.579,11.988C15.579,8.869 16.235,7.624 17.908,7.624C19.059,7.624 19.876,8.24 19.876,10.248C19.876,10.489 19.702,10.569 19.541,10.569H18.631C18.444,10.569 18.377,10.422 18.39,10.168C18.444,9.311 18.309,8.963 17.908,8.963C17.332,8.963 17.306,9.605 17.306,11.988C17.306,14.385 17.332,15.027 17.908,15.027C18.309,15.027 18.444,14.653 18.39,13.756C18.377,13.501 18.444,13.354 18.631,13.354H19.541C19.715,13.354 19.876,13.448 19.876,13.675C19.876,15.724 19.059,16.366 17.908,16.366ZM5.826,16.286H4.648C4.501,16.286 4.394,16.179 4.394,16.031V7.959C4.394,7.812 4.501,7.704 4.648,7.704H5.826C5.974,7.704 6.081,7.812 6.081,7.959V16.031C6.081,16.179 5.974,16.286 5.826,16.286ZM11.265,9.07H10.208V16.031C10.208,16.179 10.1,16.286 9.953,16.286H8.775C8.628,16.286 8.521,16.179 8.521,16.031V9.07H7.463C7.316,9.07 7.208,8.963 7.208,8.816V7.959C7.208,7.812 7.316,7.704 7.463,7.704H11.265C11.412,7.704 11.519,7.812 11.519,7.959V8.816C11.519,8.963 11.412,9.07 11.265,9.07ZM12.898,16.286H14.076C14.224,16.286 14.331,16.179 14.331,16.031V7.959C14.331,7.812 14.224,7.704 14.076,7.704H12.898C12.751,7.704 12.644,7.812 12.644,7.959V16.031C12.644,16.179 12.751,16.286 12.898,16.286Z" fill-rule="1" id="path_0"/>
</svg>