<svg id="vector" xmlns="http://www.w3.org/2000/svg" width="24" height="24" viewBox="0 0 24 24">
    <path fill="#41c2bd" d="M15.75,12C15.75,11.801 15.671,11.61 15.53,11.47C15.39,11.329 15.199,11.25 15,11.25H3C2.801,11.25 2.61,11.329 2.47,11.47C2.329,11.61 2.25,11.801 2.25,12C2.25,12.199 2.329,12.39 2.47,12.53C2.61,12.671 2.801,12.75 3,12.75H15C15.199,12.75 15.39,12.671 15.53,12.53C15.671,12.39 15.75,12.199 15.75,12Z" fill-rule="1" id="path_0"/>
    <path fill="#41c2bd" d="M7.03,7.97C6.89,7.83 6.699,7.751 6.5,7.751C6.302,7.751 6.111,7.83 5.97,7.97L2.47,11.47C2.33,11.611 2.251,11.801 2.251,12C2.251,12.199 2.33,12.389 2.47,12.53L5.97,16.03C6.112,16.163 6.301,16.235 6.495,16.231C6.689,16.228 6.875,16.149 7.012,16.012C7.149,15.874 7.228,15.689 7.231,15.495C7.235,15.3 7.163,15.112 7.03,14.97L4.06,12L7.03,9.03C7.171,8.889 7.25,8.699 7.25,8.5C7.25,8.301 7.171,8.111 7.03,7.97ZM8.25,4C8.25,3.801 8.329,3.61 8.47,3.47C8.611,3.329 8.801,3.25 9,3.25H21C21.199,3.25 21.39,3.329 21.531,3.47C21.671,3.61 21.75,3.801 21.75,4V14C21.75,14.199 21.671,14.39 21.531,14.53C21.39,14.671 21.199,14.75 21,14.75C20.801,14.75 20.611,14.671 20.47,14.53C20.329,14.39 20.25,14.199 20.25,14V4.75H9.75V7C9.75,7.199 9.671,7.39 9.531,7.53C9.39,7.671 9.199,7.75 9,7.75C8.801,7.75 8.611,7.671 8.47,7.53C8.329,7.39 8.25,7.199 8.25,7V4ZM9,16.25C9.199,16.25 9.39,16.329 9.531,16.47C9.671,16.61 9.75,16.801 9.75,17V19.25H20.25V18C20.25,17.801 20.329,17.61 20.47,17.47C20.611,17.329 20.801,17.25 21,17.25C21.199,17.25 21.39,17.329 21.531,17.47C21.671,17.61 21.75,17.801 21.75,18V20C21.75,20.199 21.671,20.39 21.531,20.53C21.39,20.671 21.199,20.75 21,20.75H9C8.801,20.75 8.611,20.671 8.47,20.53C8.329,20.39 8.25,20.199 8.25,20V17C8.25,16.801 8.329,16.61 8.47,16.47C8.611,16.329 8.801,16.25 9,16.25Z" fill-rule="1" id="path_1"/>
</svg>