<svg id="vector" xmlns="http://www.w3.org/2000/svg" width="24" height="24" viewBox="0 0 24 24">
    <path fill="#10ac84" d="M5.878,5.25C6.872,5.25 7.856,5.409 8.803,5.728L11.25,6.544V18.966L9.281,18.309C8.184,17.944 7.041,17.756 5.878,17.756H3.75V5.25H5.878ZM9.281,4.303C8.184,3.938 7.031,3.75 5.878,3.75H3C2.803,3.75 2.606,3.825 2.466,3.966C2.325,4.106 2.25,4.303 2.25,4.5V18.497C2.25,18.909 2.588,19.247 3,19.247H5.878C6.872,19.247 7.856,19.406 8.803,19.725L11.766,20.709C11.878,20.747 12,20.756 12.113,20.737C12.234,20.719 12.337,20.672 12.441,20.606C12.534,20.541 12.619,20.447 12.666,20.344C12.722,20.241 12.75,20.119 12.75,20.006V6C12.75,5.841 12.703,5.691 12.609,5.559C12.516,5.428 12.384,5.334 12.234,5.287L9.281,4.303Z" fill-rule="1" id="path_0"/>
    <path fill="#10ac84" d="M21.535,3.966C21.394,3.825 21.206,3.75 21,3.75H18.122C16.969,3.75 15.816,3.938 14.719,4.303L11.756,5.287C11.606,5.334 11.475,5.438 11.381,5.559C11.288,5.691 11.241,5.841 11.241,6V19.997C11.241,20.119 11.269,20.231 11.325,20.334C11.381,20.438 11.456,20.531 11.55,20.597C11.644,20.663 11.756,20.709 11.878,20.728C12,20.747 12.113,20.737 12.225,20.7L15.188,19.716C16.135,19.397 17.119,19.237 18.113,19.237H21C21.197,19.237 21.394,19.163 21.535,19.022C21.675,18.881 21.75,18.694 21.75,18.487V16.987V12.984V10.369V4.5C21.75,4.303 21.675,4.106 21.535,3.966ZM20.25,13.003V17.006V17.756H18.122C16.969,17.756 15.816,17.944 14.719,18.309L12.75,18.966V6.544L15.197,5.728C16.144,5.409 17.128,5.25 18.122,5.25H20.25V10.387V13.003Z" id="path_1"/>
</svg>