<svg id="vector" xmlns="http://www.w3.org/2000/svg" width="24" height="24" viewBox="0 0 24 24">
    <path fill="#4db3ed" d="M9.253,14.859C9.253,14.663 9.328,14.466 9.469,14.325C9.609,14.184 9.797,14.109 10.003,14.109H14.006C14.203,14.109 14.4,14.184 14.541,14.325C14.681,14.466 14.756,14.653 14.756,14.859C14.756,15.056 14.681,15.253 14.541,15.394C14.4,15.534 14.213,15.609 14.006,15.609H10.003C9.806,15.609 9.609,15.534 9.469,15.394C9.328,15.244 9.253,15.056 9.253,14.859ZM2.044,4.406C2.128,4.341 2.231,4.294 2.334,4.266C2.438,4.237 2.55,4.237 2.653,4.266L5.156,4.8C5.353,4.837 5.522,4.959 5.625,5.128C5.738,5.297 5.775,5.494 5.728,5.691C5.691,5.887 5.569,6.056 5.4,6.159C5.231,6.272 5.034,6.309 4.838,6.262L3.197,5.916L2.738,14.897C2.728,15.094 2.634,15.281 2.484,15.413C2.334,15.544 2.147,15.609 1.95,15.6C1.753,15.591 1.566,15.506 1.434,15.356C1.303,15.206 1.228,15.019 1.238,14.822L1.734,4.969C1.744,4.856 1.772,4.753 1.819,4.659C1.884,4.556 1.959,4.472 2.044,4.406ZM21.956,4.406C21.872,4.341 21.769,4.294 21.666,4.266C21.563,4.237 21.45,4.237 21.347,4.266L18.844,4.8C18.647,4.837 18.478,4.959 18.375,5.128C18.272,5.297 18.225,5.494 18.272,5.691C18.319,5.887 18.431,6.056 18.6,6.159C18.769,6.272 18.966,6.309 19.163,6.262L20.803,5.916L21.263,14.897C21.272,15.094 21.366,15.281 21.516,15.413C21.666,15.544 21.853,15.609 22.05,15.6C22.247,15.591 22.434,15.506 22.566,15.356C22.697,15.206 22.772,15.019 22.763,14.822L22.266,4.969C22.256,4.856 22.228,4.753 22.181,4.659C22.116,4.556 22.041,4.472 21.956,4.406Z" fill-rule="1" id="path_0"/>
    <path fill="#4db3ed" d="M18,11.466C16.228,11.466 14.747,12.956 14.747,14.859C14.747,16.763 16.228,18.253 18,18.253C19.772,18.253 21.253,16.763 21.253,14.859C21.253,12.956 19.772,11.466 18,11.466ZM13.247,14.859C13.247,12.178 15.347,9.966 18,9.966C20.653,9.966 22.753,12.178 22.753,14.859C22.753,17.541 20.653,19.753 18,19.753C15.347,19.753 13.247,17.531 13.247,14.859Z" fill-rule="1" id="path_1"/>
    <path fill="#4db3ed" d="M10.744,14.597C10.744,14.559 10.735,14.531 10.735,14.494C10.735,14.438 10.725,14.391 10.725,14.334C10.725,14.297 10.716,14.259 10.706,14.212C10.697,14.166 10.697,14.119 10.688,14.072C10.678,14.034 10.678,13.997 10.669,13.959C10.66,13.913 10.65,13.866 10.641,13.809C10.641,13.791 10.631,13.781 10.631,13.762C10.631,13.753 10.631,13.744 10.622,13.734C10.135,11.578 8.269,9.947 6,9.947C4.51,9.947 3.197,10.65 2.325,11.738C1.65,12.581 1.247,13.669 1.247,14.841C1.247,16.013 1.65,17.091 2.325,17.944C3.188,19.031 4.51,19.734 6,19.734C6.169,19.734 6.328,19.725 6.488,19.706C6.731,19.678 6.966,19.641 7.191,19.575C7.65,19.453 8.081,19.266 8.466,19.013C8.794,18.806 9.094,18.563 9.356,18.281C10.21,17.391 10.735,16.172 10.735,14.831C10.753,14.766 10.744,14.681 10.744,14.597ZM9.169,14.1C9.178,14.156 9.188,14.203 9.197,14.259C9.197,14.269 9.197,14.278 9.206,14.288C9.216,14.334 9.225,14.391 9.225,14.438C9.225,14.447 9.225,14.456 9.225,14.475C9.235,14.522 9.235,14.578 9.235,14.625C9.235,14.634 9.235,14.653 9.235,14.663C9.235,14.728 9.244,14.784 9.244,14.85C9.244,16.753 7.763,18.244 5.991,18.244C5.606,18.244 5.231,18.169 4.885,18.038C4.688,17.962 4.5,17.869 4.322,17.756C3.385,17.166 2.747,16.097 2.747,14.85C2.747,13.603 3.385,12.534 4.322,11.944C4.5,11.831 4.688,11.738 4.885,11.663C5.231,11.531 5.606,11.456 5.991,11.456C7.528,11.466 8.841,12.581 9.169,14.1Z" fill-rule="1" id="path_2"/>
</svg>