<svg id="vector" xmlns="http://www.w3.org/2000/svg" width="24" height="24" viewBox="0 0 24 24">
    <path fill="#0052b4" d="M22.5,13.003C22.5,12.806 22.425,12.609 22.284,12.469C22.144,12.328 21.956,12.253 21.75,12.253H18.253C17.522,12.253 16.828,12.544 16.313,13.059C15.797,13.575 15.506,14.278 15.506,15C15.506,15.722 15.797,16.425 16.313,16.941C16.828,17.456 17.531,17.747 18.253,17.747H21.75C21.947,17.747 22.144,17.672 22.284,17.531C22.425,17.391 22.5,17.203 22.5,16.997V13.003ZM21,13.753V16.256H18.253C17.925,16.256 17.606,16.125 17.372,15.891C17.138,15.656 17.006,15.337 17.006,15.009C17.006,14.681 17.138,14.363 17.372,14.128C17.606,13.894 17.925,13.762 18.253,13.762H21V13.753ZM12,9.75C12.197,9.75 12.394,9.675 12.534,9.534C12.675,9.394 12.75,9.206 12.75,9V3C12.75,2.803 12.675,2.606 12.534,2.466C12.394,2.325 12.206,2.25 12,2.25H6C5.803,2.25 5.606,2.325 5.466,2.466C5.325,2.606 5.25,2.803 5.25,3V9C5.25,9.413 5.588,9.75 6,9.75H12ZM11.25,8.25H6.75V3.75H11.25V8.25Z" fill-rule="1" id="path_0"/>
    <path fill="#0052b4" d="M18,9.75C18.197,9.75 18.394,9.675 18.534,9.534C18.675,9.394 18.75,9.206 18.75,9V4.003C18.75,3.806 18.675,3.609 18.534,3.469C18.394,3.328 18.206,3.253 18,3.253H12C11.803,3.253 11.606,3.328 11.466,3.469C11.325,3.609 11.25,3.797 11.25,4.003V9C11.25,9.412 11.587,9.75 12,9.75H18ZM17.25,8.25H12.75V4.753H17.25V8.25Z" fill-rule="1" id="path_1"/>
    <path fill="#0052b4" d="M19.716,13.519C19.856,13.659 20.044,13.734 20.25,13.734C20.456,13.734 20.644,13.659 20.784,13.519C20.925,13.378 21,13.191 21,12.984V9.994C21,9.028 20.212,8.241 19.247,8.241H3.253C2.287,8.25 1.5,9.037 1.5,10.003V20.006C1.5,20.475 1.688,20.916 2.016,21.244C2.344,21.572 2.784,21.759 3.253,21.759H4.144H4.5H8.503H8.906H19.247C19.716,21.759 20.156,21.572 20.484,21.244C20.813,20.916 21,20.475 21,20.006V17.025C21,16.828 20.925,16.631 20.784,16.491C20.644,16.35 20.456,16.275 20.25,16.275C20.044,16.275 19.856,16.35 19.716,16.491C19.575,16.631 19.5,16.819 19.5,17.025V20.006C19.5,20.072 19.472,20.138 19.425,20.184C19.378,20.231 19.313,20.259 19.247,20.259H8.906H8.503H4.5H4.134H3.244C3.103,20.259 2.991,20.147 2.991,20.006V10.003C2.991,9.937 3.019,9.872 3.066,9.825C3.112,9.778 3.178,9.75 3.244,9.75H19.247C19.313,9.75 19.378,9.778 19.425,9.825C19.472,9.872 19.5,9.937 19.5,10.003V12.994C19.5,13.181 19.575,13.378 19.716,13.519Z" id="path_2"/>
</svg>