<svg id="vector" xmlns="http://www.w3.org/2000/svg" width="24" height="24" viewBox="0 0 24 24">
    <path fill="#ff9f43" d="M3.75,12.497C3.75,12.3 3.825,12.103 3.966,11.962C4.106,11.822 4.294,11.747 4.5,11.747H9.497C9.694,11.747 9.891,11.822 10.031,11.962C10.172,12.103 10.247,12.291 10.247,12.497C10.247,12.694 10.172,12.891 10.031,13.031C9.891,13.172 9.703,13.247 9.497,13.247H4.5C4.303,13.247 4.106,13.172 3.966,13.031C3.825,12.891 3.75,12.703 3.75,12.497Z" fill-rule="1" id="path_0"/>
    <path fill="#ff9f43" d="M7.003,15.75C6.806,15.75 6.609,15.675 6.469,15.534C6.328,15.394 6.253,15.206 6.253,15V10.003C6.253,9.806 6.328,9.609 6.469,9.469C6.609,9.328 6.797,9.253 7.003,9.253C7.2,9.253 7.397,9.328 7.537,9.469C7.678,9.609 7.753,9.797 7.753,10.003V15C7.753,15.197 7.678,15.394 7.537,15.534C7.387,15.675 7.2,15.75 7.003,15.75ZM12,2.747C12.197,2.747 12.394,2.822 12.534,2.963C12.675,3.103 12.75,3.291 12.75,3.497V6.497C12.75,6.694 12.675,6.891 12.534,7.031C12.394,7.172 12.206,7.247 12,7.247C11.803,7.247 11.606,7.172 11.465,7.031C11.325,6.891 11.25,6.703 11.25,6.497V3.497C11.25,3.3 11.325,3.103 11.465,2.963C11.606,2.831 11.803,2.747 12,2.747ZM14.747,13.997C14.747,13.8 14.822,13.603 14.962,13.462C15.103,13.322 15.29,13.247 15.497,13.247H17.494C17.69,13.247 17.887,13.322 18.028,13.462C18.169,13.603 18.244,13.791 18.244,13.997C18.244,14.194 18.169,14.391 18.028,14.531C17.887,14.672 17.7,14.747 17.494,14.747H15.497C15.3,14.747 15.103,14.672 14.962,14.531C14.831,14.391 14.747,14.203 14.747,13.997ZM16.753,10.997C16.753,10.8 16.828,10.603 16.969,10.462C17.109,10.322 17.297,10.247 17.503,10.247H19.5C19.697,10.247 19.894,10.322 20.034,10.462C20.175,10.603 20.25,10.791 20.25,10.997C20.25,11.194 20.175,11.391 20.034,11.531C19.894,11.672 19.706,11.747 19.5,11.747H17.503C17.306,11.747 17.109,11.672 16.969,11.531C16.828,11.391 16.753,11.203 16.753,10.997Z" fill-rule="1" id="path_1"/>
    <path fill="#ff9f43" d="M21.356,7.144C20.466,6.253 19.256,5.756 18,5.756H6C4.744,5.756 3.534,6.253 2.644,7.144C1.753,8.034 1.256,9.244 1.256,10.5V17.503C1.256,18.497 1.65,19.453 2.353,20.156C3.056,20.859 4.013,21.253 5.006,21.253H5.344C5.981,21.253 6.609,21.094 7.163,20.784C7.716,20.475 8.184,20.034 8.522,19.491L9.553,17.841C9.666,17.663 9.825,17.513 10.003,17.409C10.191,17.306 10.397,17.25 10.613,17.25H13.003C13.2,17.25 13.388,17.297 13.566,17.381C13.744,17.466 13.894,17.597 14.006,17.747L15.506,19.744C15.853,20.212 16.313,20.587 16.828,20.85C17.353,21.112 17.925,21.244 18.506,21.244H19.003C19.997,21.244 20.953,20.85 21.656,20.147C22.36,19.444 22.753,18.487 22.753,17.494V17.344V16.997V12.994V12.253V10.5C22.753,9.244 22.247,8.034 21.356,7.144ZM21.253,13.003V17.006V17.353V17.503C21.253,18.103 21.019,18.675 20.597,19.097C20.175,19.519 19.603,19.753 19.003,19.753H18.506C18.16,19.753 17.813,19.669 17.503,19.519C17.194,19.359 16.922,19.134 16.706,18.853L15.206,16.856C14.691,16.163 13.875,15.759 13.003,15.759H10.613C10.144,15.759 9.684,15.881 9.281,16.106C8.869,16.331 8.531,16.659 8.278,17.053L7.247,18.703C6.834,19.359 6.113,19.763 5.334,19.763H4.997C4.397,19.763 3.825,19.528 3.403,19.106C2.981,18.684 2.747,18.112 2.747,17.513V10.5C2.747,9.637 3.094,8.812 3.703,8.203C4.313,7.594 5.138,7.247 6,7.247H18C18.863,7.247 19.688,7.594 20.297,8.203C20.906,8.812 21.253,9.637 21.253,10.5V12.262V13.003Z" id="path_2"/>
</svg>