<svg id="vector" xmlns="http://www.w3.org/2000/svg" width="24" height="24" viewBox="0 0 24 24">
    <path fill="#fc6300" d="M18.253,1.997C18.253,1.8 18.178,1.603 18.038,1.463C17.897,1.322 17.709,1.247 17.503,1.247H16.5C15.375,1.247 14.288,1.697 13.491,2.494C12.694,3.291 12.244,4.369 12.244,5.503H13.744C13.744,4.772 14.034,4.078 14.55,3.563C15.066,3.047 15.769,2.756 16.491,2.756H16.744V9C16.744,9.863 16.397,10.688 15.788,11.297C15.178,11.906 14.353,12.253 13.491,12.253V13.753C14.747,13.753 15.956,13.256 16.847,12.366C17.737,11.475 18.234,10.266 18.234,9.009V1.997H18.253ZM12,12.253C12.197,12.253 12.394,12.328 12.534,12.469C12.675,12.609 12.75,12.797 12.75,13.003V22.003C12.75,22.2 12.675,22.397 12.534,22.538C12.394,22.678 12.206,22.753 12,22.753C11.803,22.753 11.606,22.678 11.466,22.538C11.325,22.397 11.25,22.209 11.25,22.003V13.003C11.25,12.806 11.325,12.609 11.466,12.469C11.606,12.328 11.803,12.253 12,12.253Z" fill-rule="1" id="path_0"/>
    <path fill="#fc6300" d="M18.75,15.497C18.75,15.3 18.675,15.103 18.534,14.962C18.394,14.822 18.206,14.747 18,14.747H15C14.006,14.747 13.05,15.141 12.347,15.844C11.644,16.547 11.25,17.503 11.25,18.497V20.494C11.25,20.906 11.587,21.244 12,21.244H15C15.994,21.244 16.95,20.85 17.653,20.147C18.356,19.444 18.75,18.487 18.75,17.494V15.497ZM17.25,16.247V17.494C17.25,18.094 17.016,18.666 16.594,19.087C16.172,19.509 15.6,19.744 15,19.744H12.75V18.497C12.75,17.897 12.984,17.325 13.406,16.903C13.828,16.481 14.4,16.247 15,16.247H17.25Z" fill-rule="1" id="path_1"/>
    <path fill="#fc6300" d="M12.272,3.225C11.006,1.959 9.29,1.247 7.5,1.247H5.503C5.306,1.247 5.109,1.322 4.969,1.463C4.828,1.603 4.753,1.791 4.753,1.997V7.997C4.753,9.197 5.128,10.359 5.822,11.334C7.022,13.688 10.509,13.753 10.509,13.753H13.509C13.706,13.753 13.903,13.678 14.044,13.538C14.184,13.397 14.259,13.209 14.259,13.003V7.997C14.25,6.206 13.537,4.491 12.272,3.225ZM12.75,12.253H10.5C8.325,12.253 7.115,10.575 7.04,10.472C7.04,10.472 7.04,10.472 7.04,10.462C6.544,9.769 6.253,8.916 6.253,7.997V2.747H7.5C10.397,2.747 12.75,5.1 12.75,7.997V12.253Z" fill-rule="1" id="path_2"/>
</svg>