<svg id="vector" xmlns="http://www.w3.org/2000/svg" width="24" height="24" viewBox="0 0 24 24">
    <path fill="#0400d2" d="M7.388,6.694C6.197,7.284 5.747,7.969 5.747,8.503C5.747,9.038 6.197,9.713 7.388,10.303C8.531,10.875 10.163,11.25 12,11.25C13.838,11.25 15.469,10.875 16.613,10.303C17.803,9.713 18.253,9.028 18.253,8.503C18.253,7.969 17.803,7.294 16.613,6.703C15.469,6.122 13.838,5.747 12,5.747C10.163,5.747 8.531,6.122 7.388,6.694ZM6.713,5.353C8.1,4.659 9.975,4.247 12,4.247C14.025,4.247 15.891,4.659 17.288,5.353C18.638,6.028 19.753,7.097 19.753,8.503C19.753,9.909 18.638,10.978 17.288,11.653C15.9,12.347 14.025,12.759 12,12.759C9.975,12.759 8.11,12.347 6.713,11.653C5.363,10.978 4.247,9.909 4.247,8.503C4.247,7.097 5.372,6.028 6.713,5.353Z" fill-rule="1" id="path_0"/>
    <path fill="#0400d2" d="M8.466,13.969C8.606,13.828 8.794,13.753 9,13.753C9.197,13.753 9.394,13.828 9.535,13.969L10.313,14.747H13.688L14.466,13.969C14.531,13.894 14.616,13.837 14.71,13.791C14.803,13.753 14.897,13.725 15,13.725C15.103,13.725 15.197,13.744 15.291,13.781C15.385,13.819 15.469,13.875 15.544,13.95C15.619,14.025 15.675,14.109 15.713,14.203C15.75,14.297 15.769,14.4 15.769,14.494C15.769,14.587 15.741,14.691 15.703,14.784C15.666,14.878 15.6,14.962 15.525,15.028L15.056,15.497L15.525,15.966C15.6,16.031 15.656,16.116 15.703,16.209C15.741,16.303 15.769,16.397 15.769,16.5C15.769,16.603 15.75,16.697 15.713,16.791C15.675,16.884 15.619,16.969 15.544,17.044C15.469,17.119 15.385,17.175 15.291,17.212C15.197,17.25 15.094,17.269 15,17.269C14.906,17.269 14.803,17.241 14.71,17.203C14.616,17.166 14.531,17.1 14.466,17.025L13.688,16.247H10.313L9.535,17.025C9.394,17.156 9.206,17.231 9.01,17.222C8.813,17.222 8.635,17.138 8.494,17.006C8.353,16.866 8.278,16.688 8.278,16.491C8.278,16.294 8.344,16.106 8.475,15.966L8.944,15.497L8.475,15.028C8.335,14.887 8.26,14.7 8.26,14.494C8.25,14.297 8.325,14.109 8.466,13.969Z" fill-rule="1" id="path_1"/>
    <path fill="#0400d2" d="M21.722,15.853C21.722,15.844 21.722,15.844 21.722,15.834C21.731,15.788 21.731,15.741 21.741,15.694C21.741,15.684 21.741,15.675 21.741,15.656C21.741,15.6 21.75,15.553 21.75,15.497C21.75,15.431 21.741,15.356 21.722,15.291L20.719,11.794L19.716,8.297C19.678,8.175 19.622,8.072 19.538,7.978C19.491,7.922 19.425,7.884 19.359,7.847C19.331,7.828 19.294,7.819 19.256,7.8C19.172,7.772 19.087,7.753 19.003,7.753C18.928,7.753 18.853,7.762 18.788,7.781C18.731,7.8 18.675,7.819 18.619,7.856C18.544,7.903 18.478,7.95 18.422,8.016C18.394,8.053 18.366,8.091 18.337,8.137C18.291,8.222 18.263,8.316 18.244,8.419C18.234,8.512 18.244,8.616 18.272,8.709L20.241,15.591C20.212,15.825 20.072,16.116 19.753,16.416C19.688,16.481 19.612,16.538 19.528,16.603C19.519,16.603 19.519,16.612 19.519,16.612C19.219,16.837 18.825,17.063 18.291,17.278C17.494,17.606 16.472,17.869 15.262,18.038C15.234,18.038 15.206,18.047 15.178,18.047C15.056,18.066 14.944,18.075 14.822,18.094C14.794,18.094 14.766,18.103 14.728,18.103C14.625,18.112 14.522,18.122 14.409,18.141C14.372,18.141 14.344,18.15 14.306,18.15C14.194,18.159 14.081,18.169 13.959,18.178C13.941,18.178 13.913,18.178 13.894,18.188C13.753,18.197 13.613,18.206 13.462,18.216C13.444,18.216 13.425,18.216 13.406,18.216C13.284,18.225 13.153,18.225 13.031,18.234C12.984,18.234 12.947,18.234 12.9,18.234C12.788,18.234 12.684,18.244 12.572,18.244C12.525,18.244 12.488,18.244 12.441,18.244C12.291,18.244 12.141,18.244 11.981,18.244C11.822,18.244 11.672,18.244 11.522,18.244C11.475,18.244 11.438,18.244 11.391,18.244C11.278,18.244 11.175,18.234 11.063,18.234C11.016,18.234 10.978,18.234 10.931,18.234C10.809,18.225 10.678,18.225 10.556,18.216C10.538,18.216 10.519,18.216 10.5,18.216C10.35,18.206 10.209,18.197 10.069,18.188C10.05,18.188 10.022,18.188 10.003,18.178C9.891,18.169 9.769,18.159 9.656,18.15C9.619,18.15 9.591,18.141 9.553,18.141C9.45,18.131 9.337,18.122 9.234,18.103C9.206,18.103 9.178,18.094 9.141,18.094C9.019,18.075 8.897,18.066 8.784,18.047C8.756,18.047 8.728,18.038 8.7,18.038C7.491,17.869 6.469,17.606 5.672,17.278C5.137,17.063 4.734,16.837 4.444,16.612C4.434,16.612 4.434,16.603 4.434,16.603C4.35,16.538 4.275,16.481 4.209,16.416C3.891,16.116 3.75,15.834 3.722,15.591L5.691,8.709C5.719,8.616 5.728,8.512 5.719,8.419C5.709,8.325 5.681,8.231 5.625,8.137C5.606,8.1 5.578,8.072 5.559,8.034C5.494,7.95 5.409,7.884 5.316,7.837C5.269,7.819 5.222,7.8 5.175,7.781C5.1,7.762 5.025,7.753 4.959,7.753C4.866,7.753 4.762,7.772 4.678,7.819C4.659,7.828 4.631,7.837 4.613,7.847C4.547,7.884 4.491,7.931 4.434,7.978C4.35,8.062 4.284,8.175 4.256,8.297L3.281,11.794L2.278,15.291C2.259,15.356 2.25,15.431 2.25,15.497C2.25,15.553 2.25,15.6 2.259,15.656C2.259,15.666 2.259,15.675 2.259,15.694C2.259,15.741 2.269,15.788 2.278,15.834C2.278,15.844 2.278,15.844 2.278,15.853C2.362,16.453 2.672,16.978 3.131,17.428C3.15,17.447 3.159,17.456 3.178,17.475C3.188,17.484 3.206,17.503 3.216,17.513C3.319,17.616 3.431,17.709 3.553,17.803C3.572,17.813 3.591,17.831 3.609,17.841C4.05,18.169 4.575,18.45 5.147,18.675C5.916,18.984 6.834,19.237 7.875,19.425H7.884C7.912,19.434 7.95,19.434 7.978,19.444C8.081,19.462 8.184,19.481 8.288,19.491C8.363,19.5 8.428,19.509 8.503,19.519C8.578,19.528 8.653,19.538 8.728,19.547C8.794,19.556 8.869,19.566 8.934,19.575C8.962,19.575 8.991,19.584 9.019,19.584C9.038,19.584 9.056,19.584 9.066,19.594C9.178,19.603 9.281,19.622 9.394,19.631C9.469,19.641 9.544,19.641 9.609,19.65C9.684,19.659 9.75,19.659 9.825,19.669C9.891,19.678 9.956,19.678 10.022,19.688C10.678,19.734 11.334,19.763 11.991,19.753C12.647,19.753 13.303,19.734 13.959,19.688C14.025,19.678 14.091,19.678 14.156,19.669C14.231,19.659 14.297,19.659 14.372,19.65C14.447,19.641 14.522,19.641 14.587,19.631C14.7,19.622 14.803,19.612 14.916,19.594C14.934,19.594 14.953,19.594 14.962,19.584C14.991,19.584 15.019,19.575 15.047,19.575C15.113,19.566 15.188,19.556 15.253,19.547C15.328,19.538 15.403,19.528 15.478,19.519C15.553,19.509 15.628,19.5 15.694,19.491C15.797,19.472 15.9,19.462 16.003,19.444C16.031,19.434 16.069,19.434 16.097,19.425H16.106C17.147,19.247 18.056,18.994 18.834,18.675C19.397,18.45 19.922,18.169 20.372,17.841C20.391,17.831 20.409,17.813 20.428,17.803C20.55,17.709 20.663,17.616 20.766,17.513C20.775,17.503 20.794,17.484 20.803,17.475C20.822,17.456 20.831,17.447 20.85,17.428C21.328,16.978 21.638,16.453 21.722,15.853Z" id="path_2"/>
</svg>