<svg id="vector" xmlns="http://www.w3.org/2000/svg" width="24" height="24" viewBox="0 0 24 24">
    <path fill="#41c2bd" d="M12,2.75C10.74,2.75 9.532,3.25 8.641,4.141C7.75,5.032 7.25,6.24 7.25,7.5C7.25,8.76 7.75,9.968 8.641,10.859C9.532,11.75 10.74,12.25 12,12.25C13.26,12.25 14.468,11.75 15.359,10.859C16.25,9.968 16.75,8.76 16.75,7.5C16.75,6.24 16.25,5.032 15.359,4.141C14.468,3.25 13.26,2.75 12,2.75ZM5.75,7.5C5.75,5.842 6.408,4.253 7.581,3.081C8.753,1.908 10.342,1.25 12,1.25C13.658,1.25 15.247,1.908 16.419,3.081C17.591,4.253 18.25,5.842 18.25,7.5C18.25,9.158 17.591,10.747 16.419,11.919C15.247,13.092 13.658,13.75 12,13.75C10.342,13.75 8.753,13.092 7.581,11.919C6.408,10.747 5.75,9.158 5.75,7.5Z" fill-rule="1" id="path_0"/>
    <path fill="#41c2bd" d="M12,13.75C7.535,13.75 3.88,16.557 2.97,20.2C2.853,20.671 3.242,21.25 4,21.25H12C12.199,21.25 12.39,21.329 12.53,21.47C12.671,21.61 12.75,21.801 12.75,22C12.75,22.199 12.671,22.39 12.53,22.53C12.39,22.671 12.199,22.75 12,22.75H4C2.549,22.75 1.098,21.51 1.515,19.838C2.611,15.446 6.932,12.25 12,12.25C17.068,12.25 21.389,15.446 22.485,19.838C22.902,21.51 21.45,22.75 20,22.75H17C16.801,22.75 16.61,22.671 16.47,22.53C16.329,22.39 16.25,22.199 16.25,22C16.25,21.801 16.329,21.61 16.47,21.47C16.61,21.329 16.801,21.25 17,21.25H20C20.758,21.25 21.147,20.671 21.03,20.2C20.12,16.557 16.465,13.75 12,13.75Z" fill-rule="1" id="path_1"/>
</svg>