<svg id="vector" xmlns="http://www.w3.org/2000/svg" width="24" height="24" viewBox="0 0 24 24">
    <path fill="#41c2bd" d="M19.5,5.25H4.5C3.903,5.25 3.331,5.487 2.909,5.909C2.487,6.331 2.25,6.903 2.25,7.5V16.5C2.25,17.097 2.487,17.669 2.909,18.091C3.331,18.513 3.903,18.75 4.5,18.75H19.5C20.097,18.75 20.669,18.513 21.091,18.091C21.513,17.669 21.75,17.097 21.75,16.5V7.5C21.75,6.903 21.513,6.331 21.091,5.909C20.669,5.487 20.097,5.25 19.5,5.25ZM4.5,6.75H19.5C19.699,6.75 19.89,6.829 20.03,6.97C20.171,7.11 20.25,7.301 20.25,7.5V8.25H3.75V7.5C3.75,7.301 3.829,7.11 3.97,6.97C4.11,6.829 4.301,6.75 4.5,6.75ZM19.5,17.25H4.5C4.301,17.25 4.11,17.171 3.97,17.03C3.829,16.89 3.75,16.699 3.75,16.5V9.75H20.25V16.5C20.25,16.699 20.171,16.89 20.03,17.03C19.89,17.171 19.699,17.25 19.5,17.25Z" id="path_0"/>
</svg>