<svg id="vector" xmlns="http://www.w3.org/2000/svg" width="24" height="24" viewBox="0 0 24 24">
    <path fill="#00d2d3" d="M4.65,4.331C4.79,4.191 4.978,4.106 5.175,4.106C5.372,4.106 5.569,4.181 5.709,4.322C6.731,5.325 7.547,6.516 8.1,7.838C8.653,9.159 8.934,10.575 8.934,12C8.934,13.434 8.653,14.85 8.1,16.163C7.547,17.484 6.731,18.675 5.709,19.678C5.569,19.809 5.372,19.884 5.175,19.884C4.978,19.884 4.79,19.8 4.65,19.659C4.509,19.519 4.434,19.331 4.434,19.134C4.434,18.938 4.509,18.75 4.65,18.609C5.531,17.747 6.234,16.725 6.703,15.591C7.181,14.456 7.425,13.238 7.425,12.009C7.425,10.781 7.181,9.563 6.703,8.428C6.225,7.294 5.531,6.263 4.65,5.409C4.575,5.344 4.519,5.259 4.481,5.166C4.444,5.072 4.425,4.978 4.425,4.875C4.425,4.772 4.444,4.678 4.481,4.584C4.528,4.481 4.584,4.406 4.65,4.331ZM19.35,19.669C19.209,19.809 19.022,19.894 18.825,19.894C18.628,19.894 18.431,19.819 18.29,19.678C17.269,18.675 16.453,17.484 15.9,16.163C15.347,14.841 15.065,13.425 15.065,12C15.065,10.566 15.347,9.15 15.9,7.838C16.453,6.516 17.269,5.325 18.29,4.322C18.431,4.181 18.628,4.116 18.825,4.116C19.022,4.116 19.209,4.2 19.35,4.341C19.49,4.481 19.565,4.669 19.565,4.866C19.565,5.063 19.49,5.25 19.35,5.391C18.469,6.253 17.765,7.275 17.297,8.409C16.819,9.544 16.575,10.762 16.575,11.991C16.575,13.219 16.819,14.438 17.297,15.572C17.775,16.706 18.469,17.737 19.35,18.591C19.631,18.9 19.631,19.369 19.35,19.669ZM12,1.247C12.197,1.247 12.394,1.322 12.534,1.463C12.675,1.603 12.75,1.791 12.75,1.997V21.994C12.75,22.191 12.675,22.388 12.534,22.528C12.394,22.669 12.206,22.744 12,22.744C11.803,22.744 11.606,22.669 11.465,22.528C11.325,22.388 11.25,22.2 11.25,21.994V1.997C11.25,1.8 11.325,1.603 11.465,1.463C11.606,1.322 11.803,1.247 12,1.247Z" fill-rule="1" id="path_0"/>
    <path fill="#00d2d3" d="M1.247,12C1.247,11.803 1.322,11.606 1.463,11.466C1.603,11.325 1.791,11.25 1.997,11.25H21.994C22.191,11.25 22.388,11.325 22.528,11.466C22.669,11.606 22.744,11.794 22.744,12C22.744,12.197 22.669,12.394 22.528,12.534C22.388,12.675 22.2,12.75 21.994,12.75H1.997C1.8,12.75 1.603,12.675 1.463,12.534C1.331,12.394 1.247,12.197 1.247,12Z" fill-rule="1" id="path_1"/>
    <path fill="#00d2d3" d="M12.563,22.734C12.572,22.734 12.572,22.734 12.581,22.734C15.628,22.575 18.347,21.141 20.203,18.956C20.213,18.947 20.213,18.947 20.222,18.938C20.278,18.862 20.344,18.797 20.4,18.722C20.4,18.712 20.41,18.712 20.41,18.703C20.597,18.469 20.775,18.216 20.953,17.962C21.01,17.878 21.056,17.803 21.113,17.719C21.122,17.709 21.122,17.7 21.131,17.691C21.178,17.616 21.225,17.541 21.272,17.466C21.281,17.456 21.281,17.438 21.291,17.428C21.338,17.344 21.385,17.269 21.431,17.184L21.441,17.175C21.544,16.997 21.628,16.809 21.722,16.631C21.722,16.631 21.722,16.631 21.722,16.622C21.76,16.538 21.806,16.444 21.844,16.359C21.853,16.341 21.853,16.331 21.863,16.313C21.9,16.237 21.928,16.163 21.956,16.087C21.966,16.069 21.975,16.05 21.975,16.031C22.003,15.956 22.041,15.881 22.069,15.797C22.078,15.778 22.078,15.769 22.088,15.75C22.163,15.563 22.228,15.366 22.285,15.178V15.169C22.313,15.075 22.341,14.991 22.36,14.897C22.369,14.878 22.369,14.85 22.378,14.831C22.397,14.756 22.416,14.691 22.434,14.616C22.444,14.587 22.444,14.559 22.453,14.531C22.472,14.456 22.491,14.391 22.5,14.316C22.51,14.288 22.51,14.259 22.519,14.231C22.538,14.156 22.547,14.072 22.566,13.997C22.566,13.978 22.575,13.959 22.575,13.941C22.594,13.837 22.613,13.744 22.622,13.641C22.622,13.631 22.622,13.622 22.622,13.613C22.631,13.519 22.65,13.434 22.66,13.341C22.66,13.313 22.669,13.275 22.669,13.247C22.678,13.181 22.688,13.106 22.688,13.041C22.688,13.003 22.697,12.966 22.697,12.928C22.706,12.863 22.706,12.797 22.716,12.731C22.716,12.694 22.725,12.656 22.725,12.619C22.725,12.553 22.735,12.478 22.735,12.413C22.735,12.384 22.735,12.347 22.735,12.319C22.735,12.216 22.735,12.113 22.735,12.009C22.735,11.269 22.66,10.547 22.519,9.844C21.525,4.931 17.194,1.247 12,1.247C6.806,1.247 2.475,4.931 1.472,9.834C1.331,10.538 1.256,11.259 1.256,12C1.256,12.103 1.256,12.206 1.256,12.309C1.256,12.337 1.256,12.375 1.256,12.403C1.256,12.469 1.266,12.544 1.266,12.609C1.266,12.647 1.266,12.684 1.275,12.722C1.275,12.788 1.284,12.853 1.294,12.919C1.294,12.956 1.303,12.994 1.303,13.031C1.313,13.097 1.313,13.172 1.322,13.238C1.322,13.266 1.331,13.303 1.331,13.331C1.341,13.425 1.35,13.509 1.369,13.603C1.369,13.613 1.369,13.622 1.369,13.631C1.388,13.734 1.397,13.828 1.416,13.931C1.416,13.95 1.425,13.969 1.425,13.988C1.444,14.063 1.453,14.147 1.472,14.222C1.481,14.25 1.481,14.278 1.491,14.306C1.509,14.381 1.519,14.447 1.538,14.522C1.547,14.55 1.547,14.578 1.556,14.606C1.575,14.681 1.594,14.756 1.613,14.822C1.622,14.841 1.622,14.869 1.631,14.887C1.659,14.981 1.678,15.066 1.706,15.159V15.169C1.763,15.366 1.828,15.553 1.903,15.741C1.913,15.759 1.913,15.769 1.922,15.788C1.95,15.863 1.978,15.938 2.016,16.022C2.025,16.041 2.034,16.059 2.034,16.078C2.063,16.153 2.1,16.228 2.128,16.303C2.138,16.322 2.138,16.331 2.147,16.35C2.184,16.434 2.222,16.528 2.269,16.612C2.269,16.612 2.269,16.612 2.269,16.622C2.353,16.809 2.447,16.987 2.55,17.166L2.559,17.175C2.606,17.259 2.653,17.334 2.7,17.419C2.709,17.428 2.709,17.438 2.719,17.456C2.766,17.531 2.813,17.606 2.859,17.681C2.869,17.691 2.869,17.7 2.878,17.709C2.925,17.794 2.981,17.869 3.038,17.953C3.206,18.206 3.384,18.45 3.581,18.694C3.581,18.703 3.591,18.703 3.591,18.712C3.647,18.788 3.713,18.853 3.769,18.928C3.778,18.938 3.778,18.938 3.788,18.947C5.644,21.131 8.353,22.566 11.41,22.725C11.419,22.725 11.419,22.725 11.428,22.725C11.513,22.725 11.588,22.734 11.672,22.734C11.681,22.734 11.7,22.734 11.71,22.734C11.803,22.734 11.897,22.734 11.991,22.734C12.085,22.734 12.178,22.734 12.272,22.734C12.281,22.734 12.3,22.734 12.309,22.734C12.403,22.744 12.478,22.744 12.563,22.734ZM12,21.253C11.972,21.253 11.944,21.253 11.916,21.253C11.297,21.244 10.669,21.178 10.059,21.047C8.794,20.775 7.603,20.241 6.553,19.472C5.513,18.712 4.631,17.737 3.994,16.612C3.347,15.488 2.944,14.25 2.813,12.956C2.681,11.672 2.822,10.369 3.216,9.141C3.619,7.903 4.275,6.769 5.138,5.813C6,4.847 7.059,4.078 8.241,3.553C9.047,3.197 9.9,2.953 10.781,2.831C10.791,2.831 10.791,2.831 10.8,2.831C10.875,2.822 10.941,2.813 11.016,2.803C11.044,2.803 11.072,2.794 11.109,2.794C11.203,2.784 11.297,2.775 11.391,2.775C11.447,2.775 11.513,2.766 11.569,2.766C11.616,2.766 11.653,2.766 11.7,2.756C11.803,2.756 11.906,2.747 12,2.747C12.103,2.747 12.206,2.747 12.3,2.756C12.347,2.756 12.384,2.756 12.431,2.766C12.488,2.766 12.553,2.775 12.609,2.775C12.703,2.784 12.797,2.784 12.891,2.794C12.919,2.794 12.947,2.803 12.984,2.803C13.059,2.813 13.125,2.822 13.2,2.831C13.21,2.831 13.21,2.831 13.219,2.831C14.091,2.944 14.944,3.188 15.759,3.553C16.941,4.078 18,4.847 18.863,5.813C19.725,6.778 20.381,7.903 20.785,9.141C21.188,10.369 21.328,11.672 21.188,12.956C21.056,14.241 20.653,15.488 20.006,16.612C19.36,17.737 18.488,18.712 17.447,19.472C16.406,20.231 15.206,20.775 13.941,21.047C13.331,21.178 12.703,21.244 12.085,21.253C12.056,21.253 12.028,21.253 12,21.253Z" fill-rule="1" id="path_2"/>
</svg>