<svg id="vector" xmlns="http://www.w3.org/2000/svg" width="240" height="240" viewBox="0 0 240 240">
    <path fill="#40b8b8" d="M120,120m-50,0a50,50 0,1 1,100 0a50,50 0,1 1,-100 0" id="path_0"/>
    <path fill="#41c2bd" d="M102.96,146.96C108.04,146.96 112.16,142.8 112.16,137.67C112.16,132.53 108.04,128.37 102.96,128.37C97.87,128.37 93.75,132.53 93.75,137.67C93.75,142.8 97.87,146.96 102.96,146.96Z" id="path_1"/>
    <path fill="#41c2bd" d="M111.66,93.71C116.02,91.2 121.74,92.71 124.23,97.1L144.76,133.02C147.24,137.41 145.75,143.19 141.4,145.7C137.04,148.21 131.32,146.71 128.83,142.31L108.31,106.4C105.82,102 107.31,96.23 111.66,93.71Z" id="path_2"/>
</svg>