<svg id="vector" xmlns="http://www.w3.org/2000/svg" width="22" height="22" viewBox="0 0 22 22">
    <defs>
        <clipPath id="clip_path_0">
            <path d="M0,0h22v22h-22z"/>
        </clipPath>
    </defs>
    <g id="g_0">
        <path fill="#f0f0f0" d="M11,21.934C17.075,21.934 22,17.031 22,10.983C22,4.935 17.075,0.032 11,0.032C4.925,0.032 0,4.935 0,10.983C0,17.031 4.925,21.934 11,21.934Z" clip-path="url(#clip_path_0)"/>
        <path fill="#0052b4" d="M2.618,4.302C1.777,5.442 1.16,6.742 0.801,8.13H6.288L2.618,4.302Z"/>
        <path fill="#0052b4" d="M21.168,8.13C20.809,6.742 20.191,5.442 19.351,4.302L15.681,8.13H21.168Z"/>
        <path fill="#0052b4" d="M0.801,13.869C1.16,15.257 1.777,16.558 2.618,17.697L6.288,13.869H0.801Z"/>
        <path fill="#0052b4" d="M17.405,2.274C16.313,1.397 15.066,0.753 13.735,0.379V6.101L17.405,2.274Z"/>
        <path fill="#0052b4" d="M4.563,19.725C5.655,20.602 6.902,21.246 8.233,21.62V15.898L4.563,19.725Z"/>
        <path fill="#0052b4" d="M8.233,0.379C6.902,0.753 5.655,1.397 4.563,2.274L8.233,6.101V0.379Z"/>
        <path fill="#0052b4" d="M13.735,21.62C15.066,21.246 16.313,20.602 17.405,19.725L13.735,15.898V21.62Z"/>
        <path fill="#0052b4" d="M15.681,13.869L19.351,17.697C20.191,16.558 20.809,15.257 21.168,13.869H15.681Z"/>
        <path fill="#d80027" d="M21.438,9.565H12.361V0.093C11.448,-0.031 10.523,-0.031 9.61,0.093V9.565H0.527C0.408,10.517 0.408,11.482 0.527,12.434H9.609V21.902C10.522,22.026 11.447,22.026 12.36,21.902V12.435H21.438C21.557,11.483 21.557,10.518 21.438,9.566V9.565Z"/>
        <path fill="#d80027" d="M13.735,13.869L18.441,18.777C18.658,18.551 18.865,18.316 19.061,18.071L15.035,13.869H13.735Z"/>
        <path fill="#d80027" d="M8.232,13.869L3.526,18.777C3.743,19.003 3.969,19.219 4.203,19.424L8.232,15.225V13.869Z"/>
        <path fill="#d80027" d="M8.233,8.131L3.527,3.222C3.314,3.448 3.107,3.683 2.907,3.928L6.936,8.13H8.236L8.233,8.131Z"/>
        <path fill="#d80027" d="M13.735,8.13L18.441,3.222C18.225,2.999 18,2.784 17.764,2.575L13.735,6.777V8.133V8.13Z"/>
    </g>
</svg>