<svg id="vector" xmlns="http://www.w3.org/2000/svg" width="32" height="32" viewBox="0 0 48 48">
    <g transform="translation(0, 24)" id="icon_null">
        <g transform="scale(0, 7.5)" id="check">
            <path fill="#000000ff" d="M 7.0,-9.0 c 0.0,0.0 -14.0,0.0 -14.0,0.0 c -1.1044921875,0.0 -2.0,0.8955078125 -2.0,2.0 c 0.0,0.0 0.0,14.0 0.0,14.0 c 0.0,1.1044921875 0.8955078125,2.0 2.0,2.0 c 0.0,0.0 14.0,0.0 14.0,0.0 c 1.1044921875,0.0 2.0,-0.8955078125 2.0,-2.0 c 0.0,0.0 0.0,-14.0 0.0,-14.0 c 0.0,-1.1044921875 -0.8955078125,-2.0 -2.0,-2.0 c 0.0,0.0 0.0,0.0 0.0,0.0 Z M -2.0,5.00001525879 c 0.0,0.0 -5.0,-5.00001525879 -5.0,-5.00001525879 c 0.0,0.0 1.41409301758,-1.41409301758 1.41409301758,-1.41409301758 c 0.0,0.0 3.58590698242,3.58601379395 3.58590698242,3.58601379395 c 0.0,0.0 7.58590698242,-7.58601379395 7.58590698242,-7.58601379395 c 0.0,0.0 1.41409301758,1.41409301758 1.41409301758,1.41409301758 c 0.0,0.0 -9.0,9.00001525879 -9.0,9.00001525879 Z"/>
        </g>
        <g transform="scale(0, 7.5)" id="box_dilate">
            <path fill="#000000ff" d="M 0.0,-1.0 l 0.0,0.0 c 0.5522847498,0.0 1.0,0.4477152502 1.0,1.0 l 0.0,0.0 c 0.0,0.5522847498 -0.4477152502,1.0 -1.0,1.0 l 0.0,0.0 c -0.5522847498,0.0 -1.0,-0.4477152502 -1.0,-1.0 l 0.0,0.0 c 0.0,-0.5522847498 0.4477152502,-1.0 1.0,-1.0 Z M 7.0,-9.0 c 0.0,0.0 -14.0,0.0 -14.0,0.0 c -1.1044921875,0.0 -2.0,0.8955078125 -2.0,2.0 c 0.0,0.0 0.0,14.0 0.0,14.0 c 0.0,1.1044921875 0.8955078125,2.0 2.0,2.0 c 0.0,0.0 14.0,0.0 14.0,0.0 c 1.1044921875,0.0 2.0,-0.8955078125 2.0,-2.0 c 0.0,0.0 0.0,-14.0 0.0,-14.0 c 0.0,-1.1044921875 -0.8955078125,-2.0 -2.0,-2.0 c 0.0,0.0 0.0,0.0 0.0,0.0 Z" fill-opacity="0"/>
        </g>
    </g>
</svg>