<svg id="vector" xmlns="http://www.w3.org/2000/svg" width="32" height="32" viewBox="0 0 48 48">
    <g transform="translation(0, 24)" id="icon_null">
        <g transform="scale(0, 7.5)" id="check">
            <path fill="#000000ff" d="M 7.0,-9.0 c 0.0,0.0 -14.0,0.0 -14.0,0.0 c -1.1044921875,0.0 -2.0,0.8955078125 -2.0,2.0 c 0.0,0.0 0.0,14.0 0.0,14.0 c 0.0,1.1044921875 0.8955078125,2.0 2.0,2.0 c 0.0,0.0 14.0,0.0 14.0,0.0 c 1.1044921875,0.0 2.0,-0.8955078125 2.0,-2.0 c 0.0,0.0 0.0,-14.0 0.0,-14.0 c 0.0,-1.1044921875 -0.8955078125,-2.0 -2.0,-2.0 c 0.0,0.0 0.0,0.0 0.0,0.0 Z M -2.0,5.00001525879 c 0.0,0.0 -1.4234161377,-1.40159606934 -1.4234161377,-1.40159606934 c 0.0,0.0 1.41409301758,-1.41409301758 1.41409301758,-1.41409301758 c 0.0,0.0 0.00932312011719,-0.0124053955078 0.00932312011719,-0.0124053955078 c 0.0,0.0 0.0234069824219,-0.0235137939453 0.0234069824219,-0.0235137939453 c 0.0,0.0 1.41409301758,1.41409301758 1.41409301758,1.41409301758 c 0.0,0.0 -1.4375,1.43751525879 -1.4375,1.43751525879 Z" fill-opacity="0"/>
        </g>
        <g transform="scale(0, 7.5)" id="box_dilate">
            <path fill="#000000ff" d="M -7.0,-7.0 l 14.0,0.0 c 0.0,0.0 0.0,0.0 0.0,0.0 l 0.0,14.0 c 0.0,0.0 0.0,0.0 0.0,0.0 l -14.0,0.0 c 0.0,0.0 0.0,0.0 0.0,0.0 l 0.0,-14.0 c 0.0,0.0 0.0,0.0 0.0,0.0 Z M 7.0,-9.0 c 0.0,0.0 -14.0,0.0 -14.0,0.0 c -1.1044921875,0.0 -2.0,0.8955078125 -2.0,2.0 c 0.0,0.0 0.0,14.0 0.0,14.0 c 0.0,1.1044921875 0.8955078125,2.0 2.0,2.0 c 0.0,0.0 14.0,0.0 14.0,0.0 c 1.1044921875,0.0 2.0,-0.8955078125 2.0,-2.0 c 0.0,0.0 0.0,-14.0 0.0,-14.0 c 0.0,-1.1044921875 -0.8955078125,-2.0 -2.0,-2.0 c 0.0,0.0 0.0,0.0 0.0,0.0 Z"/>
        </g>
    </g>
</svg>