<svg id="vector" xmlns="http://www.w3.org/2000/svg" width="24" height="24" viewBox="0 0 24 24">
    <path fill="#171532" d="M0,12.07C0.038,18.647 5.383,24.003 12.003,24V24C18.621,24.003 24.049,18.622 24,11.909C23.952,5.278 18.533,-0.073 11.864,0.001C5.252,0.074 -0.037,5.48 0,12.07ZM19.294,16.257C19.296,16.069 19.271,15.872 19.227,15.677C19.161,15.378 19.03,15.106 18.879,14.841C17.926,13.174 16.975,11.505 16.024,9.837L15.182,8.36L14.663,7.451L14.663,7.45C14.176,6.596 13.69,5.743 13.202,4.89C12.658,3.937 11.594,3.432 10.519,3.622C9.352,3.829 8.488,4.801 8.4,6.009C8.36,6.555 8.488,7.062 8.76,7.538C9.969,9.655 11.177,11.773 12.384,13.891L12.385,13.892L13.492,15.833C13.597,16.017 13.702,16.201 13.806,16.386L13.806,16.386L13.807,16.386C14.036,16.789 14.265,17.192 14.497,17.594C15.117,18.665 16.393,19.142 17.558,18.743C18.594,18.387 19.293,17.391 19.294,16.257ZM9.816,16.272C9.814,15.987 9.771,15.708 9.681,15.438C9.162,13.877 7.352,13.186 5.944,14.013C4.699,14.744 4.284,16.373 5.027,17.618C5.609,18.593 6.728,19.069 7.808,18.817C8.99,18.542 9.816,17.492 9.816,16.272V16.272Z" fill-rule="1" id="path_0"/>
</svg>