<svg id="vector" xmlns="http://www.w3.org/2000/svg" width="24" height="24" viewBox="0 0 24 24">
    <path fill="#8395a7" d="M3.253,7.003C3.253,6.272 3.544,5.578 4.059,5.062C4.575,4.547 5.278,4.256 6,4.256H18C18.731,4.256 19.425,4.547 19.94,5.062C20.456,5.578 20.747,6.281 20.747,7.003V11.006C20.747,11.203 20.672,11.4 20.531,11.541C20.39,11.681 20.203,11.756 19.997,11.756H4.003C3.806,11.756 3.609,11.681 3.469,11.541C3.328,11.4 3.253,11.212 3.253,11.006V7.003ZM6,5.747C5.306,5.747 4.753,6.309 4.753,6.994V10.247H19.256V7.003C19.256,6.309 18.694,5.756 18.009,5.756H6V5.747Z" fill-rule="1" id="path_0"/>
    <path fill="#8395a7" d="M5.747,9C5.747,8.034 6.535,7.247 7.5,7.247H9.497C10.463,7.247 11.25,8.034 11.25,9V10.997C11.25,11.194 11.175,11.391 11.035,11.531C10.894,11.672 10.706,11.747 10.5,11.747H6.497C6.3,11.747 6.103,11.672 5.963,11.531C5.822,11.391 5.747,11.203 5.747,10.997V9ZM7.5,8.747C7.435,8.747 7.369,8.775 7.322,8.822C7.275,8.869 7.247,8.934 7.247,9V10.247H9.75V9C9.75,8.934 9.722,8.869 9.675,8.822C9.628,8.775 9.563,8.747 9.497,8.747H7.5ZM12.75,9C12.75,8.034 13.538,7.247 14.503,7.247H16.5C17.466,7.247 18.253,8.034 18.253,9V10.997C18.253,11.194 18.178,11.391 18.038,11.531C17.897,11.672 17.71,11.747 17.503,11.747H13.5C13.303,11.747 13.106,11.672 12.966,11.531C12.825,11.391 12.75,11.203 12.75,10.997V9ZM14.503,8.747C14.438,8.747 14.372,8.775 14.325,8.822C14.278,8.869 14.25,8.934 14.25,9V10.247H16.753V9C16.753,8.934 16.725,8.869 16.678,8.822C16.631,8.775 16.566,8.747 16.5,8.747H14.503ZM1.997,15.253C2.194,15.253 2.391,15.328 2.531,15.469C2.672,15.609 2.747,15.797 2.747,16.003V19.003C2.747,19.2 2.672,19.397 2.531,19.538C2.391,19.678 2.203,19.753 1.997,19.753C1.791,19.753 1.603,19.678 1.463,19.538C1.322,19.397 1.247,19.209 1.247,19.003V16.003C1.247,15.806 1.322,15.609 1.463,15.469C1.613,15.328 1.8,15.253 1.997,15.253ZM22.003,15.253C22.2,15.253 22.397,15.328 22.538,15.469C22.678,15.609 22.753,15.797 22.753,16.003V19.003C22.753,19.2 22.678,19.397 22.538,19.538C22.397,19.678 22.21,19.753 22.003,19.753C21.806,19.753 21.61,19.678 21.469,19.538C21.328,19.397 21.253,19.209 21.253,19.003V16.003C21.253,15.806 21.328,15.609 21.469,15.469C21.61,15.328 21.797,15.253 22.003,15.253Z" fill-rule="1" id="path_1"/>
    <path fill="#8395a7" d="M21.947,11.053C21.431,10.538 20.728,10.247 20.006,10.247H4.003C3.272,10.247 2.578,10.538 2.063,11.053C1.547,11.569 1.256,12.272 1.256,12.994V15.994C1.256,16.191 1.331,16.388 1.472,16.528C1.613,16.669 1.8,16.744 2.006,16.744H8.953H10.003H14.006H14.897H22.003C22.2,16.744 22.397,16.669 22.538,16.528C22.678,16.388 22.753,16.2 22.753,15.994V12.994C22.753,12.272 22.463,11.569 21.947,11.053ZM21.253,15.253H14.897H14.006H10.003H8.944H2.747V13.003C2.747,12.309 3.309,11.756 3.994,11.756H19.997C20.691,11.756 21.244,12.319 21.244,13.003V15.253H21.253Z" id="path_2"/>
</svg>