<svg id="vector" xmlns="http://www.w3.org/2000/svg" width="24" height="24" viewBox="0 0 24 24">
    <path fill="#a3a3a3" d="M4.5,4.5V9.5H9.5V4.5H4.5ZM4,3C3.448,3 3,3.448 3,4V10C3,10.552 3.448,11 4,11H10C10.552,11 11,10.552 11,10V4C11,3.448 10.552,3 10,3H4Z" fill-rule="1" id="path_0"/>
    <path fill="#a3a3a3" d="M14.5,4.5V9.5H19.5V4.5H14.5ZM14,3C13.448,3 13,3.448 13,4V10C13,10.552 13.448,11 14,11H20C20.552,11 21,10.552 21,10V4C21,3.448 20.552,3 20,3H14Z" fill-rule="1" id="path_1"/>
    <path fill="#a3a3a3" d="M4.5,14.5V19.5H9.5V14.5H4.5ZM4,13C3.448,13 3,13.448 3,14V20C3,20.552 3.448,21 4,21H10C10.552,21 11,20.552 11,20V14C11,13.448 10.552,13 10,13H4Z" fill-rule="1" id="path_2"/>
    <path fill="#a3a3a3" d="M14.5,14.5V19.5H19.5V14.5H14.5ZM14,13C13.448,13 13,13.448 13,14V20C13,20.552 13.448,21 14,21H20C20.552,21 21,20.552 21,20V14C21,13.448 20.552,13 20,13H14Z" fill-rule="1" id="path_3"/>
</svg>