<svg id="vector" xmlns="http://www.w3.org/2000/svg" width="24" height="24" viewBox="0 0 24 24">
    <path fill="#a3a3a3" d="M21.795,8.25C21.792,8.173 21.777,8.097 21.75,8.025V6C21.75,5.403 21.513,4.831 21.091,4.409C20.669,3.987 20.097,3.75 19.5,3.75H16.5V3C16.5,2.801 16.421,2.61 16.28,2.47C16.14,2.329 15.949,2.25 15.75,2.25C15.551,2.25 15.36,2.329 15.22,2.47C15.079,2.61 15,2.801 15,3V3.75H9V3C9,2.801 8.921,2.61 8.78,2.47C8.64,2.329 8.449,2.25 8.25,2.25C8.051,2.25 7.86,2.329 7.72,2.47C7.579,2.61 7.5,2.801 7.5,3V3.75H4.5C3.903,3.75 3.331,3.987 2.909,4.409C2.487,4.831 2.25,5.403 2.25,6V8.025C2.22,8.096 2.205,8.173 2.205,8.25C2.205,8.327 2.22,8.404 2.25,8.475V18C2.25,18.597 2.487,19.169 2.909,19.591C3.331,20.013 3.903,20.25 4.5,20.25H19.5C20.097,20.25 20.669,20.013 21.091,19.591C21.513,19.169 21.75,18.597 21.75,18V8.475C21.777,8.403 21.792,8.327 21.795,8.25ZM4.5,5.25H7.5V6C7.5,6.199 7.579,6.39 7.72,6.53C7.86,6.671 8.051,6.75 8.25,6.75C8.449,6.75 8.64,6.671 8.78,6.53C8.921,6.39 9,6.199 9,6V5.25H15V6C15,6.199 15.079,6.39 15.22,6.53C15.36,6.671 15.551,6.75 15.75,6.75C15.949,6.75 16.14,6.671 16.28,6.53C16.421,6.39 16.5,6.199 16.5,6V5.25H19.5C19.699,5.25 19.89,5.329 20.03,5.47C20.171,5.61 20.25,5.801 20.25,6V7.5H3.75V6C3.75,5.801 3.829,5.61 3.97,5.47C4.11,5.329 4.301,5.25 4.5,5.25ZM19.5,18.75H4.5C4.301,18.75 4.11,18.671 3.97,18.53C3.829,18.39 3.75,18.199 3.75,18V9H20.25V18C20.25,18.199 20.171,18.39 20.03,18.53C19.89,18.671 19.699,18.75 19.5,18.75Z" id="path_0"/>
</svg>