<svg id="vector" xmlns="http://www.w3.org/2000/svg" width="24" height="24" viewBox="0 0 24 24">
    <path fill="#a3a3a3" d="M1.25,7.5C1.25,6.771 1.54,6.071 2.055,5.555C2.571,5.04 3.271,4.75 4,4.75H20C20.729,4.75 21.429,5.04 21.944,5.555C22.46,6.071 22.75,6.771 22.75,7.5V16.5C22.75,17.229 22.46,17.929 21.944,18.444C21.429,18.96 20.729,19.25 20,19.25H18C17.801,19.25 17.61,19.171 17.47,19.03C17.329,18.89 17.25,18.699 17.25,18.5C17.25,18.301 17.329,18.11 17.47,17.97C17.61,17.829 17.801,17.75 18,17.75H20C20.69,17.75 21.25,17.19 21.25,16.5V7.5C21.25,6.81 20.69,6.25 20,6.25H4C3.31,6.25 2.75,6.81 2.75,7.5V16.5C2.75,17.19 3.31,17.75 4,17.75H14C14.199,17.75 14.39,17.829 14.53,17.97C14.671,18.11 14.75,18.301 14.75,18.5C14.75,18.699 14.671,18.89 14.53,19.03C14.39,19.171 14.199,19.25 14,19.25H4C3.271,19.25 2.571,18.96 2.055,18.444C1.54,17.929 1.25,17.229 1.25,16.5V7.5Z" fill-rule="1" id="path_0"/>
    <path fill="#a3a3a3" d="M8,9.75C7.801,9.75 7.61,9.829 7.47,9.97C7.329,10.11 7.25,10.301 7.25,10.5C7.25,10.699 7.329,10.89 7.47,11.03C7.61,11.171 7.801,11.25 8,11.25C8.199,11.25 8.39,11.171 8.53,11.03C8.671,10.89 8.75,10.699 8.75,10.5C8.75,10.301 8.671,10.11 8.53,9.97C8.39,9.829 8.199,9.75 8,9.75ZM5.75,10.5C5.75,9.903 5.987,9.331 6.409,8.909C6.831,8.487 7.403,8.25 8,8.25C8.597,8.25 9.169,8.487 9.591,8.909C10.013,9.331 10.25,9.903 10.25,10.5C10.25,11.097 10.013,11.669 9.591,12.091C9.169,12.513 8.597,12.75 8,12.75C7.403,12.75 6.831,12.513 6.409,12.091C5.987,11.669 5.75,11.097 5.75,10.5Z" fill-rule="1" id="path_1"/>
    <path fill="#a3a3a3" d="M8,12.75C7.596,12.75 7.199,12.859 6.852,13.065C6.504,13.271 6.219,13.567 6.025,13.922C5.999,13.969 6.002,13.989 6.003,13.992C6.003,13.999 6.009,14.026 6.043,14.066C6.12,14.156 6.289,14.25 6.5,14.25H9.5C9.711,14.25 9.88,14.156 9.956,14.066C9.991,14.026 9.996,13.999 9.997,13.992C9.997,13.989 10.001,13.969 9.975,13.922C9.781,13.567 9.496,13.271 9.148,13.065C8.801,12.859 8.404,12.75 8,12.75ZM4.709,13.201C5.032,12.61 5.508,12.117 6.087,11.774C6.666,11.43 7.327,11.249 8,11.249C8.673,11.249 9.334,11.43 9.913,11.774C10.492,12.117 10.968,12.61 11.291,13.201C11.658,13.871 11.503,14.565 11.097,15.041C10.714,15.488 10.117,15.75 9.5,15.75H6.5C5.883,15.75 5.286,15.488 4.903,15.04C4.497,14.565 4.343,13.87 4.709,13.201ZM13.25,10.5C13.25,10.301 13.329,10.11 13.47,9.97C13.61,9.829 13.801,9.75 14,9.75H19C19.199,9.75 19.39,9.829 19.53,9.97C19.671,10.11 19.75,10.301 19.75,10.5C19.75,10.699 19.671,10.89 19.53,11.03C19.39,11.171 19.199,11.25 19,11.25H14C13.801,11.25 13.61,11.171 13.47,11.03C13.329,10.89 13.25,10.699 13.25,10.5ZM13.25,13.5C13.25,13.301 13.329,13.11 13.47,12.97C13.61,12.829 13.801,12.75 14,12.75H19C19.199,12.75 19.39,12.829 19.53,12.97C19.671,13.11 19.75,13.301 19.75,13.5C19.75,13.699 19.671,13.89 19.53,14.03C19.39,14.171 19.199,14.25 19,14.25H14C13.801,14.25 13.61,14.171 13.47,14.03C13.329,13.89 13.25,13.699 13.25,13.5Z" fill-rule="1" id="path_2"/>
</svg>