<svg id="vector" xmlns="http://www.w3.org/2000/svg" width="24" height="24" viewBox="0 0 24 24">
    <path fill="#a3a3a3" d="M7.97,9.72C7.677,10.013 7.677,10.487 7.97,10.78L11.47,14.28C11.763,14.573 12.237,14.573 12.53,14.28L16.03,10.78C16.323,10.487 16.323,10.013 16.03,9.72C15.737,9.427 15.263,9.427 14.97,9.72L12,12.689L9.03,9.72C8.737,9.427 8.263,9.427 7.97,9.72Z" fill-rule="1" id="path_0"/>
    <path fill="#a3a3a3" d="M7.97,9.72C7.677,10.013 7.677,10.487 7.97,10.78L11.47,14.28C11.763,14.573 12.237,14.573 12.53,14.28L16.03,10.78C16.323,10.487 16.323,10.013 16.03,9.72C15.737,9.427 15.263,9.427 14.97,9.72L12,12.689L9.03,9.72C8.737,9.427 8.263,9.427 7.97,9.72Z" fill-rule="1" id="path_1"/>
</svg>