<svg id="vector" xmlns="http://www.w3.org/2000/svg" width="22" height="22" viewBox="0 0 22 22">
    <defs>
        <clipPath id="clip_path_0">
            <path d="M0,0h22v22h-22z"/>
        </clipPath>
    </defs>
    <g id="g_0">
        <path fill="#f0f0f0" d="M11,21.677C17.075,21.677 22,16.824 22,10.839C22,4.853 17.075,0 11,0C4.925,0 0,4.853 0,10.839C0,16.824 4.925,21.677 11,21.677Z" clip-path="url(#clip_path_0)"/>
        <path fill="#d80027" d="M10.068,11.113C10.068,11.113 3.533,18.813 3.527,18.811C4.506,19.824 5.668,20.627 6.948,21.174C8.228,21.721 9.6,22.002 10.985,22C13.782,21.999 16.463,20.851 18.44,18.809C20.417,16.768 21.527,14 21.527,11.113H10.068Z"/>
        <path fill="#0052b4" d="M3.527,3.415C2.547,4.425 1.77,5.626 1.24,6.947C0.71,8.267 0.438,9.683 0.438,11.113C0.438,12.543 0.71,13.958 1.24,15.279C1.77,16.6 2.547,17.8 3.527,18.811L10.985,11.113L3.527,3.415Z"/>
    </g>
</svg>