<svg id="vector" xmlns="http://www.w3.org/2000/svg" width="25" height="24" viewBox="0 0 25 24">
    <path fill="#a3a3a3" d="M19.49,6.232H18.226C17.763,6.232 17.3,5.979 17.09,5.558L16.711,4.758C16.247,3.832 15.279,3.242 14.268,3.242H10.732C9.679,3.242 8.753,3.832 8.289,4.758L7.911,5.558C7.7,5.979 7.279,6.232 6.774,6.232H5.511C3.995,6.232 2.774,7.453 2.774,8.969V17.979C2.774,19.495 3.995,20.716 5.511,20.716H19.49C21.005,20.716 22.226,19.495 22.226,17.979V16.969V12.969V8.969C22.268,7.495 21.005,6.232 19.49,6.232ZM20.753,13.011V17.011V18.021C20.753,18.695 20.205,19.284 19.49,19.284H5.511C4.837,19.284 4.247,18.737 4.247,18.021V9.011C4.247,8.337 4.795,7.747 5.511,7.747H6.774C7.826,7.747 8.753,7.158 9.216,6.232L9.595,5.432C9.805,5.011 10.226,4.758 10.732,4.758H14.268C14.732,4.758 15.195,5.011 15.405,5.432L15.784,6.232C16.247,7.158 17.216,7.747 18.226,7.747H19.49C20.163,7.747 20.753,8.295 20.753,9.011V13.011Z" fill-rule="1" id="path_0"/>
    <path fill="#a3a3a3" d="M12.5,9.768C10.689,9.768 9.258,11.242 9.258,13.011C9.258,14.779 10.731,16.253 12.5,16.253C14.268,16.253 15.742,14.779 15.742,13.011C15.742,11.242 14.311,9.768 12.5,9.768ZM7.742,13.011C7.742,10.4 9.889,8.253 12.5,8.253C15.111,8.253 17.258,10.4 17.258,13.011C17.258,15.621 15.111,17.768 12.5,17.768C9.889,17.768 7.742,15.621 7.742,13.011Z" fill-rule="1" id="path_1"/>
</svg>