<svg id="vector" xmlns="http://www.w3.org/2000/svg" width="24" height="24" viewBox="0 0 24 24">
    <path fill="#a3a3a3" d="M9,16.17L5.53,12.7C5.343,12.513 5.089,12.408 4.825,12.408C4.56,12.408 4.307,12.513 4.12,12.7C3.933,12.887 3.828,13.141 3.828,13.405C3.828,13.536 3.854,13.666 3.904,13.787C3.954,13.908 4.027,14.017 4.12,14.11L8.3,18.29C8.69,18.68 9.32,18.68 9.71,18.29L20.29,7.71C20.477,7.523 20.582,7.269 20.582,7.005C20.582,6.741 20.477,6.487 20.29,6.3C20.103,6.113 19.849,6.008 19.585,6.008C19.32,6.008 19.067,6.113 18.88,6.3L9,16.17Z" id="path_0"/>
</svg>