<svg id="vector" xmlns="http://www.w3.org/2000/svg" width="24" height="24" viewBox="0 0 24 24">
    <path fill="#0abde3" d="M6,10.753C6.197,10.753 6.394,10.828 6.534,10.969C6.675,11.109 6.75,11.297 6.75,11.503V17.006C6.75,17.147 6.863,17.259 7.003,17.259H17.006C17.072,17.259 17.138,17.231 17.184,17.184C17.231,17.138 17.259,17.072 17.259,17.006V11.503C17.259,11.306 17.334,11.109 17.475,10.969C17.616,10.828 17.803,10.753 18.009,10.753C18.216,10.753 18.403,10.828 18.544,10.969C18.684,11.109 18.759,11.297 18.759,11.503V17.006C18.759,17.475 18.572,17.916 18.244,18.244C17.916,18.572 17.475,18.759 17.006,18.759H7.003C6.534,18.759 6.094,18.572 5.766,18.244C5.438,17.906 5.25,17.466 5.25,16.997V11.494C5.25,11.297 5.325,11.1 5.466,10.959C5.606,10.828 5.803,10.753 6,10.753ZM21,8.747C21.197,8.747 21.394,8.822 21.534,8.963C21.675,9.103 21.75,9.291 21.75,9.497V15C21.75,15.197 21.675,15.394 21.534,15.534C21.394,15.675 21.206,15.75 21,15.75C20.794,15.75 20.606,15.675 20.466,15.534C20.325,15.394 20.25,15.206 20.25,15V9.497C20.25,9.3 20.325,9.103 20.466,8.963C20.606,8.822 20.803,8.747 21,8.747Z" fill-rule="1" id="path_0"/>
    <path fill="#0abde3" d="M21.788,9.188C21.722,9.075 21.619,8.981 21.506,8.916L12.441,3.844C12.328,3.778 12.206,3.75 12.075,3.75C11.944,3.75 11.822,3.787 11.709,3.844L10.913,4.294L6.262,6.891L2.634,8.916C2.522,8.981 2.419,9.075 2.353,9.188C2.287,9.3 2.25,9.431 2.25,9.563C2.25,9.694 2.287,9.825 2.353,9.938C2.419,10.05 2.522,10.144 2.634,10.209L11.709,15.281C11.822,15.347 11.944,15.375 12.075,15.375C12.206,15.375 12.328,15.337 12.441,15.281L21.516,10.209C21.628,10.144 21.731,10.05 21.797,9.938C21.862,9.825 21.9,9.694 21.9,9.553C21.891,9.441 21.853,9.309 21.788,9.188ZM12.075,13.781L4.537,9.572L7.369,7.988L11.297,5.794C11.297,5.794 11.297,5.794 11.306,5.794L12.075,5.363L19.612,9.572L12.075,13.781Z" id="path_1"/>
</svg>