<svg id="vector" xmlns="http://www.w3.org/2000/svg" width="20" height="20" viewBox="0 0 20 20">
    <g transform="translation(0, -0.6)" id="g_0">
        <path fill="#a3a3a3" d="M13.318,3.541C14.468,3.62 15.551,4.115 16.366,4.936C16.813,5.382 17.168,5.913 17.41,6.498C17.653,7.084 17.778,7.712 17.778,8.346C17.778,8.98 17.653,9.608 17.41,10.193C17.168,10.778 16.813,11.31 16.366,11.756L10.596,17.575C10.533,17.639 10.458,17.69 10.375,17.725C10.292,17.76 10.203,17.778 10.113,17.778C10.023,17.778 9.934,17.76 9.851,17.725C9.769,17.69 9.693,17.639 9.63,17.575L3.861,11.756C2.907,10.92 2.322,9.738 2.234,8.468C2.146,7.198 2.562,5.945 3.391,4.984C4.22,4.023 5.394,3.434 6.655,3.345C7.916,3.256 9.159,3.676 10.113,4.511C11.03,3.808 12.169,3.463 13.318,3.541Z"/>
    </g>
</svg>