<svg id="vector" xmlns="http://www.w3.org/2000/svg" width="24" height="24" viewBox="0 0 24 24">
    <path fill="#ee5253" d="M1.997,4.247C2.194,4.247 2.391,4.322 2.531,4.463C2.672,4.603 2.747,4.791 2.747,4.997V7.894C2.747,8.222 2.878,8.541 3.113,8.775C3.347,9.009 3.666,9.141 3.994,9.141C4.322,9.141 4.641,9.009 4.875,8.775C5.11,8.541 5.241,8.222 5.241,7.894V4.997C5.241,4.8 5.316,4.603 5.456,4.463C5.597,4.322 5.785,4.247 5.991,4.247C6.188,4.247 6.385,4.322 6.525,4.463C6.666,4.603 6.741,4.791 6.741,4.997V7.894C6.741,9.15 5.897,10.209 4.744,10.538V18.994C4.744,19.191 4.669,19.388 4.528,19.528C4.388,19.669 4.2,19.744 3.994,19.744C3.797,19.744 3.6,19.669 3.46,19.528C3.319,19.388 3.244,19.2 3.244,18.994V10.538C2.672,10.378 2.166,10.031 1.8,9.553C1.444,9.075 1.247,8.494 1.247,7.894V4.997C1.247,4.8 1.322,4.603 1.463,4.463C1.613,4.331 1.8,4.247 1.997,4.247ZM19.997,9.253C20.194,9.253 20.391,9.328 20.531,9.469C20.672,9.609 20.747,9.797 20.747,10.003V19.003C20.747,19.2 20.672,19.397 20.531,19.538C20.391,19.678 20.203,19.753 19.997,19.753C19.8,19.753 19.603,19.678 19.463,19.538C19.322,19.397 19.247,19.209 19.247,19.003V10.003C19.247,9.806 19.322,9.609 19.463,9.469C19.613,9.328 19.8,9.253 19.997,9.253Z" fill-rule="1" id="path_0"/>
    <path fill="#ee5253" d="M12,10.753C11.672,10.753 11.353,10.884 11.119,11.119C10.884,11.353 10.753,11.672 10.753,12C10.753,12.328 10.884,12.647 11.119,12.881C11.353,13.116 11.672,13.247 12,13.247C12.328,13.247 12.647,13.116 12.881,12.881C13.115,12.647 13.247,12.328 13.247,12C13.247,11.672 13.115,11.353 12.881,11.119C12.647,10.884 12.328,10.753 12,10.753ZM9.253,12C9.253,11.269 9.544,10.575 10.059,10.059C10.575,9.544 11.278,9.253 12,9.253C12.722,9.253 13.425,9.544 13.94,10.059C14.456,10.575 14.747,11.278 14.747,12C14.747,12.722 14.456,13.425 13.94,13.941C13.425,14.456 12.722,14.747 12,14.747C11.278,14.747 10.575,14.456 10.059,13.941C9.544,13.425 9.253,12.731 9.253,12Z" fill-rule="1" id="path_1"/>
    <path fill="#ee5253" d="M19.997,4.247C18.337,4.247 17.25,5.869 17.25,7.5C17.25,9.131 18.337,10.753 19.997,10.753C21.666,10.753 22.744,9.131 22.744,7.5C22.744,5.869 21.666,4.247 19.997,4.247ZM19.997,9.253C19.453,9.253 18.75,8.634 18.75,7.5C18.75,6.366 19.453,5.747 19.997,5.747C20.541,5.747 21.244,6.366 21.244,7.5C21.253,8.634 20.541,9.253 19.997,9.253Z" fill-rule="1" id="path_2"/>
    <path fill="#ee5253" d="M17.747,11.906C17.747,11.859 17.747,11.822 17.747,11.775C17.747,11.728 17.747,11.691 17.738,11.644C17.738,11.616 17.738,11.578 17.728,11.55C17.728,11.541 17.728,11.531 17.728,11.512C17.728,11.466 17.719,11.428 17.719,11.381C17.719,11.334 17.709,11.297 17.7,11.25C17.691,11.203 17.691,11.166 17.681,11.119C17.672,11.072 17.672,11.034 17.663,10.988C17.663,10.978 17.663,10.969 17.653,10.95C17.644,10.922 17.644,10.894 17.635,10.856C17.625,10.809 17.616,10.772 17.606,10.725C17.597,10.688 17.588,10.641 17.578,10.603C17.569,10.556 17.559,10.519 17.55,10.472C17.541,10.434 17.522,10.387 17.513,10.35C17.503,10.313 17.485,10.266 17.475,10.228C17.466,10.191 17.447,10.144 17.438,10.106C17.428,10.069 17.41,10.022 17.391,9.984C17.372,9.947 17.363,9.9 17.344,9.863C17.325,9.825 17.316,9.788 17.297,9.741C17.278,9.703 17.26,9.666 17.241,9.619C17.222,9.581 17.203,9.544 17.184,9.506C17.166,9.469 17.147,9.431 17.128,9.394C17.11,9.356 17.091,9.319 17.072,9.281C17.053,9.244 17.035,9.206 17.006,9.169C16.988,9.131 16.969,9.094 16.941,9.056C16.922,9.019 16.894,8.981 16.875,8.944C16.856,8.906 16.828,8.869 16.809,8.831C16.791,8.794 16.763,8.756 16.735,8.728C16.706,8.691 16.688,8.653 16.66,8.625C16.631,8.587 16.613,8.559 16.584,8.522C16.556,8.484 16.528,8.456 16.51,8.419C16.481,8.381 16.453,8.353 16.425,8.316C16.397,8.278 16.369,8.25 16.341,8.212C16.313,8.175 16.285,8.147 16.256,8.119C16.228,8.091 16.2,8.053 16.172,8.025C16.144,7.997 16.106,7.959 16.078,7.931C16.059,7.912 16.031,7.884 16.013,7.866C16.003,7.856 15.994,7.847 15.984,7.838C15.956,7.809 15.919,7.781 15.891,7.744C15.863,7.716 15.825,7.688 15.797,7.659C15.769,7.631 15.731,7.603 15.703,7.575C15.666,7.547 15.638,7.519 15.6,7.491C15.591,7.481 15.581,7.472 15.572,7.472C15.544,7.453 15.525,7.434 15.497,7.416C15.46,7.387 15.422,7.359 15.394,7.331C15.356,7.303 15.328,7.284 15.291,7.256C15.253,7.228 15.216,7.209 15.178,7.181C15.141,7.153 15.103,7.134 15.066,7.116C15.028,7.097 14.991,7.069 14.953,7.05C14.916,7.031 14.878,7.003 14.841,6.984C14.803,6.966 14.766,6.938 14.728,6.919C14.691,6.9 14.653,6.881 14.616,6.863C14.578,6.844 14.541,6.825 14.503,6.806C14.466,6.787 14.428,6.769 14.381,6.75C14.344,6.731 14.306,6.713 14.269,6.694C14.231,6.675 14.184,6.656 14.147,6.647C14.109,6.628 14.072,6.619 14.025,6.6C13.988,6.581 13.941,6.572 13.903,6.553C13.866,6.534 13.819,6.525 13.781,6.516C13.744,6.506 13.697,6.488 13.66,6.478C13.622,6.469 13.575,6.45 13.538,6.441C13.5,6.431 13.453,6.422 13.416,6.403C13.378,6.394 13.331,6.384 13.294,6.375C13.247,6.366 13.21,6.356 13.163,6.347C13.125,6.338 13.078,6.328 13.041,6.319C12.994,6.309 12.956,6.3 12.91,6.3C12.872,6.291 12.825,6.291 12.788,6.281C12.741,6.272 12.703,6.272 12.656,6.262C12.619,6.253 12.572,6.253 12.535,6.253C12.488,6.253 12.441,6.244 12.403,6.244C12.375,6.244 12.338,6.234 12.309,6.234C12.3,6.234 12.291,6.234 12.272,6.234C12.225,6.234 12.188,6.234 12.141,6.234C12.094,6.234 12.056,6.234 12.009,6.234C11.963,6.234 11.925,6.234 11.878,6.234C11.831,6.234 11.794,6.234 11.747,6.234C11.738,6.234 11.728,6.234 11.71,6.234C11.681,6.234 11.644,6.244 11.616,6.244C11.569,6.244 11.522,6.253 11.484,6.253C11.447,6.253 11.4,6.262 11.363,6.262C11.316,6.272 11.278,6.272 11.231,6.281C11.194,6.291 11.147,6.291 11.109,6.3C11.063,6.309 11.025,6.309 10.978,6.319C10.941,6.328 10.894,6.338 10.856,6.347C10.809,6.356 10.772,6.366 10.725,6.375C10.688,6.384 10.641,6.394 10.603,6.403C10.566,6.412 10.519,6.422 10.481,6.441C10.444,6.45 10.397,6.469 10.359,6.478C10.322,6.488 10.275,6.506 10.238,6.516C10.2,6.525 10.153,6.544 10.116,6.553C10.078,6.572 10.031,6.581 9.994,6.6C9.956,6.619 9.919,6.628 9.872,6.647C9.834,6.666 9.788,6.675 9.75,6.694C9.713,6.713 9.675,6.731 9.638,6.75C9.6,6.769 9.563,6.787 9.516,6.806C9.478,6.825 9.441,6.844 9.403,6.863C9.366,6.881 9.328,6.9 9.291,6.919C9.253,6.938 9.216,6.956 9.178,6.984C9.141,7.003 9.103,7.031 9.066,7.05C9.028,7.069 8.991,7.097 8.953,7.116C8.916,7.134 8.878,7.162 8.841,7.181C8.803,7.209 8.766,7.228 8.728,7.256C8.691,7.284 8.663,7.303 8.625,7.331C8.588,7.359 8.55,7.387 8.522,7.416C8.494,7.434 8.475,7.453 8.447,7.472C8.438,7.481 8.428,7.491 8.419,7.491C8.381,7.519 8.353,7.547 8.316,7.575C8.288,7.603 8.25,7.631 8.222,7.659C8.194,7.688 8.156,7.716 8.128,7.744C8.1,7.772 8.063,7.8 8.034,7.838C8.025,7.847 8.016,7.856 8.006,7.866C7.988,7.884 7.959,7.912 7.941,7.931C7.913,7.959 7.875,7.997 7.847,8.025C7.819,8.053 7.791,8.091 7.763,8.119C7.734,8.147 7.706,8.184 7.678,8.212C7.65,8.241 7.622,8.278 7.594,8.316C7.566,8.353 7.538,8.381 7.509,8.419C7.481,8.456 7.453,8.484 7.434,8.522C7.406,8.559 7.378,8.587 7.359,8.625C7.331,8.663 7.313,8.7 7.284,8.728C7.256,8.766 7.238,8.803 7.209,8.831C7.181,8.869 7.163,8.906 7.144,8.944C7.125,8.981 7.097,9.019 7.078,9.056C7.059,9.094 7.031,9.131 7.013,9.169C6.994,9.206 6.975,9.244 6.947,9.281C6.928,9.319 6.909,9.356 6.891,9.394C6.872,9.431 6.853,9.469 6.834,9.506C6.816,9.544 6.797,9.581 6.778,9.619C6.759,9.656 6.741,9.694 6.722,9.741C6.703,9.778 6.694,9.816 6.675,9.863C6.656,9.9 6.647,9.947 6.628,9.984C6.609,10.022 6.6,10.069 6.581,10.106C6.563,10.144 6.553,10.191 6.544,10.228C6.534,10.266 6.516,10.313 6.506,10.35C6.497,10.387 6.478,10.434 6.469,10.472C6.459,10.509 6.45,10.556 6.441,10.603C6.431,10.641 6.422,10.688 6.413,10.725C6.403,10.772 6.394,10.809 6.384,10.856C6.375,10.884 6.375,10.913 6.366,10.95C6.366,10.959 6.366,10.969 6.356,10.988C6.347,11.034 6.347,11.072 6.338,11.119C6.328,11.166 6.328,11.203 6.319,11.25C6.309,11.297 6.309,11.334 6.3,11.381C6.291,11.428 6.291,11.466 6.291,11.512C6.291,11.522 6.291,11.531 6.291,11.55C6.291,11.578 6.291,11.616 6.281,11.644C6.281,11.691 6.272,11.728 6.272,11.775C6.272,11.822 6.272,11.859 6.272,11.906C6.272,11.953 6.272,11.991 6.272,12.038C6.272,12.084 6.272,12.122 6.272,12.169C6.272,12.216 6.272,12.253 6.272,12.3C6.272,12.347 6.281,12.384 6.281,12.431C6.281,12.478 6.291,12.516 6.291,12.563C6.291,12.609 6.3,12.647 6.309,12.694C6.319,12.741 6.319,12.778 6.328,12.825C6.338,12.872 6.338,12.909 6.347,12.956C6.356,12.994 6.356,13.041 6.366,13.078C6.375,13.125 6.384,13.163 6.394,13.209C6.403,13.247 6.413,13.294 6.422,13.331C6.431,13.369 6.441,13.416 6.45,13.453C6.459,13.491 6.469,13.538 6.488,13.575C6.497,13.613 6.516,13.659 6.525,13.697C6.534,13.734 6.553,13.781 6.563,13.819C6.572,13.856 6.591,13.903 6.609,13.941C6.628,13.978 6.638,14.025 6.656,14.063C6.675,14.1 6.684,14.147 6.703,14.184C6.722,14.222 6.731,14.259 6.75,14.306C6.769,14.344 6.788,14.391 6.806,14.428C6.825,14.466 6.844,14.503 6.863,14.541C6.881,14.578 6.9,14.616 6.928,14.663C6.947,14.7 6.966,14.738 6.984,14.775C7.003,14.813 7.031,14.85 7.05,14.897C7.069,14.925 7.078,14.953 7.097,14.972C7.106,14.981 7.106,14.991 7.116,15C7.134,15.038 7.163,15.075 7.191,15.113C7.209,15.15 7.238,15.188 7.256,15.216C7.284,15.253 7.303,15.291 7.331,15.328C7.359,15.366 7.378,15.394 7.406,15.431C7.416,15.441 7.416,15.45 7.425,15.459C7.434,15.469 7.434,15.478 7.444,15.478C8.034,16.256 8.813,16.875 9.713,17.269C9.722,17.269 9.722,17.278 9.731,17.278C9.741,17.278 9.75,17.288 9.759,17.288C9.797,17.306 9.844,17.325 9.881,17.334C9.919,17.353 9.966,17.362 10.003,17.381C10.041,17.4 10.088,17.409 10.125,17.428C10.163,17.447 10.21,17.456 10.247,17.475C10.256,17.475 10.266,17.484 10.275,17.484C10.303,17.494 10.331,17.503 10.369,17.513C10.416,17.522 10.453,17.541 10.5,17.55C10.538,17.559 10.585,17.569 10.622,17.578C10.669,17.587 10.706,17.597 10.753,17.606C10.791,17.616 10.838,17.625 10.875,17.634C10.922,17.644 10.96,17.653 11.006,17.663C11.053,17.672 11.091,17.681 11.138,17.681C11.184,17.691 11.222,17.691 11.269,17.7C11.316,17.709 11.353,17.709 11.4,17.719C11.447,17.728 11.484,17.728 11.531,17.728C11.578,17.728 11.616,17.737 11.663,17.737C11.71,17.737 11.747,17.747 11.794,17.747C11.841,17.747 11.878,17.747 11.925,17.747C11.972,17.747 12.009,17.747 12.056,17.747C12.103,17.747 12.141,17.747 12.188,17.747C12.234,17.747 12.272,17.747 12.319,17.747C12.366,17.747 12.403,17.737 12.45,17.737C12.497,17.737 12.535,17.728 12.581,17.728C12.628,17.728 12.666,17.719 12.713,17.719C12.759,17.709 12.797,17.709 12.844,17.7C12.891,17.691 12.928,17.691 12.975,17.681C13.022,17.672 13.059,17.672 13.106,17.663C13.153,17.653 13.191,17.644 13.238,17.634C13.275,17.625 13.322,17.616 13.359,17.606C13.406,17.597 13.444,17.587 13.491,17.578C13.528,17.569 13.575,17.559 13.613,17.55C13.66,17.541 13.697,17.522 13.744,17.513C13.772,17.503 13.8,17.494 13.838,17.484C13.847,17.484 13.856,17.475 13.866,17.475C13.903,17.466 13.95,17.447 13.988,17.428C14.025,17.409 14.072,17.4 14.109,17.381C14.147,17.362 14.194,17.353 14.231,17.334C14.269,17.316 14.316,17.306 14.353,17.288C14.363,17.288 14.372,17.278 14.381,17.278C14.391,17.278 14.391,17.269 14.4,17.269C15.3,16.875 16.078,16.256 16.669,15.478C16.678,15.469 16.678,15.459 16.688,15.459C16.697,15.45 16.697,15.441 16.706,15.431C16.735,15.394 16.753,15.366 16.781,15.328C16.809,15.291 16.828,15.253 16.856,15.216C16.875,15.178 16.903,15.15 16.922,15.113C16.95,15.075 16.969,15.038 16.997,15C17.006,14.991 17.006,14.981 17.016,14.972C17.035,14.944 17.044,14.916 17.063,14.897C17.081,14.859 17.11,14.822 17.128,14.775C17.147,14.738 17.166,14.7 17.184,14.663C17.203,14.625 17.222,14.587 17.25,14.541C17.269,14.503 17.288,14.466 17.306,14.428C17.325,14.391 17.344,14.344 17.363,14.306C17.381,14.269 17.4,14.231 17.41,14.184C17.428,14.147 17.447,14.1 17.456,14.063C17.475,14.025 17.485,13.978 17.503,13.941C17.522,13.903 17.531,13.856 17.55,13.819C17.559,13.781 17.578,13.734 17.588,13.697C17.597,13.659 17.616,13.613 17.625,13.575C17.635,13.538 17.644,13.491 17.663,13.453C17.672,13.416 17.681,13.369 17.691,13.331C17.7,13.294 17.709,13.247 17.719,13.209C17.728,13.163 17.738,13.125 17.747,13.078C17.756,13.041 17.766,12.994 17.766,12.956C17.775,12.909 17.785,12.872 17.785,12.825C17.794,12.788 17.794,12.741 17.803,12.694C17.813,12.647 17.813,12.609 17.822,12.563C17.822,12.516 17.831,12.478 17.831,12.431C17.831,12.384 17.841,12.347 17.841,12.3C17.841,12.253 17.841,12.216 17.841,12.169C17.841,12.122 17.841,12.084 17.841,12.038C17.747,12 17.747,11.953 17.747,11.906ZM13.95,15.778C13.463,16.031 12.938,16.181 12.394,16.237C12.384,16.237 12.375,16.237 12.375,16.237C12.319,16.247 12.263,16.247 12.197,16.247C12.169,16.247 12.15,16.247 12.122,16.247C12.085,16.247 12.038,16.247 12,16.247C11.963,16.247 11.916,16.247 11.878,16.247C11.85,16.247 11.831,16.247 11.803,16.247C11.747,16.247 11.691,16.237 11.625,16.237C11.616,16.237 11.606,16.237 11.606,16.237C11.063,16.191 10.538,16.031 10.05,15.778C9.488,15.488 9,15.075 8.616,14.578C8.231,14.072 7.969,13.491 7.838,12.872C7.706,12.253 7.716,11.616 7.866,10.997C8.016,10.387 8.297,9.806 8.7,9.319C9.094,8.831 9.581,8.447 10.144,8.175C10.163,8.166 10.172,8.156 10.191,8.156C10.247,8.128 10.313,8.1 10.369,8.081C10.388,8.072 10.406,8.063 10.425,8.063C10.481,8.034 10.547,8.016 10.603,7.997C10.613,7.997 10.622,7.988 10.631,7.988C10.744,7.95 10.856,7.912 10.978,7.884C11.006,7.875 11.044,7.866 11.072,7.856C11.119,7.847 11.166,7.838 11.213,7.828C11.259,7.819 11.297,7.809 11.344,7.809C11.391,7.8 11.428,7.8 11.475,7.791C11.522,7.781 11.578,7.781 11.625,7.772C11.663,7.772 11.7,7.762 11.728,7.762C11.813,7.753 11.906,7.753 11.991,7.753C12.075,7.753 12.169,7.753 12.253,7.762C12.291,7.762 12.328,7.772 12.356,7.772C12.403,7.772 12.46,7.781 12.506,7.791C12.553,7.8 12.591,7.8 12.638,7.809C12.684,7.819 12.722,7.828 12.769,7.828C12.816,7.838 12.863,7.847 12.91,7.856C12.938,7.866 12.975,7.875 13.003,7.884C13.116,7.912 13.238,7.95 13.35,7.988C13.359,7.988 13.369,7.997 13.378,7.997C13.434,8.016 13.5,8.044 13.556,8.063C13.575,8.072 13.594,8.081 13.613,8.081C13.669,8.109 13.734,8.128 13.791,8.156C13.809,8.166 13.819,8.166 13.838,8.175C14.4,8.447 14.888,8.841 15.281,9.319C15.675,9.806 15.966,10.378 16.116,10.997C16.266,11.606 16.275,12.253 16.144,12.872C16.013,13.491 15.75,14.072 15.366,14.578C15,15.075 14.513,15.488 13.95,15.778Z" fill-rule="1" id="path_3"/>
</svg>