<svg id="vector" xmlns="http://www.w3.org/2000/svg" width="24" height="24" viewBox="0 0 24 24">
    <path fill="#a3a3a3" d="M11.307,4.162C11.726,3.882 12.274,3.882 12.693,4.162L19.693,8.829C20.041,9.06 20.25,9.451 20.25,9.869V18.798C20.25,19.489 19.69,20.048 19,20.048H15.75V15.798C15.75,14.28 14.519,13.048 13,13.048H11C9.481,13.048 8.25,14.28 8.25,15.798V20.048H5C4.31,20.048 3.75,19.489 3.75,18.798V14.798C3.75,14.384 3.414,14.048 3,14.048C2.586,14.048 2.25,14.384 2.25,14.798V18.798C2.25,20.317 3.481,21.548 5,21.548H9C9.414,21.548 9.75,21.212 9.75,20.798V15.798C9.75,15.108 10.31,14.548 11,14.548H13C13.69,14.548 14.25,15.108 14.25,15.798V20.798C14.25,21.212 14.586,21.548 15,21.548H19C20.519,21.548 21.75,20.317 21.75,18.798V9.869C21.75,8.949 21.291,8.09 20.525,7.58L13.525,2.914C12.602,2.298 11.398,2.298 10.475,2.914L3.416,7.619C2.688,8.105 2.25,8.923 2.25,9.798V10.798C2.25,11.212 2.586,11.548 3,11.548C3.414,11.548 3.75,11.212 3.75,10.798V9.798C3.75,9.424 3.937,9.075 4.248,8.868L11.307,4.162Z" fill-rule="1" id="path_0"/>
</svg>