<svg id="vector" xmlns="http://www.w3.org/2000/svg" width="24" height="24" viewBox="0 0 24 24">
    <path fill="#40b8b8" d="M12,24C18.627,24 24,18.627 24,12C24,5.373 18.627,0 12,0C5.373,0 0,5.373 0,12C0,18.627 5.373,24 12,24ZM9.261,16.366C7.882,16.366 7.307,15.536 7.307,13.689C7.307,13.434 7.467,13.354 7.655,13.354H8.538C8.726,13.354 8.792,13.461 8.779,13.729C8.739,14.585 8.846,15.014 9.288,15.014C9.783,15.014 9.863,14.706 9.863,13.863C9.863,13.167 9.515,12.725 8.859,12.417C7.882,11.962 7.32,11.158 7.333,9.954C7.347,8.227 8.177,7.624 9.422,7.624C10.774,7.624 11.363,8.374 11.363,10.141C11.363,10.395 11.175,10.476 11.015,10.476H10.131C9.944,10.476 9.863,10.368 9.877,10.128C9.93,9.338 9.85,8.976 9.395,8.976C8.98,8.976 8.846,9.231 8.846,10.02C8.846,10.636 9.127,11.065 9.716,11.332C10.72,11.788 11.376,12.591 11.376,13.822C11.376,15.643 10.694,16.366 9.261,16.366ZM5.822,16.286H4.644C4.497,16.286 4.39,16.178 4.39,16.031V7.959C4.39,7.812 4.497,7.704 4.644,7.704H5.822C5.97,7.704 6.077,7.812 6.077,7.959V16.031C6.077,16.178 5.97,16.286 5.822,16.286ZM12.898,16.286H14.076C14.224,16.286 14.331,16.178 14.331,16.031V7.959C14.331,7.812 14.224,7.704 14.076,7.704H12.898C12.751,7.704 12.644,7.812 12.644,7.959V16.031C12.644,16.178 12.751,16.286 12.898,16.286ZM17.91,16.366C16.236,16.366 15.581,15.108 15.581,11.988C15.581,8.869 16.236,7.624 17.91,7.624C19.061,7.624 19.878,8.24 19.878,10.248C19.878,10.489 19.704,10.569 19.543,10.569H18.633C18.445,10.569 18.379,10.422 18.392,10.168C18.445,9.311 18.312,8.963 17.91,8.963C17.334,8.963 17.308,9.606 17.308,11.988C17.308,14.385 17.334,15.027 17.91,15.027C18.312,15.027 18.445,14.653 18.392,13.755C18.379,13.501 18.445,13.354 18.633,13.354H19.543C19.717,13.354 19.878,13.448 19.878,13.675C19.878,15.723 19.061,16.366 17.91,16.366Z" fill-rule="1" id="path_0"/>
</svg>