<svg id="vector" xmlns="http://www.w3.org/2000/svg" width="24" height="24" viewBox="0 0 24 24">
    <path fill="#10ac84" d="M21.741,10.444C21.741,10.434 21.741,10.425 21.741,10.416C21.741,10.35 21.75,10.284 21.75,10.219C21.75,10.144 21.75,10.069 21.75,9.994C21.75,9.919 21.741,9.844 21.722,9.778C21.694,9.684 21.647,9.6 21.581,9.525C21.563,9.506 21.553,9.487 21.534,9.469C21.394,9.328 21.206,9.253 21,9.253H3C2.803,9.253 2.606,9.328 2.466,9.469C2.447,9.487 2.428,9.506 2.419,9.525C2.353,9.6 2.306,9.684 2.278,9.778C2.259,9.844 2.25,9.919 2.25,9.994C2.25,10.069 2.25,10.144 2.25,10.219C2.25,10.284 2.259,10.35 2.259,10.416C2.259,10.425 2.259,10.434 2.259,10.444C2.419,13.313 4.097,15.769 6.544,17.25C6.563,17.259 6.581,17.278 6.6,17.288C6.947,17.494 7.313,17.681 7.678,17.85C8.625,18.272 9.666,18.553 10.753,18.684C10.762,18.684 10.772,18.684 10.781,18.684C10.847,18.694 10.903,18.694 10.969,18.703C10.997,18.703 11.025,18.712 11.053,18.712C11.109,18.712 11.156,18.722 11.212,18.722C11.25,18.722 11.297,18.731 11.334,18.731C11.381,18.731 11.419,18.741 11.466,18.741C11.522,18.741 11.569,18.741 11.625,18.75C11.663,18.75 11.691,18.75 11.728,18.75C11.822,18.75 11.906,18.75 12,18.75C12.094,18.75 12.178,18.75 12.272,18.75C12.309,18.75 12.337,18.75 12.375,18.75C12.431,18.75 12.478,18.75 12.534,18.741C12.581,18.741 12.619,18.731 12.666,18.731C12.703,18.731 12.75,18.722 12.788,18.722C12.844,18.722 12.891,18.712 12.947,18.712C12.975,18.712 13.003,18.703 13.031,18.703C13.097,18.694 13.153,18.694 13.219,18.684C13.228,18.684 13.238,18.684 13.247,18.684C14.334,18.563 15.375,18.272 16.322,17.85C16.697,17.681 17.053,17.494 17.4,17.288C17.419,17.278 17.438,17.259 17.456,17.25C19.903,15.769 21.581,13.313 21.741,10.444ZM16.641,15.994L16.631,16.003C16.341,16.181 16.031,16.341 15.712,16.481C15.225,16.697 14.709,16.875 14.175,16.997C14.034,17.025 13.903,17.063 13.762,17.081C13.744,17.081 13.716,17.091 13.697,17.091C13.631,17.1 13.566,17.109 13.5,17.128C13.434,17.138 13.369,17.147 13.303,17.156C13.238,17.166 13.172,17.175 13.106,17.184C13.031,17.194 12.956,17.203 12.881,17.212C12.844,17.212 12.806,17.222 12.769,17.222C12.656,17.231 12.553,17.241 12.441,17.241C12.413,17.241 12.384,17.241 12.356,17.241C12.234,17.241 12.122,17.25 12,17.25C11.878,17.25 11.766,17.25 11.644,17.241C11.616,17.241 11.587,17.241 11.559,17.241C11.447,17.231 11.344,17.231 11.231,17.222C11.194,17.222 11.156,17.212 11.119,17.212C11.044,17.203 10.969,17.194 10.894,17.184C10.828,17.175 10.762,17.166 10.697,17.156C10.631,17.147 10.566,17.138 10.5,17.128C10.434,17.119 10.369,17.109 10.303,17.091C10.284,17.091 10.256,17.081 10.238,17.081C10.097,17.053 9.956,17.025 9.825,16.997C9.291,16.866 8.775,16.697 8.288,16.481C7.969,16.341 7.659,16.181 7.369,16.003L7.359,15.994C5.494,14.878 4.2,13.106 3.844,11.1C3.844,11.091 3.844,11.091 3.844,11.081C3.825,10.969 3.806,10.866 3.797,10.753H20.212C20.203,10.866 20.184,10.969 20.166,11.081C20.166,11.091 20.166,11.091 20.166,11.1C19.8,13.106 18.506,14.878 16.641,15.994Z" fill-rule="1" id="path_0"/>
    <path fill="#10ac84" d="M7.997,16.753C8.194,16.753 8.391,16.828 8.531,16.969C8.672,17.109 8.747,17.297 8.747,17.503V19.5C8.747,19.641 8.86,19.753 9,19.753H15C15.066,19.753 15.131,19.725 15.178,19.678C15.225,19.631 15.253,19.566 15.253,19.5V17.503C15.253,17.306 15.328,17.109 15.469,16.969C15.61,16.828 15.797,16.753 16.003,16.753C16.2,16.753 16.397,16.828 16.538,16.969C16.678,17.109 16.753,17.297 16.753,17.503V19.5C16.753,19.969 16.566,20.409 16.238,20.737C15.91,21.066 15.469,21.253 15,21.253H9C8.531,21.253 8.091,21.066 7.763,20.737C7.435,20.409 7.247,19.969 7.247,19.5V17.503C7.247,17.306 7.322,17.109 7.463,16.969C7.613,16.828 7.8,16.753 7.997,16.753ZM19.997,4.247C19.819,4.247 19.641,4.284 19.472,4.359C19.303,4.434 19.163,4.547 19.041,4.688C18.919,4.828 18.835,4.988 18.788,5.156C18.741,5.334 18.731,5.512 18.76,5.691C18.778,5.822 18.769,5.953 18.722,6.075C18.675,6.197 18.6,6.3 18.497,6.384L15.066,9.244H16.688L19.022,6.909C19.116,6.816 19.219,6.75 19.341,6.722C19.463,6.684 19.594,6.684 19.716,6.713C19.885,6.75 20.063,6.75 20.241,6.722C20.41,6.684 20.578,6.619 20.719,6.516C20.86,6.412 20.981,6.281 21.075,6.131C21.169,5.981 21.225,5.813 21.244,5.634C21.263,5.456 21.244,5.287 21.197,5.119C21.141,4.95 21.056,4.8 20.944,4.669C20.831,4.537 20.681,4.434 20.522,4.359C20.353,4.284 20.175,4.247 19.997,4.247ZM17.25,5.484C17.25,4.931 17.419,4.397 17.738,3.947C18.047,3.497 18.488,3.141 19.003,2.944C19.519,2.747 20.081,2.7 20.616,2.822C21.15,2.944 21.638,3.225 22.013,3.628C22.388,4.031 22.631,4.537 22.716,5.081C22.8,5.625 22.716,6.188 22.481,6.684C22.247,7.181 21.863,7.594 21.385,7.875C20.906,8.156 20.363,8.278 19.81,8.25L17.531,10.528C17.391,10.669 17.203,10.744 16.997,10.744H12.994C12.844,10.744 12.694,10.697 12.563,10.603C12.441,10.519 12.338,10.387 12.291,10.247C12.235,10.106 12.235,9.947 12.272,9.797C12.31,9.647 12.394,9.516 12.516,9.413L17.25,5.484ZM12,11.25C12.197,11.25 12.394,11.325 12.535,11.466C12.675,11.606 12.75,11.794 12.75,12V16.003C12.75,16.2 12.675,16.397 12.535,16.538C12.394,16.678 12.206,16.753 12,16.753C11.803,16.753 11.606,16.678 11.466,16.538C11.325,16.397 11.25,16.209 11.25,16.003V12C11.25,11.803 11.325,11.606 11.466,11.466C11.606,11.325 11.803,11.25 12,11.25Z" fill-rule="1" id="path_1"/>
    <path fill="#10ac84" d="M9.253,13.997C9.253,13.8 9.328,13.603 9.469,13.462C9.609,13.322 9.797,13.247 10.003,13.247H14.006C14.203,13.247 14.4,13.322 14.54,13.462C14.681,13.603 14.756,13.791 14.756,13.997C14.756,14.194 14.681,14.391 14.54,14.531C14.4,14.672 14.212,14.747 14.006,14.747H10.003C9.806,14.747 9.609,14.672 9.469,14.531C9.328,14.391 9.253,14.203 9.253,13.997ZM3.253,3.497C3.253,3.3 3.328,3.103 3.469,2.963C3.609,2.822 3.797,2.747 4.003,2.747H7.003C7.997,2.747 8.953,3.141 9.656,3.844C10.359,4.547 10.753,5.503 10.753,6.497V7.5C10.753,7.697 10.678,7.894 10.537,8.034C10.397,8.175 10.209,8.25 10.003,8.25H7.003C6.009,8.25 5.053,7.856 4.35,7.153C3.647,6.45 3.253,5.494 3.253,4.5V3.497ZM4.753,4.247V4.5C4.753,5.1 4.987,5.672 5.409,6.094C5.831,6.516 6.403,6.75 7.003,6.75H9.253V6.497C9.253,5.897 9.019,5.325 8.597,4.903C8.175,4.481 7.603,4.247 7.003,4.247H4.753Z" fill-rule="1" id="path_2"/>
    <path fill="#10ac84" d="M12,5.747C11.306,5.747 10.753,6.309 10.753,6.994V7.5C10.753,7.697 10.678,7.894 10.537,8.034C10.397,8.175 10.209,8.25 10.003,8.25C9.806,8.25 9.609,8.175 9.469,8.034C9.328,7.894 9.253,7.706 9.253,7.5V7.003C9.253,6.272 9.544,5.578 10.059,5.062C10.575,4.547 11.278,4.256 12,4.256H13.003C13.2,4.256 13.397,4.331 13.537,4.472C13.678,4.612 13.753,4.8 13.753,5.006C13.753,5.203 13.678,5.4 13.537,5.541C13.397,5.681 13.209,5.756 13.003,5.756H12V5.747Z" fill-rule="1" id="path_3"/>
</svg>