<svg id="vector" xmlns="http://www.w3.org/2000/svg" width="24" height="24" viewBox="0 0 24 24">
    <path fill="#f368e0" d="M6,14.747C5.4,14.747 4.828,14.981 4.406,15.403C3.984,15.825 3.75,16.397 3.75,16.997C3.75,17.597 3.984,18.169 4.406,18.591C4.828,19.013 5.4,19.247 6,19.247C6.6,19.247 7.172,19.013 7.594,18.591C8.016,18.169 8.25,17.597 8.25,16.997C8.25,16.397 8.016,15.825 7.594,15.403C7.172,14.991 6.6,14.747 6,14.747ZM2.25,16.997C2.25,16.003 2.644,15.047 3.347,14.344C4.05,13.641 5.006,13.247 6,13.247C6.994,13.247 7.95,13.641 8.653,14.344C9.356,15.047 9.75,16.003 9.75,16.997C9.75,17.991 9.356,18.947 8.653,19.65C7.95,20.353 6.994,20.747 6,20.747C5.006,20.747 4.05,20.353 3.347,19.65C2.644,18.947 2.25,17.991 2.25,16.997Z" fill-rule="1" id="path_0"/>
    <path fill="#f368e0" d="M9,2.747C9.197,2.747 9.394,2.822 9.534,2.963C9.675,3.103 9.75,3.291 9.75,3.497V17.25C9.75,17.447 9.675,17.644 9.534,17.784C9.394,17.925 9.206,18 9,18C8.794,18 8.606,17.925 8.466,17.784C8.325,17.644 8.25,17.456 8.25,17.25V3.497C8.25,3.3 8.325,3.103 8.466,2.963C8.606,2.831 8.803,2.747 9,2.747ZM17.503,14.747C16.903,14.747 16.331,14.981 15.909,15.403C15.488,15.825 15.253,16.397 15.253,16.997C15.253,17.597 15.488,18.169 15.909,18.591C16.331,19.013 16.903,19.247 17.503,19.247C18.103,19.247 18.675,19.013 19.097,18.591C19.519,18.169 19.753,17.597 19.753,16.997C19.753,16.397 19.519,15.825 19.097,15.403C18.666,14.991 18.094,14.747 17.503,14.747ZM13.753,16.997C13.753,16.003 14.147,15.047 14.85,14.344C15.553,13.641 16.509,13.247 17.503,13.247C18.497,13.247 19.453,13.641 20.156,14.344C20.859,15.047 21.253,16.003 21.253,16.997C21.253,17.991 20.859,18.947 20.156,19.65C19.453,20.353 18.497,20.747 17.503,20.747C16.509,20.747 15.553,20.353 14.85,19.65C14.147,18.947 13.753,17.991 13.753,16.997Z" fill-rule="1" id="path_1"/>
    <path fill="#f368e0" d="M20.503,4.753C20.7,4.753 20.897,4.828 21.037,4.969C21.178,5.109 21.253,5.297 21.253,5.503V17.25C21.253,17.447 21.178,17.644 21.037,17.784C20.897,17.925 20.709,18 20.503,18C20.306,18 20.109,17.925 19.969,17.784C19.828,17.644 19.753,17.456 19.753,17.25V5.503C19.753,5.306 19.828,5.109 19.969,4.969C20.109,4.828 20.297,4.753 20.503,4.753Z" fill-rule="1" id="path_2"/>
    <path fill="#f368e0" d="M20.953,4.613C20.766,4.388 20.503,4.238 20.212,4.181L9.712,2.353C8.953,2.231 8.25,2.822 8.25,3.591V6.572C8.25,6.863 8.353,7.153 8.541,7.378C8.728,7.603 8.991,7.753 9.281,7.8L14.016,8.625L14.709,8.747H14.719L19.209,9.525L19.772,9.619C20.531,9.75 21.234,9.159 21.234,8.391V5.419C21.253,5.128 21.15,4.838 20.953,4.613ZM19.753,8.109L19.5,8.063L14.419,7.181L9.75,6.366V3.891L19.753,5.634V8.109Z" fill-rule="1" id="path_3"/>
</svg>