<svg id="vector" xmlns="http://www.w3.org/2000/svg" width="24" height="24" viewBox="0 0 24 24">
    <path fill="#a3a3a3" d="M4,5.75C3.31,5.75 2.75,6.31 2.75,7V17C2.75,17.69 3.31,18.25 4,18.25H20C20.69,18.25 21.25,17.69 21.25,17V7C21.25,6.31 20.69,5.75 20,5.75H12C11.586,5.75 11.25,5.414 11.25,5C11.25,4.586 11.586,4.25 12,4.25H20C21.519,4.25 22.75,5.481 22.75,7V17C22.75,18.519 21.519,19.75 20,19.75H4C2.481,19.75 1.25,18.519 1.25,17V7C1.25,5.481 2.481,4.25 4,4.25H8C8.414,4.25 8.75,4.586 8.75,5C8.75,5.414 8.414,5.75 8,5.75H4Z" fill-rule="1" id="path_0"/>
    <path fill="#a3a3a3" d="M4.311,7.705C4.474,7.324 4.915,7.148 5.296,7.311L12,10.184L18.705,7.311C19.086,7.148 19.526,7.324 19.69,7.705C19.853,8.085 19.676,8.526 19.296,8.69L12.296,11.69C12.107,11.77 11.893,11.77 11.705,11.69L4.705,8.69C4.324,8.526 4.148,8.085 4.311,7.705Z" fill-rule="1" id="path_1"/>
</svg>