<svg id="vector" xmlns="http://www.w3.org/2000/svg" width="25" height="24" viewBox="0 0 25 24">
    <path fill="#a3a3a3" d="M22.037,5.688L16.018,3.496C15.833,3.408 15.741,3.408 15.556,3.496L9.722,5.162L3.519,3.058C3.241,2.97 3.056,2.97 2.87,3.145C2.685,3.233 2.5,3.496 2.5,3.671V17.699C2.5,17.962 2.685,18.225 2.963,18.312L9.444,20.504C9.63,20.592 9.722,20.592 9.907,20.504L15.741,18.838L21.574,20.942C21.759,21.03 22.037,21.03 22.222,20.855C22.407,20.767 22.5,20.504 22.5,20.329V11.123V7.616V6.301C22.5,6.038 22.315,5.775 22.037,5.688ZM10.463,6.301L15.093,4.986V17.611L10.463,18.926V6.301ZM3.981,4.636L9.074,6.389V19.014L3.981,17.26V4.636ZM21.018,7.616V11.123V19.364L16.389,17.699V5.074L21.018,6.74V7.616Z" fill-rule="1" id="path_0"/>
</svg>