<svg id="vector" xmlns="http://www.w3.org/2000/svg" width="24" height="24" viewBox="0 0 24 24">
    <path fill="#5f27cd" d="M12,9.75C11.138,9.75 10.313,10.097 9.703,10.706C9.094,11.316 8.747,12.141 8.747,13.003C8.747,13.866 9.094,14.691 9.703,15.3C10.313,15.909 11.138,16.256 12,16.256C12.863,16.256 13.688,15.909 14.297,15.3C14.906,14.691 15.253,13.866 15.253,13.003C15.253,12.141 14.906,11.316 14.297,10.706C13.688,10.097 12.863,9.75 12,9.75ZM7.247,13.003C7.247,11.747 7.744,10.538 8.635,9.647C9.535,8.747 10.744,8.25 12,8.25C13.256,8.25 14.466,8.747 15.356,9.637C16.247,10.528 16.744,11.738 16.744,12.994C16.744,14.25 16.247,15.459 15.356,16.35C14.466,17.241 13.256,17.737 12,17.737C10.744,17.737 9.535,17.241 8.644,16.35C7.753,15.469 7.247,14.259 7.247,13.003Z" fill-rule="1" id="path_0"/>
    <path fill="#5f27cd" d="M20.944,7.059C20.428,6.544 19.725,6.253 19.003,6.253H17.737C17.503,6.253 17.278,6.187 17.081,6.066C16.884,5.944 16.725,5.766 16.622,5.559L16.228,4.772C16.003,4.312 15.647,3.928 15.216,3.666C14.784,3.394 14.278,3.253 13.772,3.253H10.247C9.741,3.253 9.234,3.394 8.803,3.666C8.372,3.937 8.016,4.322 7.791,4.772L7.397,5.559C7.294,5.766 7.134,5.944 6.938,6.066C6.741,6.187 6.516,6.253 6.281,6.253H4.997C4.266,6.253 3.572,6.544 3.056,7.059C2.541,7.575 2.25,8.269 2.25,9V18C2.25,18.731 2.541,19.425 3.056,19.941C3.572,20.456 4.275,20.747 4.997,20.747H13.378H13.997H18H18.441H18.994C19.725,20.747 20.419,20.456 20.934,19.941C21.45,19.425 21.741,18.722 21.741,18V9C21.75,8.269 21.459,7.575 20.944,7.059ZM20.25,18C20.25,18.694 19.688,19.247 19.003,19.247H18.45H18H13.997H13.378H4.997C4.303,19.247 3.75,18.684 3.75,18V9C3.75,8.306 4.313,7.753 4.997,7.753H6.262C6.769,7.753 7.275,7.612 7.706,7.341C8.137,7.069 8.494,6.684 8.719,6.234L9.113,5.447C9.216,5.241 9.375,5.062 9.572,4.941C9.769,4.819 9.994,4.753 10.228,4.753H13.753C13.988,4.753 14.212,4.819 14.409,4.941C14.606,5.062 14.766,5.241 14.869,5.447L15.262,6.234C15.488,6.694 15.844,7.078 16.275,7.341C16.706,7.612 17.212,7.753 17.719,7.753H18.984C19.678,7.753 20.231,8.316 20.231,9V18H20.25Z" id="path_1"/>
</svg>