<svg id="vector" xmlns="http://www.w3.org/2000/svg" width="24" height="24" viewBox="0 0 24 24">
    <path fill="#ff6b6b" d="M6.75,13.997C6.75,13.266 7.041,12.572 7.556,12.056C8.072,11.541 8.775,11.25 9.497,11.25H14.494C15.225,11.25 15.919,11.541 16.434,12.056C16.95,12.572 17.241,13.275 17.241,13.997V16.997C17.241,17.728 16.95,18.422 16.434,18.938C15.919,19.453 15.216,19.744 14.494,19.744H9.497C8.766,19.744 8.072,19.453 7.556,18.938C7.041,18.422 6.75,17.719 6.75,16.997V13.997ZM9.497,12.75C8.813,12.75 8.25,13.313 8.25,13.997V16.997C8.25,17.691 8.813,18.244 9.497,18.244H14.494C15.188,18.244 15.741,17.681 15.741,16.997V13.997C15.741,13.303 15.178,12.75 14.494,12.75H9.497Z" fill-rule="1" id="path_0"/>
    <path fill="#ff6b6b" d="M12.75,14.747V12H11.25V19.003H12.75V16.256H16.5V14.756H12.75V14.747Z" fill-rule="1" id="path_1"/>
    <path fill="#ff6b6b" d="M19.79,6.834L14.053,1.913C13.556,1.481 12.919,1.247 12.262,1.247H6C5.269,1.247 4.575,1.538 4.059,2.053C3.544,2.569 3.253,3.272 3.253,3.994V6.666V6.994V10.997V11.653V19.997C3.253,20.728 3.544,21.422 4.059,21.938C4.575,22.453 5.278,22.744 6,22.744H18C18.731,22.744 19.425,22.453 19.94,21.938C20.456,21.422 20.747,20.719 20.747,19.997V8.916C20.747,8.119 20.4,7.35 19.79,6.834ZM19.247,19.997C19.247,20.691 18.684,21.244 18,21.244H6C5.306,21.244 4.753,20.681 4.753,19.997V11.653V10.997V7.003V6.675V4.003C4.753,3.309 5.315,2.756 6,2.756H12.262C12.562,2.756 12.853,2.859 13.078,3.056L18.815,7.969C19.087,8.203 19.256,8.55 19.256,8.916V19.997H19.247Z" id="path_2"/>
</svg>