<svg id="vector" xmlns="http://www.w3.org/2000/svg" width="24" height="24" viewBox="0 0 24 24">
    <path fill="#10ac84" d="M12,11.25C12.197,11.25 12.394,11.325 12.534,11.466C12.675,11.606 12.75,11.794 12.75,12V16.997C12.75,17.194 12.675,17.391 12.534,17.531C12.394,17.672 12.206,17.747 12,17.747C11.803,17.747 11.606,17.672 11.466,17.531C11.325,17.391 11.25,17.203 11.25,16.997V12C11.25,11.803 11.325,11.606 11.466,11.466C11.606,11.325 11.803,11.25 12,11.25Z" fill-rule="1" id="path_0"/>
    <path fill="#10ac84" d="M8.747,14.503C8.747,14.306 8.822,14.109 8.963,13.969C9.103,13.828 9.291,13.753 9.497,13.753H14.494C14.691,13.753 14.888,13.828 15.028,13.969C15.169,14.109 15.244,14.297 15.244,14.503C15.244,14.7 15.169,14.897 15.028,15.038C14.888,15.178 14.7,15.253 14.494,15.253H9.497C9.3,15.253 9.103,15.178 8.963,15.038C8.831,14.887 8.747,14.7 8.747,14.503ZM7.247,1.997C7.247,1.8 7.322,1.603 7.463,1.463C7.603,1.322 7.791,1.247 7.997,1.247H15.994C16.191,1.247 16.388,1.322 16.528,1.463C16.669,1.603 16.744,1.791 16.744,1.997V6C16.744,6.197 16.669,6.394 16.528,6.534C16.388,6.675 16.2,6.75 15.994,6.75H7.997C7.8,6.75 7.603,6.675 7.463,6.534C7.322,6.394 7.247,6.206 7.247,6V1.997ZM8.747,2.747V5.25H15.244V2.747H8.747Z" fill-rule="1" id="path_1"/>
    <path fill="#10ac84" d="M18.628,8.588L16.631,5.588C16.566,5.484 16.472,5.4 16.359,5.344C16.247,5.288 16.125,5.259 16.003,5.259H7.997C7.875,5.259 7.753,5.288 7.641,5.344C7.528,5.4 7.434,5.484 7.369,5.588L5.372,8.588C5.297,8.709 5.25,8.85 5.25,9V22.003C5.25,22.2 5.325,22.397 5.466,22.538C5.606,22.678 5.794,22.753 6,22.753H18C18.197,22.753 18.394,22.678 18.534,22.538C18.675,22.397 18.75,22.209 18.75,22.003V14.006V13.988V10.125V9.684V9C18.75,8.85 18.703,8.709 18.628,8.588ZM17.25,10.116V13.978V13.997V21.244H6.75V9.225L8.4,6.75H15.6L17.25,9.225V9.666V10.116Z" id="path_2"/>
</svg>