<svg id="vector" xmlns="http://www.w3.org/2000/svg" width="24" height="24" viewBox="0 0 24 24">
    <path fill="#2e86de" d="M2.747,4.003C2.747,3.272 3.038,2.578 3.553,2.062C4.069,1.547 4.772,1.256 5.494,1.256H13.5C14.231,1.256 14.925,1.547 15.441,2.062C15.956,2.578 16.247,3.281 16.247,4.003V5.503C16.247,5.7 16.172,5.897 16.031,6.037C15.891,6.178 15.703,6.253 15.497,6.253C15.3,6.253 15.103,6.178 14.963,6.037C14.822,5.897 14.747,5.709 14.747,5.503V4.003C14.747,3.309 14.185,2.756 13.5,2.756H5.503C4.81,2.756 4.256,3.319 4.256,4.003V20.006C4.256,20.7 4.819,21.253 5.503,21.253H12.506C12.703,21.253 12.9,21.328 13.041,21.469C13.181,21.609 13.256,21.797 13.256,22.003C13.256,22.2 13.181,22.397 13.041,22.538C12.9,22.678 12.713,22.753 12.506,22.753H5.503C4.772,22.753 4.078,22.462 3.563,21.947C3.047,21.431 2.756,20.728 2.756,20.006V4.003H2.747Z" fill-rule="1" id="path_0"/>
    <path fill="#2e86de" d="M14.756,7.875C14.784,7.697 14.878,7.538 15.009,7.425C15.141,7.313 15.319,7.247 15.497,7.247H18.994C19.172,7.247 19.341,7.313 19.481,7.425C19.612,7.538 19.706,7.697 19.734,7.875L20.231,10.875C20.25,10.978 20.241,11.091 20.212,11.194C20.184,11.297 20.128,11.4 20.063,11.475C19.987,11.559 19.903,11.625 19.809,11.672C19.706,11.719 19.603,11.738 19.491,11.738H14.991C14.878,11.738 14.775,11.709 14.672,11.672C14.569,11.625 14.484,11.559 14.419,11.475C14.344,11.391 14.297,11.297 14.269,11.194C14.241,11.091 14.231,10.978 14.25,10.875L14.756,7.875ZM16.134,8.747L15.881,10.247H18.609L18.356,8.747H16.134ZM14.756,22.125C14.784,22.303 14.878,22.462 15.009,22.575C15.141,22.688 15.319,22.753 15.497,22.753H18.994C19.172,22.753 19.341,22.688 19.481,22.575C19.612,22.462 19.706,22.303 19.734,22.125L20.231,19.125C20.25,19.022 20.241,18.909 20.212,18.806C20.184,18.703 20.128,18.6 20.063,18.525C19.987,18.441 19.903,18.375 19.809,18.328C19.706,18.281 19.603,18.263 19.491,18.263H14.991C14.878,18.263 14.775,18.291 14.672,18.328C14.569,18.375 14.484,18.441 14.419,18.525C14.344,18.609 14.297,18.703 14.269,18.806C14.241,18.909 14.231,19.022 14.25,19.125L14.756,22.125ZM16.134,21.253L15.881,19.753H18.609L18.356,21.253H16.134Z" fill-rule="1" id="path_1"/>
    <path fill="#2e86de" d="M10.997,18.75H7.997C7.8,18.75 7.603,18.825 7.463,18.966C7.322,19.106 7.247,19.294 7.247,19.5C7.247,19.706 7.322,19.894 7.463,20.034C7.603,20.175 7.791,20.25 7.997,20.25H10.997C11.194,20.25 11.391,20.175 11.531,20.034C11.672,19.894 11.747,19.706 11.747,19.5C11.747,19.294 11.672,19.106 11.531,18.966C11.391,18.825 11.203,18.75 10.997,18.75Z" id="path_2"/>
    <path fill="#2e86de" d="M20.588,10.913C20.166,10.491 19.594,10.256 18.994,10.256H15.497C14.897,10.256 14.325,10.491 13.903,10.913C13.481,11.334 13.247,11.906 13.247,12.506V17.503C13.247,18.103 13.481,18.675 13.903,19.097C14.325,19.519 14.897,19.753 15.497,19.753H18.994C19.594,19.753 20.166,19.519 20.588,19.097C21.01,18.675 21.244,18.103 21.244,17.503V17.006V13.003V12.506C21.253,11.906 21.01,11.334 20.588,10.913ZM19.528,18.028C19.388,18.169 19.2,18.244 18.994,18.244H15.497C15.085,18.244 14.747,17.906 14.747,17.494V12.497C14.747,12.3 14.822,12.103 14.963,11.962C15.103,11.822 15.291,11.747 15.497,11.747H18.994C19.191,11.747 19.388,11.822 19.528,11.962C19.669,12.103 19.744,12.291 19.744,12.497V12.994V16.997V17.494C19.753,17.7 19.669,17.888 19.528,18.028Z" id="path_3"/>
</svg>