<svg id="vector" xmlns="http://www.w3.org/2000/svg" width="34" height="40" viewBox="0 0 34 40">
    <defs>
        <clipPath id="clip_path_0">
            <path d="M4.533,0C2.03,0 0,1.988 0,4.441V28.864C0,31.317 2.03,33.305 4.533,33.305H11.661L14.992,38.898C15.867,40.367 18.034,40.367 18.908,38.898L22.239,33.305H29.467C31.97,33.305 34,31.317 34,28.864V4.441C34,1.988 31.97,0 29.467,0H4.533Z"/>
        </clipPath>
    </defs>
    <path fill="#a3a3a3" d="M4.533,0C2.03,0 0,1.988 0,4.441V28.864C0,31.317 2.03,33.305 4.533,33.305H11.661L14.992,38.898C15.867,40.367 18.034,40.367 18.908,38.898L22.239,33.305H29.467C31.97,33.305 34,31.317 34,28.864V4.441C34,1.988 31.97,0 29.467,0H4.533Z" fill-rule="1" id="path_0"/>
    <g id="g_0">
        <path fill="#40b8b8" d="M11.661,33.305L12.64,32.745L12.312,32.195H11.661V33.305ZM22.239,33.305V32.195H21.588L21.26,32.745L22.239,33.305ZM1.133,4.441C1.133,2.601 2.656,1.11 4.533,1.11V-1.11C1.404,-1.11 -1.133,1.375 -1.133,4.441H1.133ZM1.133,28.864V4.441H-1.133V28.864H1.133ZM4.533,32.195C2.656,32.195 1.133,30.704 1.133,28.864H-1.133C-1.133,31.93 1.404,34.415 4.533,34.415V32.195ZM11.661,32.195H4.533V34.415H11.661V32.195ZM15.971,38.339L12.64,32.745L10.682,33.864L14.013,39.458L15.971,38.339ZM17.929,38.339C17.492,39.073 16.409,39.073 15.971,38.339L14.013,39.458C15.325,41.661 18.575,41.661 19.887,39.458L17.929,38.339ZM21.26,32.745L17.929,38.339L19.887,39.458L23.218,33.864L21.26,32.745ZM29.467,32.195H22.239V34.415H29.467V32.195ZM32.867,28.864C32.867,30.704 31.344,32.195 29.467,32.195V34.415C32.596,34.415 35.133,31.93 35.133,28.864H32.867ZM32.867,4.441V28.864H35.133V4.441H32.867ZM29.467,1.11C31.344,1.11 32.867,2.601 32.867,4.441H35.133C35.133,1.375 32.596,-1.11 29.467,-1.11V1.11ZM4.533,1.11H29.467V-1.11H4.533V1.11Z" clip-path="url(#clip_path_0)"/>
    </g>
</svg>