<svg id="vector" xmlns="http://www.w3.org/2000/svg" width="24" height="24" viewBox="0 0 24 24">
    <path fill="#9747ff" d="M21.357,9.525L19.725,3.806C19.716,3.778 19.706,3.741 19.697,3.713C19.66,3.619 19.603,3.534 19.538,3.469C19.472,3.394 19.388,3.338 19.294,3.3C19.285,3.3 19.285,3.3 19.275,3.291C19.266,3.291 19.257,3.281 19.247,3.281C19.228,3.272 19.2,3.263 19.181,3.263C19.172,3.263 19.172,3.263 19.163,3.253L15.366,2.334C15.253,2.269 15.122,2.231 14.981,2.231H8.785C8.766,2.231 8.756,2.231 8.738,2.231H8.503C8.325,2.231 8.156,2.297 8.025,2.4L4.81,3.253C4.8,3.253 4.8,3.253 4.791,3.263C4.772,3.272 4.753,3.272 4.735,3.281C4.725,3.281 4.716,3.291 4.706,3.291C4.706,3.291 4.706,3.291 4.697,3.291C4.66,3.309 4.622,3.328 4.585,3.347C4.575,3.356 4.566,3.356 4.556,3.366C4.547,3.375 4.528,3.384 4.519,3.394C4.51,3.403 4.491,3.413 4.481,3.422C4.472,3.431 4.472,3.431 4.463,3.441C4.463,3.441 4.463,3.45 4.453,3.45C4.435,3.469 4.416,3.488 4.397,3.516L4.388,3.525C4.369,3.544 4.36,3.563 4.341,3.591C4.341,3.6 4.331,3.6 4.331,3.609C4.322,3.628 4.303,3.656 4.294,3.684C4.294,3.684 4.294,3.684 4.294,3.694C4.294,3.703 4.285,3.703 4.285,3.713C4.275,3.741 4.266,3.769 4.256,3.797L2.625,9.516C2.55,9.778 2.541,10.05 2.588,10.313C2.635,10.575 2.747,10.828 2.906,11.044C3.066,11.259 3.281,11.438 3.516,11.559C3.75,11.681 4.022,11.747 4.294,11.747L5.738,11.756V19.987C5.738,20.456 5.925,20.897 6.253,21.225C6.591,21.563 7.031,21.75 7.5,21.75H16.5C16.969,21.75 17.41,21.563 17.738,21.234C18.066,20.906 18.253,20.466 18.253,19.997V17.212V16.509V12.497V12.159V11.775L19.697,11.766C19.969,11.766 20.232,11.7 20.475,11.578C20.719,11.456 20.925,11.278 21.085,11.063C21.244,10.847 21.357,10.594 21.403,10.331C21.45,10.059 21.431,9.788 21.357,9.525ZM13.96,3.75C13.856,4.022 13.697,4.275 13.481,4.481C13.088,4.875 12.553,5.091 11.991,5.091C11.391,5.091 10.753,4.847 10.266,4.434C10.022,4.228 9.835,3.994 9.703,3.75H13.96ZM4.322,10.256C4.285,10.256 4.247,10.247 4.21,10.228C4.172,10.209 4.144,10.181 4.125,10.153C4.106,10.125 4.088,10.087 4.078,10.05C4.069,10.012 4.069,9.975 4.088,9.938L5.147,6.234L5.756,7.65V10.266L4.322,10.256ZM16.678,20.175C16.632,20.222 16.566,20.25 16.5,20.25H7.5C7.36,20.25 7.247,20.138 7.247,19.997V19.247H16.744V19.997C16.753,20.063 16.725,20.128 16.678,20.175ZM16.753,12.497V16.509V17.212V17.747H7.247V11.025V7.5C7.247,7.397 7.228,7.294 7.191,7.209L6.028,4.5L8.166,3.938C8.381,4.594 8.803,5.156 9.31,5.588C10.041,6.206 11.016,6.6 12,6.6C12.797,6.6 13.566,6.338 14.194,5.859C14.822,5.381 15.281,4.697 15.488,3.938L17.963,4.538L16.81,7.219C16.772,7.313 16.753,7.416 16.753,7.509V11.034V12.169V12.497ZM19.922,10.059C19.913,10.097 19.903,10.134 19.875,10.163C19.857,10.191 19.819,10.219 19.791,10.238C19.753,10.256 19.716,10.266 19.678,10.266L18.253,10.275V7.65L18.863,6.234L19.922,9.938C19.931,9.975 19.931,10.022 19.922,10.059Z" id="path_0"/>
</svg>