<svg id="vector" xmlns="http://www.w3.org/2000/svg" width="24" height="24" viewBox="0 0 24 24">
    <path fill="#ee5253" d="M11.25,4.997C11.25,2.925 12.928,1.247 15,1.247H19.997C20.409,1.247 20.747,1.584 20.747,1.997V3C20.747,5.072 19.069,6.75 16.997,6.75H12C11.587,6.75 11.25,6.413 11.25,6V4.997ZM15,2.747C13.753,2.747 12.75,3.75 12.75,4.997V5.25H16.997C18.244,5.25 19.247,4.247 19.247,3V2.747H15Z" fill-rule="1" id="path_0"/>
    <path fill="#ee5253" d="M7.247,1.997C7.247,1.584 7.585,1.247 7.997,1.247H9.994C11.513,1.247 12.741,2.475 12.741,3.994V9C12.741,9.413 12.403,9.75 11.991,9.75C11.578,9.75 11.241,9.413 11.241,9V4.003C11.241,3.309 10.678,2.756 9.994,2.756H7.997C7.585,2.747 7.247,2.419 7.247,1.997Z" fill-rule="1" id="path_1"/>
    <path fill="#ee5253" d="M8.766,8.353C8.85,7.95 9.244,7.687 9.647,7.762L12,8.231L14.353,7.762C14.756,7.678 15.15,7.941 15.234,8.353C15.319,8.756 15.056,9.15 14.644,9.234L12.141,9.731C12.047,9.75 11.944,9.75 11.85,9.731L9.347,9.234C8.944,9.15 8.681,8.756 8.766,8.353Z" fill-rule="1" id="path_2"/>
    <path fill="#ee5253" d="M14.081,5.25H9.918C5.606,5.25 2.437,9.234 3.309,13.378C3.337,13.528 3.375,13.678 3.422,13.819C3.431,13.866 3.45,13.913 3.468,13.95L4.5,17.653C4.5,17.663 4.509,17.681 4.509,17.691L5.362,20.728C5.7,21.919 6.778,22.734 8.006,22.734H8.981C9.656,22.734 10.303,22.491 10.809,22.041L11.165,21.731C11.643,21.309 12.356,21.309 12.825,21.731L13.181,22.041C13.687,22.491 14.334,22.734 15.009,22.734H15.984C17.212,22.734 18.3,21.919 18.628,20.728L20.578,13.809C21.787,9.525 18.553,5.25 14.081,5.25ZM19.134,13.425L17.184,20.344C17.034,20.888 16.537,21.253 15.984,21.253H15.009C14.7,21.253 14.409,21.141 14.175,20.934L13.818,20.625C12.778,19.697 11.203,19.697 10.162,20.625L9.806,20.934C9.581,21.141 9.281,21.253 8.972,21.253H8.015C7.453,21.253 6.965,20.878 6.815,20.344L6.065,17.691L4.762,12.994C4.143,9.797 6.59,6.75 9.918,6.75H14.081C17.559,6.75 20.072,10.069 19.134,13.425Z" id="path_3"/>
</svg>