<svg id="vector" xmlns="http://www.w3.org/2000/svg" width="24" height="24" viewBox="0 0 24 24">
    <path fill="#a3a3a3" d="M13.97,3.47C14.263,3.177 14.737,3.177 15.03,3.47L20.53,8.97C20.823,9.263 20.823,9.737 20.53,10.03C20.248,10.313 19.795,10.323 19.501,10.06L16.145,13.415L14.702,17.263C14.665,17.364 14.606,17.455 14.53,17.53L13.03,19.03C12.737,19.323 12.263,19.323 11.97,19.03L9,16.061L5.03,20.03C4.737,20.323 4.263,20.323 3.97,20.03C3.677,19.737 3.677,19.263 3.97,18.97L7.939,15L4.97,12.03C4.677,11.737 4.677,11.263 4.97,10.97L6.47,9.47C6.545,9.394 6.636,9.335 6.737,9.298L10.585,7.855L13.94,4.499C13.677,4.205 13.687,3.752 13.97,3.47Z" fill-rule="1" id="path_0"/>
</svg>