<svg id="vector" xmlns="http://www.w3.org/2000/svg" width="24" height="24" viewBox="0 0 24 24">
    <defs>
        <clipPath id="clip_path_0">
            <path d="M0,0h24v24h-24z"/>
        </clipPath>
    </defs>
    <g id="g_0">
        <path fill="#a3a3a3" d="M20.216,5.87C18.347,3.369 15.363,1.75 12.001,1.75C6.34,1.75 1.751,6.339 1.751,12C1.751,14.986 3.028,17.674 5.065,19.547C5.284,19.747 5.514,19.94 5.754,20.124C7.086,21.145 8.587,21.789 10.13,22.072C10.165,22.078 10.198,22.087 10.231,22.098C10.806,22.198 11.397,22.25 12.001,22.25C13.164,22.25 14.281,22.056 15.322,21.7C15.362,21.676 15.406,21.656 15.451,21.639C17.244,20.998 18.879,19.851 20.125,18.227C22.978,14.506 22.885,9.453 20.216,5.87ZM17.465,22.39C17.427,22.419 17.386,22.446 17.342,22.468C15.739,23.288 13.923,23.75 12.001,23.75C8.946,23.75 6.164,22.584 4.075,20.674C-0.396,16.608 -1.078,9.723 2.667,4.84C6.615,-0.31 13.991,-1.283 19.141,2.666C20.076,3.383 20.874,4.214 21.529,5.123C22.927,7.057 23.751,9.432 23.751,12C23.751,14.344 23.063,16.53 21.879,18.365C21.851,18.409 21.818,18.449 21.783,18.485C21.636,18.707 21.48,18.925 21.315,19.14C20.246,20.534 18.925,21.622 17.465,22.39Z" fill-rule="1" clip-path="url(#clip_path_0)"/>
        <path fill="#a3a3a3" d="M6.259,15.611H5.223C5.094,15.611 5,15.517 5,15.388V8.294C5,8.164 5.094,8.07 5.223,8.07H6.259C6.388,8.07 6.482,8.164 6.482,8.294V15.388C6.482,15.517 6.388,15.611 6.259,15.611Z"/>
        <path fill="#a3a3a3" d="M9.28,15.682C8.068,15.682 7.563,14.953 7.563,13.329C7.563,13.106 7.704,13.035 7.868,13.035H8.645C8.809,13.035 8.868,13.129 8.856,13.364C8.821,14.117 8.915,14.494 9.303,14.494C9.739,14.494 9.809,14.223 9.809,13.482C9.809,12.87 9.504,12.482 8.927,12.211C8.068,11.812 7.574,11.106 7.586,10.047C7.598,8.529 8.327,8 9.421,8C10.609,8 11.127,8.659 11.127,10.212C11.127,10.435 10.962,10.506 10.821,10.506H10.045C9.88,10.506 9.809,10.411 9.821,10.2C9.868,9.506 9.798,9.188 9.398,9.188C9.033,9.188 8.915,9.412 8.915,10.106C8.915,10.647 9.162,11.023 9.68,11.259C10.562,11.659 11.139,12.365 11.139,13.447C11.139,15.047 10.539,15.682 9.28,15.682Z"/>
        <path fill="#a3a3a3" d="M13.513,15.611H12.477C12.348,15.611 12.254,15.517 12.254,15.388V8.294C12.254,8.164 12.348,8.07 12.477,8.07H13.513C13.642,8.07 13.736,8.164 13.736,8.294V15.388C13.736,15.517 13.642,15.611 13.513,15.611Z"/>
        <path fill="#a3a3a3" d="M16.881,15.682C15.41,15.682 14.834,14.576 14.834,11.835C14.834,9.094 15.41,8 16.881,8C17.893,8 18.61,8.541 18.61,10.306C18.61,10.518 18.457,10.588 18.316,10.588H17.516C17.352,10.588 17.293,10.459 17.305,10.235C17.352,9.482 17.234,9.176 16.881,9.176C16.375,9.176 16.352,9.741 16.352,11.835C16.352,13.941 16.375,14.505 16.881,14.505C17.234,14.505 17.352,14.176 17.305,13.388C17.293,13.164 17.352,13.035 17.516,13.035H18.316C18.469,13.035 18.61,13.118 18.61,13.317C18.61,15.117 17.893,15.682 16.881,15.682Z"/>
    </g>
</svg>