<svg id="vector" xmlns="http://www.w3.org/2000/svg" width="24" height="24" viewBox="0 0 24 24">
    <path fill="#a3a3a3" d="M2.25,6C2.25,5.801 2.329,5.61 2.47,5.47C2.61,5.329 2.801,5.25 3,5.25H6.5C6.699,5.25 6.89,5.329 7.03,5.47C7.171,5.61 7.25,5.801 7.25,6C7.25,6.199 7.171,6.39 7.03,6.53C6.89,6.671 6.699,6.75 6.5,6.75H3C2.801,6.75 2.61,6.671 2.47,6.53C2.329,6.39 2.25,6.199 2.25,6ZM10.75,6C10.75,5.801 10.829,5.61 10.97,5.47C11.11,5.329 11.301,5.25 11.5,5.25H21C21.199,5.25 21.39,5.329 21.53,5.47C21.671,5.61 21.75,5.801 21.75,6C21.75,6.199 21.671,6.39 21.53,6.53C21.39,6.671 21.199,6.75 21,6.75H11.5C11.301,6.75 11.11,6.671 10.97,6.53C10.829,6.39 10.75,6.199 10.75,6Z" fill-rule="1" id="path_0"/>
    <path fill="#a3a3a3" d="M9,4.25C8.77,4.25 8.543,4.295 8.33,4.383C8.118,4.471 7.925,4.6 7.763,4.763C7.6,4.925 7.471,5.118 7.383,5.33C7.295,5.543 7.25,5.77 7.25,6C7.25,6.23 7.295,6.457 7.383,6.67C7.471,6.882 7.6,7.075 7.763,7.237C7.925,7.4 8.118,7.529 8.33,7.617C8.543,7.705 8.77,7.75 9,7.75C9.464,7.75 9.909,7.566 10.237,7.237C10.566,6.909 10.75,6.464 10.75,6C10.75,5.536 10.566,5.091 10.237,4.763C9.909,4.434 9.464,4.25 9,4.25ZM5.75,6C5.75,5.138 6.092,4.311 6.702,3.702C7.311,3.092 8.138,2.75 9,2.75C9.862,2.75 10.689,3.092 11.298,3.702C11.908,4.311 12.25,5.138 12.25,6C12.25,6.862 11.908,7.689 11.298,8.298C10.689,8.908 9.862,9.25 9,9.25C8.138,9.25 7.311,8.908 6.702,8.298C6.092,7.689 5.75,6.862 5.75,6ZM21.75,12C21.75,11.801 21.671,11.61 21.53,11.47C21.39,11.329 21.199,11.25 21,11.25H19C18.801,11.25 18.61,11.329 18.47,11.47C18.329,11.61 18.25,11.801 18.25,12C18.25,12.199 18.329,12.39 18.47,12.53C18.61,12.671 18.801,12.75 19,12.75H21C21.199,12.75 21.39,12.671 21.53,12.53C21.671,12.39 21.75,12.199 21.75,12ZM14.75,12C14.75,11.801 14.671,11.61 14.53,11.47C14.39,11.329 14.199,11.25 14,11.25H3C2.801,11.25 2.61,11.329 2.47,11.47C2.329,11.61 2.25,11.801 2.25,12C2.25,12.199 2.329,12.39 2.47,12.53C2.61,12.671 2.801,12.75 3,12.75H14C14.199,12.75 14.39,12.671 14.53,12.53C14.671,12.39 14.75,12.199 14.75,12Z" fill-rule="1" id="path_1"/>
    <path fill="#a3a3a3" d="M16.5,10.25C16.964,10.25 17.409,10.434 17.737,10.763C18.066,11.091 18.25,11.536 18.25,12C18.25,12.464 18.066,12.909 17.737,13.237C17.409,13.566 16.964,13.75 16.5,13.75C16.036,13.75 15.591,13.566 15.263,13.237C14.934,12.909 14.75,12.464 14.75,12C14.75,11.536 14.934,11.091 15.263,10.763C15.591,10.434 16.036,10.25 16.5,10.25ZM19.75,12C19.75,11.138 19.408,10.311 18.798,9.702C18.189,9.092 17.362,8.75 16.5,8.75C15.638,8.75 14.811,9.092 14.202,9.702C13.592,10.311 13.25,11.138 13.25,12C13.25,12.862 13.592,13.689 14.202,14.298C14.811,14.908 15.638,15.25 16.5,15.25C17.362,15.25 18.189,14.908 18.798,14.298C19.408,13.689 19.75,12.862 19.75,12ZM2.25,18C2.25,17.801 2.329,17.61 2.47,17.47C2.61,17.329 2.801,17.25 3,17.25H8C8.199,17.25 8.39,17.329 8.53,17.47C8.671,17.61 8.75,17.801 8.75,18C8.75,18.199 8.671,18.39 8.53,18.53C8.39,18.671 8.199,18.75 8,18.75H3C2.801,18.75 2.61,18.671 2.47,18.53C2.329,18.39 2.25,18.199 2.25,18ZM12.25,18C12.25,17.801 12.329,17.61 12.47,17.47C12.61,17.329 12.801,17.25 13,17.25H21C21.199,17.25 21.39,17.329 21.53,17.47C21.671,17.61 21.75,17.801 21.75,18C21.75,18.199 21.671,18.39 21.53,18.53C21.39,18.671 21.199,18.75 21,18.75H13C12.801,18.75 12.61,18.671 12.47,18.53C12.329,18.39 12.25,18.199 12.25,18Z" fill-rule="1" id="path_2"/>
    <path fill="#a3a3a3" d="M10.5,16.25C10.036,16.25 9.591,16.434 9.263,16.763C8.934,17.091 8.75,17.536 8.75,18C8.75,18.464 8.934,18.909 9.263,19.237C9.591,19.566 10.036,19.75 10.5,19.75C10.964,19.75 11.409,19.566 11.737,19.237C12.066,18.909 12.25,18.464 12.25,18C12.25,17.536 12.066,17.091 11.737,16.763C11.409,16.434 10.964,16.25 10.5,16.25ZM7.25,18C7.25,17.138 7.592,16.311 8.202,15.702C8.811,15.092 9.638,14.75 10.5,14.75C11.362,14.75 12.189,15.092 12.798,15.702C13.408,16.311 13.75,17.138 13.75,18C13.75,18.862 13.408,19.689 12.798,20.298C12.189,20.908 11.362,21.25 10.5,21.25C9.638,21.25 8.811,20.908 8.202,20.298C7.592,19.689 7.25,18.862 7.25,18Z" fill-rule="1" id="path_3"/>
</svg>