<svg id="vector" xmlns="http://www.w3.org/2000/svg" width="24" height="24" viewBox="0 0 24 24">
    <path fill="#a3a3a3" d="M8.25,9C8.051,9 7.86,9.079 7.72,9.22C7.579,9.36 7.5,9.551 7.5,9.75V17.25C7.5,17.449 7.579,17.64 7.72,17.78C7.86,17.921 8.051,18 8.25,18C8.449,18 8.64,17.921 8.78,17.78C8.921,17.64 9,17.449 9,17.25V9.75C9,9.551 8.921,9.36 8.78,9.22C8.64,9.079 8.449,9 8.25,9ZM12,9C11.801,9 11.61,9.079 11.47,9.22C11.329,9.36 11.25,9.551 11.25,9.75V17.25C11.25,17.449 11.329,17.64 11.47,17.78C11.61,17.921 11.801,18 12,18C12.199,18 12.39,17.921 12.53,17.78C12.671,17.64 12.75,17.449 12.75,17.25V9.75C12.75,9.551 12.671,9.36 12.53,9.22C12.39,9.079 12.199,9 12,9ZM15,17.25C15,17.449 15.079,17.64 15.22,17.78C15.36,17.921 15.551,18 15.75,18C15.949,18 16.14,17.921 16.28,17.78C16.421,17.64 16.5,17.449 16.5,17.25V9.75C16.5,9.551 16.421,9.36 16.28,9.22C16.14,9.079 15.949,9 15.75,9C15.551,9 15.36,9.079 15.22,9.22C15.079,9.36 15,9.551 15,9.75V17.25Z" id="path_0"/>
    <path fill="#a3a3a3" d="M20.25,5.25H15.75V3C15.75,2.801 15.671,2.61 15.53,2.47C15.39,2.329 15.199,2.25 15,2.25H9C8.801,2.25 8.61,2.329 8.47,2.47C8.329,2.61 8.25,2.801 8.25,3V5.25H3.75C3.551,5.25 3.36,5.329 3.22,5.47C3.079,5.61 3,5.801 3,6C3,6.199 3.079,6.39 3.22,6.53C3.36,6.671 3.551,6.75 3.75,6.75H4.5V19.5C4.482,20.076 4.692,20.637 5.086,21.058C5.479,21.48 6.024,21.729 6.6,21.75H17.4C17.976,21.729 18.521,21.48 18.914,21.058C19.308,20.637 19.518,20.076 19.5,19.5V6.75H20.25C20.449,6.75 20.64,6.671 20.78,6.53C20.921,6.39 21,6.199 21,6C21,5.801 20.921,5.61 20.78,5.47C20.64,5.329 20.449,5.25 20.25,5.25ZM9.75,3.75H14.25V5.25H9.75V3.75ZM18,19.5C18.015,19.678 17.961,19.855 17.85,19.995C17.738,20.134 17.577,20.226 17.4,20.25H6.6C6.423,20.226 6.262,20.134 6.15,19.995C6.039,19.855 5.985,19.678 6,19.5V6.75H18V19.5Z" id="path_1"/>
</svg>