<svg id="vector" xmlns="http://www.w3.org/2000/svg" width="24" height="24" viewBox="0 0 24 24">
    <path fill="#a3a3a3" d="M12,3.75C10.251,3.751 8.547,4.307 7.134,5.34C5.722,6.372 4.675,7.826 4.143,9.493C3.611,11.16 3.623,12.952 4.177,14.611C4.731,16.271 5.798,17.711 7.224,18.725C8.649,19.738 10.361,20.272 12.11,20.249C13.859,20.227 15.556,19.649 16.955,18.598C18.354,17.548 19.383,16.081 19.894,14.408C20.404,12.734 20.37,10.942 19.795,9.29C19.759,9.196 19.743,9.096 19.746,8.996C19.75,8.896 19.774,8.797 19.816,8.706C19.858,8.615 19.919,8.534 19.993,8.467C20.067,8.399 20.154,8.348 20.249,8.315C20.344,8.282 20.444,8.268 20.545,8.275C20.645,8.281 20.742,8.308 20.832,8.353C20.922,8.398 21.001,8.46 21.067,8.536C21.132,8.613 21.181,8.701 21.211,8.797C21.569,9.827 21.751,10.91 21.75,12C21.75,17.385 17.385,21.75 12,21.75C6.615,21.75 2.25,17.385 2.25,12C2.25,6.615 6.615,2.25 12,2.25C14.506,2.25 16.793,3.197 18.52,4.75C18.668,4.883 18.757,5.07 18.767,5.268C18.778,5.467 18.709,5.662 18.576,5.81C18.442,5.957 18.256,6.046 18.057,6.057C17.859,6.067 17.664,5.998 17.516,5.865C16.003,4.501 14.037,3.747 12,3.75Z" fill-rule="1" id="path_0"/>
    <path fill="#a3a3a3" d="M11.999,7.75C11.704,7.75 11.411,7.808 11.138,7.921C10.865,8.034 10.617,8.2 10.408,8.409C10.199,8.618 10.034,8.866 9.921,9.139C9.807,9.412 9.749,9.705 9.749,10C9.749,10.295 9.807,10.588 9.921,10.861C10.034,11.134 10.199,11.382 10.408,11.591C10.617,11.8 10.865,11.966 11.138,12.079C11.411,12.192 11.704,12.25 11.999,12.25C12.596,12.25 13.168,12.013 13.59,11.591C14.012,11.169 14.249,10.597 14.249,10C14.249,9.403 14.012,8.831 13.59,8.409C13.168,7.987 12.596,7.75 11.999,7.75ZM8.249,10C8.249,9.005 8.644,8.052 9.348,7.348C10.051,6.645 11.005,6.25 11.999,6.25C12.994,6.25 13.948,6.645 14.651,7.348C15.354,8.052 15.749,9.005 15.749,10C15.749,10.995 15.354,11.948 14.651,12.652C13.948,13.355 12.994,13.75 11.999,13.75C11.005,13.75 10.051,13.355 9.348,12.652C8.644,11.948 8.249,10.995 8.249,10ZM11.999,16.25C10.943,16.249 9.905,16.517 8.98,17.027C8.055,17.537 7.275,18.273 6.712,19.166C6.606,19.334 6.437,19.453 6.243,19.497C6.049,19.541 5.845,19.505 5.677,19.399C5.509,19.293 5.39,19.124 5.346,18.93C5.303,18.736 5.338,18.532 5.444,18.364C6.142,17.257 7.11,16.344 8.256,15.712C9.403,15.08 10.69,14.749 11.999,14.75C13.309,14.749 14.596,15.08 15.743,15.712C16.889,16.344 17.857,17.257 18.555,18.364C18.608,18.447 18.644,18.54 18.66,18.637C18.677,18.734 18.675,18.834 18.653,18.93C18.632,19.026 18.591,19.117 18.534,19.197C18.478,19.278 18.406,19.346 18.322,19.399C18.239,19.452 18.146,19.487 18.049,19.504C17.952,19.521 17.853,19.518 17.757,19.497C17.66,19.475 17.569,19.435 17.489,19.378C17.409,19.321 17.34,19.249 17.287,19.166C16.724,18.272 15.944,17.536 15.019,17.026C14.094,16.516 13.055,16.249 11.999,16.25Z" fill-rule="1" id="path_1"/>
</svg>