<svg id="vector" xmlns="http://www.w3.org/2000/svg" width="24" height="24" viewBox="0 0 24 24">
    <path fill="#a3a3a3" d="M22.372,11.528C22.17,11.25 17.46,5.25 12,5.25C6.81,5.25 1.852,11.25 1.642,11.505C1.529,11.645 1.467,11.82 1.467,12C1.467,12.18 1.529,12.355 1.642,12.495C1.852,12.75 6.81,18.75 12,18.75C17.19,18.75 22.155,12.75 22.357,12.458C22.464,12.327 22.524,12.164 22.526,11.995C22.529,11.826 22.475,11.662 22.372,11.528ZM12,17.25C8.34,17.25 4.537,13.417 3.285,12C4.537,10.613 8.34,6.75 12,6.75C15.862,6.75 19.537,10.583 20.73,12C19.5,13.365 15.75,17.25 12,17.25Z" id="path_0"/>
    <path fill="#a3a3a3" d="M12,8.25C11.258,8.25 10.533,8.47 9.917,8.882C9.3,9.294 8.819,9.88 8.535,10.565C8.252,11.25 8.177,12.004 8.322,12.732C8.467,13.459 8.824,14.127 9.348,14.652C9.873,15.176 10.541,15.533 11.268,15.678C11.996,15.823 12.75,15.748 13.435,15.465C14.12,15.181 14.706,14.7 15.118,14.083C15.53,13.467 15.75,12.742 15.75,12C15.75,11.005 15.355,10.052 14.652,9.348C13.948,8.645 12.995,8.25 12,8.25ZM12,14.25C11.555,14.25 11.12,14.118 10.75,13.871C10.38,13.624 10.092,13.272 9.921,12.861C9.751,12.45 9.706,11.998 9.793,11.561C9.88,11.125 10.094,10.724 10.409,10.409C10.724,10.094 11.125,9.88 11.561,9.793C11.998,9.706 12.45,9.751 12.861,9.921C13.272,10.092 13.624,10.38 13.871,10.75C14.118,11.12 14.25,11.555 14.25,12C14.25,12.597 14.013,13.169 13.591,13.591C13.169,14.013 12.597,14.25 12,14.25Z" id="path_1"/>
</svg>